<?xml version="1.0" standalone="no"?>
<!DOCTYPE svg PUBLIC "-//W3C//DTD SVG 20010904//EN"
 "http://www.w3.org/TR/2001/REC-SVG-20010904/DTD/svg10.dtd">
<svg version="1.0" xmlns="http://www.w3.org/2000/svg"
 width="700.000000pt" height="700.000000pt" viewBox="0 0 700.000000 700.000000"
 preserveAspectRatio="xMidYMid meet">
<metadata>
Created by potrace 1.11, written by Peter Selinger 2001-2013
</metadata>
<g transform="translate(0.000000,700.000000) scale(0.100000,-0.100000)"
fill="#000000" stroke="none">
<path d="M0 3546 l0 -2191 466 0 466 -1 -4 177 -4 177 86 -87 c217 -223 512
-347 848 -354 253 -6 469 37 667 133 81 39 196 109 222 136 8 8 18 14 22 14
12 0 184 170 228 225 44 55 133 183 133 191 0 2 10 21 23 42 57 91 147 341
170 472 3 14 12 59 20 100 16 77 22 118 32 230 10 103 1 96 118 94 56 -1 105
-2 109 -3 4 0 7 -328 7 -729 0 -400 0 -747 1 -772 l0 -45 463 0 462 0 -1 175
-1 176 91 -91 c193 -192 402 -293 706 -340 57 -9 269 -10 355 -2 169 16 383
84 529 169 190 111 341 252 469 440 104 154 175 315 227 513 18 66 22 86 35
153 3 15 8 34 10 42 2 8 7 42 11 75 3 33 8 62 9 65 18 30 26 526 12 670 -22
222 -68 409 -143 587 -77 180 -159 300 -313 453 -208 207 -430 328 -706 386
-144 30 -438 26 -595 -7 -65 -14 -191 -55 -257 -85 -90 -39 -244 -147 -314
-219 -35 -36 -66 -65 -69 -65 -3 0 -5 289 -5 643 l0 643 -487 0 -488 0 0 -30
c-1 -44 -1 -2322 0 -2434 l0 -92 485 1 485 0 0 22 c2 75 37 254 71 360 89 275
249 472 425 523 68 19 347 22 414 4 145 -39 278 -166 373 -355 33 -66 94 -240
103 -295 3 -14 9 -47 14 -75 19 -94 22 -130 24 -280 4 -193 -8 -296 -58 -495
-38 -151 -142 -343 -238 -439 -114 -114 -189 -142 -388 -145 -233 -3 -312 20
-427 128 -143 133 -246 351 -292 620 -10 57 -18 114 -17 127 l1 24 292 0 c324
0 313 -2 331 67 12 44 4 57 -19 27 l-16 -21 -1396 0 -1397 -1 0 -46 c0 -40 -8
-100 -25 -201 -28 -163 -94 -337 -174 -460 -75 -116 -185 -210 -286 -245 -56
-19 -286 -27 -390 -13 -264 35 -488 379 -542 833 -17 137 -8 396 17 525 6 30
13 67 15 81 6 34 52 175 71 219 98 224 236 371 388 415 79 23 351 24 428 1
213 -62 399 -333 467 -681 18 -94 29 -169 30 -207 1 -16 35 -17 507 -18 l507
0 -7 112 c-3 62 -8 124 -10 138 -3 14 -7 49 -10 79 -4 29 -8 56 -10 60 -2 3
-7 27 -10 52 -15 111 -86 329 -148 454 -56 111 -172 270 -263 360 -205 202
-435 328 -711 391 -78 18 -406 28 -470 14 -22 -4 -59 -11 -84 -13 -50 -6 -206
-50 -260 -74 -136 -59 -251 -135 -355 -234 l-80 -77 0 647 0 646 -487 1 -488
0 0 -2190z"/>
<path d="M1719 3897 c87 -34 177 -132 239 -259 50 -103 87 -210 97 -284 3 -21
8 -45 10 -52 9 -26 19 -178 18 -270 -2 -211 -42 -393 -124 -561 -62 -127 -152
-225 -240 -260 l-54 -22 42 5 c121 12 241 125 326 307 29 61 71 201 81 264 3
22 9 53 12 70 19 86 18 333 0 440 -3 17 -8 46 -11 65 -23 135 -80 284 -147
382 -71 105 -149 169 -230 188 -69 16 -77 10 -19 -13z"/>
<path d="M5321 3906 c157 -60 276 -229 342 -486 32 -125 39 -178 42 -341 8
-414 -145 -778 -367 -871 l-43 -18 42 5 c56 6 108 33 171 90 150 135 253 430
255 735 1 121 -7 250 -17 280 -3 8 -7 31 -9 50 -8 66 -59 215 -104 303 -51 98
-143 201 -208 232 -45 21 -45 21 -100 29 l-40 6 36 -14z"/>
</g>
</svg>
