<?xml version="1.0" encoding="UTF-8" standalone="no"?>
<svg width="86px" height="90px" viewBox="0 0 86 90" version="1.1" xmlns="http://www.w3.org/2000/svg" xmlns:xlink="http://www.w3.org/1999/xlink">
    <defs></defs>
                    <path d="M83.7,43 C83.5,42.4 83.3,41.9 83.1,41.3 C83,41.1 83,41 82.9,40.9 C82.7,40.5 82.6,40.1 82.4,39.7 C82.4,39.6 82.3,39.5 82.3,39.4 C82.1,38.9 81.8,38.4 81.6,37.9 C81.5,37.8 81.5,37.7 81.4,37.6 C81.2,37.2 81,36.9 80.8,36.5 C80.7,36.4 80.6,36.2 80.6,36.1 C80.3,35.7 80.1,35.3 79.8,34.9 L79.8,34.9 L78.9,33.7 C78.8,33.6 78.7,33.5 78.6,33.4 C78.4,33.1 78.1,32.8 77.9,32.6 C77.8,32.5 77.7,32.4 77.7,32.3 C77.4,32 77.1,31.6 76.7,31.3 C76.6,31.2 76.5,31.1 76.4,31.1 C76.1,30.9 75.9,30.6 75.6,30.4 C75.5,30.3 75.4,30.2 75.3,30.1 C75,29.9 74.7,29.6 74.4,29.4 C74.3,29.4 74.3,29.3 74.2,29.3 C73.9,29.1 73.5,28.8 73.2,28.6 C73.1,28.5 72.9,28.4 72.8,28.4 C72.5,28.2 72.3,28.1 72,27.9 C71.9,27.8 71.7,27.8 71.6,27.7 C71.2,27.5 70.9,27.3 70.5,27.2 C70.4,27.1 70.2,27.1 70.1,27 C69.8,26.9 69.6,26.8 69.3,26.7 C69.1,26.6 69,26.6 68.8,26.5 C68.5,26.4 68.2,26.3 67.9,26.2 C67.7,26.1 67.5,26.1 67.4,26 C67.1,25.9 66.8,25.8 66.5,25.8 C66.3,25.8 66.1,25.7 66,25.7 C65.8,25.6 65.5,25.6 65.3,25.6 C65.1,25.6 64.9,25.5 64.8,25.5 C64.4,25.4 64.1,25.4 63.7,25.3 C63.5,25.3 63.3,25.3 63.1,25.2 C62.9,25.2 62.6,25.2 62.4,25.1 L61.8,25.1 L61.1,25.1 L60.2,25.1 L59.5,25.1 L58.9,25.1 C58.7,25.1 58.5,25.1 58.3,25.2 C58.1,25.2 57.9,25.2 57.7,25.3 C57.3,25.3 57,25.4 56.6,25.5 L56.6,25.5 C52.4,26.2 48.3,27.8 44.8,30.3 C44.3,27.6 43.6,25.2 42.6,23.1 C43.3,22.1 45.9,20.1 54.9,19.1 C67.9,17.4 65.7,0 65.7,0 C65.7,0 60.9,3 52.9,4.3 C45.4,5.5 40.2,12.8 41.6,21.5 C36.2,11.8 26.4,9.7 26.4,9.7 C25.4,10.9 25.3,12.7 25.3,12.7 C36.9,17.2 41.7,25 43.7,30 C41,28 27.3,18.6 11.2,28.4 C-6.6,39.3 -4.5,88.7 39.7,90 L39.7,90 L41.2,90 C77.4,90.2 89.9,63.4 83.7,43 L83.7,43 L83.7,43 Z" id="Shape"></path>
</svg>
