<svg viewBox="0 0 680 440" xmlns="http://www.w3.org/2000/svg" fill-rule="evenodd" clip-rule="evenodd" stroke-linejoin="round" stroke-miterlimit="1.41421"><path d="M297 292c0-1.104-.896-2-2-2h-20c-1.104 0-2 .896-2 2v2c0 1.104.896 2 2 2h20c1.104 0 2-.896 2-2v-2z" fill="#f34848"/><path d="M260.002 440h49.996c2.21 0 4.002-1.795 4.002-4.009V346c0-10.727-10-19.5-13-26.5-4.116-9.603-6-23.5-6-23.5h-20s-1.884 13.897-6 23.5c-3 7-13 15.773-13 26.5v89.991c0 2.214 1.792 4.009 4.002 4.009z" fill="#dff5fd"/><path d="M256 380h58v55.993c0 2.213-1.799 4.007-4.009 4.007h-49.982c-2.214 0-4.009-1.796-4.009-4.007V380z" fill="#fff"/><path d="M256 355h58v55h-58v-55z" fill="#faf6eb"/><path d="M302.5 399c.828 0 1.5.672 1.5 1.5s-.672 1.5-1.5 1.5h-35c-.828 0-1.5-.672-1.5-1.5s.672-1.5 1.5-1.5h35zm0-6c.828 0 1.5.672 1.5 1.5s-.672 1.5-1.5 1.5h-35c-.828 0-1.5-.672-1.5-1.5s.672-1.5 1.5-1.5h35z" fill="#eee8d6"/><path d="M296 364c0-.552-.448-1-1-1h-20c-.552 0-1 .448-1 1v2c0 .552.448 1 1 1h20c.552 0 1-.448 1-1v-2z" fill="#dcd7c6"/><path d="M283.072 372.003c.114.011.223.035.327.08.253.11.453.325.544.585.033.092.049.187.056.284.049 2.031.049 4.065 0 6.096-.011.146-.045.286-.114.417-.059.114-.142.216-.24.299-.086.073-.185.131-.29.171-.353.134-.76.054-1.036-.203-.071-.066-.132-.142-.181-.225-.083-.141-.125-.296-.137-.459-.049-2.031-.049-4.065 0-6.096.007-.097.023-.192.056-.284.091-.26.291-.475.544-.585.104-.045.213-.069.327-.08.048-.003.096-.003.144 0zm4 0c.114.011.223.035.327.08.253.11.453.325.544.585.033.092.049.187.056.284.049 2.031.049 4.065 0 6.096-.012.163-.054.318-.137.459-.191.325-.559.518-.934.49-.097-.007-.192-.028-.283-.062-.105-.04-.204-.098-.29-.171-.098-.083-.181-.185-.24-.299-.069-.131-.103-.271-.114-.417-.049-2.031-.049-4.065 0-6.096.007-.097.023-.192.056-.284.091-.26.291-.475.544-.585.104-.045.213-.069.327-.08.048-.003.096-.003.144 0z" fill="#736e61" fill-rule="nonzero"/><path d="M288.933 374.769l5.577-1.494s.776 2.897-2.122 3.674c-.889.238-1.578.131-2.107-.133.011.046.021.093.029.14l1.562 8.62c.026.142.038.288.037.435-.013-2.187-3.124-3.96-6.954-3.96-3.829 0-6.939 1.772-6.955 3.958-.002-.147.01-.292.036-.433l1.562-8.62c.006-.031.012-.061.018-.092-.514.228-1.171.308-2.004.085-2.898-.777-2.122-3.674-2.122-3.674l5.509 1.476c.614-.467 1.365-.751 2.132-.751h3.646c.777 0 1.537.291 2.156.769z" fill="#b3ac98"/><path d="M278 385.958c.016-2.186 3.126-3.958 6.955-3.958 3.83 0 6.941 1.773 6.954 3.96 0 .095-.005.191-.016.286l-.003.029-.001.01c-.278 2.048-3.277 3.663-6.931 3.664h-.004c-3.56 0-6.498-1.532-6.906-3.503-.03-.163-.047-.327-.048-.488z" fill="#faddc3"/><path d="M570.153 39H574v-8h2v8h4V24h2v15h4V23h2v16h4V23h2v16h4V23h2v16h4V25.334h2V39h4v-8.666h2V39h5.485v2H612v4h4.835v2H612v4h7.642v2H612v4h7.642v2H612v4h7.642v2H612v4h6.11v2H612v4h4.358v2H612v9.334h-2V77h-4v14.334h-2V77h-4v18.002h-2V77h-4v18.002h-2V77h-4v18.002h-2V77h-4v13h-2V77h-4v8h-2v-8h-3.284v-2H574v-4h-8.695v-2H574v-4h-9.46v-2H574v-4h-9.46v-2H574v-4h-9.46v-2H574v-4h-7.674v-2H574v-4h-3.847v-2zM600 71v4h4v-4h-4zm-24 0v4h4v-4h-4zm6 0v4h4v-4h-4zm12 0v4h4v-4h-4zm12 0v4h4v-4h-4zm-18 0v4h4v-4h-4zm0-6v4h4v-4h-4zm6 0v4h4v-4h-4zm-18 0v4h4v-4h-4zm6 0v4h4v-4h-4zm18 0v4h4v-4h-4zm6 0v4h4v-4h-4zm-30-6v4h4v-4h-4zm6 0v4h4v-4h-4zm6 0v4h4v-4h-4zm6 0v4h4v-4h-4zm6 0v4h4v-4h-4zm6 0v4h4v-4h-4zm0-6v4h4v-4h-4zm-12 0v4h4v-4h-4zm-18 0v4h4v-4h-4zm6 0v4h4v-4h-4zm6 0v4h4v-4h-4zm12 0v4h4v-4h-4zm-24-6v4h4v-4h-4zm6 0v4h4v-4h-4zm6 0v4h4v-4h-4zm6 0v4h4v-4h-4zm6 0v4h4v-4h-4zm6 0v4h4v-4h-4zm-30-6v4h4v-4h-4zm6 0v4h4v-4h-4zm6 0v4h4v-4h-4zm6 0v4h4v-4h-4zm6 0v4h4v-4h-4zm6 0v4h4v-4h-4z" fill="#738699"/><path d="M597 164v-34.998c0-1.104-.895-2.002-1.998-2.002h-4.004c-1.111 0-1.998.896-1.998 2.002V164l-1.367 4.102c-.35 1.048.269 1.898 1.376 1.898h7.982c1.11 0 1.727-.847 1.376-1.898L597 164z" fill="#509be6"/><path d="M591 118.449c-.734-5.408-2.316-9.524-4.994-13.959-.583-.964-6.916-10.375-9.535-14.78-2.948-2.472-5.427-5.499-7.399-8.798-.403-.672-.785-1.357-1.146-2.053-3.369-6.48-4.962-13.819-4.925-21.105.037-7.548 1.83-15.145 5.537-21.746 2.7-4.808 6.446-9.103 11.134-12.056.648-.408 1.313-.789 1.993-1.142.843-.436 1.709-.828 2.594-1.169 1.118-.431 2.265-.782 3.433-1.047 1.114-.252 2.245-.425 3.383-.517.576-.046 1.153-.069 1.731-.076.194-.001.194-.001.388 0 .578.007 1.155.03 1.731.076 1.138.092 2.269.265 3.383.517 1.168.265 2.315.616 3.433 1.047.885.341 1.751.733 2.594 1.169.68.353 1.345.734 1.993 1.142 4.688 2.953 8.434 7.248 11.134 12.056 3.707 6.601 5.5 14.198 5.537 21.746.037 7.286-1.556 14.625-4.925 21.105-.361.696-.743 1.381-1.146 2.053-1.972 3.299-4.451 6.326-7.399 8.798-2.619 4.405-8.952 13.816-9.535 14.78-2.678 4.435-4.26 8.551-4.994 13.959V127h-4v-8.551zm-8.553-24.87c2.697 4.168 5.698 8.651 6.127 9.36 1.425 2.36 2.565 4.649 3.448 7.061h1.956c.883-2.412 2.023-4.701 3.448-7.061.429-.709 3.43-5.192 6.127-9.36-.708.337-1.431.642-2.166.914-1.183.436-2.399.782-3.635 1.032-1.563.316-3.157.475-4.752.475-1.595 0-3.189-.159-4.752-.475-1.236-.25-2.452-.596-3.635-1.032-.735-.272-1.458-.577-2.166-.914zm10.399-68.578c-1.312.015-2.619.157-3.902.437-.834.182-1.656.42-2.459.709-.67.241-1.327.518-1.969.827-4.057 1.955-7.419 5.157-9.967 8.838-.381.55-.745 1.112-1.091 1.684-2.305 3.806-3.852 8.053-4.694 12.415-.527 2.736-.778 5.524-.763 8.309.032 6.393 1.461 12.828 4.449 18.5.404.767.836 1.52 1.298 2.254.353.563.724 1.115 1.112 1.656 2.536 3.533 5.841 6.591 9.795 8.462.643.304 1.302.576 1.972.812.9.316 1.822.568 2.758.749 1.19.231 2.402.347 3.615.347 1.212 0 2.425-.116 3.615-.347.936-.181 1.858-.433 2.757-.749.671-.236 1.33-.508 1.973-.812 3.954-1.871 7.259-4.929 9.795-8.462.388-.541.759-1.093 1.112-1.656.462-.734.894-1.487 1.298-2.254 2.988-5.672 4.417-12.107 4.449-18.5.015-2.785-.236-5.573-.763-8.309-.842-4.363-2.39-8.609-4.694-12.416-.347-.572-.71-1.134-1.091-1.683-2.548-3.681-5.91-6.883-9.967-8.838-.642-.309-1.299-.586-1.969-.827-.803-.289-1.625-.527-2.459-.709-1.233-.269-2.488-.41-3.749-.435-.153-.002-.307-.003-.461-.002z" fill="#545459"/><path d="M52 118h44l-5.813 33.031c-.192 1.087-1.244 1.969-2.353 1.969H60.166c-1.108 0-2.161-.883-2.353-1.969L52 118z" fill="#cfb9df"/><path d="M73.072 51.468s1.966-5.144 3.786-6.963C80.165 41.198 88 40 88 40s-1.926 6.078-5.894 10.046c-1.684 1.684-3.693 2.784-5.449 3.491-1.086 4.143-1.908 8.569-2.481 13.24-.165 1.345-.309 2.699-.433 4.062 1.794-2.382 4.319-5.163 7.128-6.533 5.474-2.669 15.629-.822 15.629-.822s-4.948 6.667-11.516 9.871c-4.248 2.072-8.851 2.152-11.573 1.95-.426 7.291-.312 14.767.221 22.181 1.856-2.015 4.517-4.426 7.38-5.486 5.354-1.982 16-2 16-2s-3.953 9-12 11c-4.619 1.148-8.547.876-11.056.437.178 1.934.383 3.861.612 5.776.307 2.555.636 4.873.964 6.908.114.711.22 1.334.315 1.866.056.315.096.527.116.631l-3.926.764c-.024-.124-.068-.356-.128-.692-.098-.553-.208-1.199-.326-1.932-.337-2.087-.673-4.458-.986-7.068-.717-5.97-1.195-12.052-1.371-18.123-2.506.351-6.089.461-10.226-.567-8.048-2-12-11-12-11s10.646.018 16 2c2.28.844 4.431 2.545 6.15 4.22.008-6.064.338-12.082 1.056-17.93.151-1.232.319-2.448.504-3.648-1.976.533-5.641 1.195-9.304.145-5.394-1.547-10.025-5.929-10.025-5.929s7.434-2.751 11.929-1.462c3.067.879 6.087 3.71 7.697 5.42.556-3.244 1.242-6.364 2.065-9.348z" fill="#a1de52"/><path d="M98 110c0-1.104-.896-2-2-2H52c-1.104 0-2 .896-2 2v6c0 1.104.896 2 2 2h44c1.104 0 2-.896 2-2v-6z" fill="#bea9cc"/><path d="M570 270c0-3.311-2.689-6-6-6h-78c-3.311 0-6 2.689-6 6v78c0 3.311 2.689 6 6 6h78c3.311 0 6-2.689 6-6v-78z" fill="#f8f8f8"/><path d="M495 314c-2.761 0-5-2.239-5-5s2.239-5 5-5 5 2.239 5 5-2.239 5-5 5zm15-15c-2.761 0-5-2.239-5-5s2.239-5 5-5 5 2.239 5 5-2.239 5-5 5zm0 15c-2.761 0-5-2.239-5-5s2.239-5 5-5 5 2.239 5 5-2.239 5-5 5zm15-15c-2.761 0-5-2.239-5-5s2.239-5 5-5 5 2.239 5 5-2.239 5-5 5zm0 15c-2.761 0-5-2.239-5-5s2.239-5 5-5 5 2.239 5 5-2.239 5-5 5zm15-15c-2.761 0-5-2.239-5-5s2.239-5 5-5 5 2.239 5 5-2.239 5-5 5zm0 15c-2.761 0-5-2.239-5-5s2.239-5 5-5 5 2.239 5 5-2.239 5-5 5zm15 0c-2.761 0-5-2.239-5-5s2.239-5 5-5 5 2.239 5 5-2.239 5-5 5zm0-15c-2.761 0-5-2.239-5-5s2.239-5 5-5 5 2.239 5 5-2.239 5-5 5zm-60 30c-2.761 0-5-2.239-5-5s2.239-5 5-5 5 2.239 5 5-2.239 5-5 5zm15 0c-2.761 0-5-2.239-5-5s2.239-5 5-5 5 2.239 5 5-2.239 5-5 5zm15 0c-2.761 0-5-2.239-5-5s2.239-5 5-5 5 2.239 5 5-2.239 5-5 5z" fill="#c2f77c"/><path d="M540 329c-2.761 0-5-2.239-5-5s2.239-5 5-5 5 2.239 5 5-2.239 5-5 5zm15 0c-2.761 0-5-2.239-5-5s2.239-5 5-5 5 2.239 5 5-2.239 5-5 5zm-60 15c-2.761 0-5-2.239-5-5s2.239-5 5-5 5 2.239 5 5-2.239 5-5 5zm15 0c-2.761 0-5-2.239-5-5s2.239-5 5-5 5 2.239 5 5-2.239 5-5 5zm15 0c-2.761 0-5-2.239-5-5s2.239-5 5-5 5 2.239 5 5-2.239 5-5 5z" fill="#e1e2e6"/><path d="M480 269.993c0-3.31 2.694-5.993 6.01-5.993h77.98c3.319 0 6.01 2.682 6.01 5.993V279h-90v-9.007z" fill="#c2f77c"/><path d="M492 266c1.656 0 3 1.344 3 3s-1.344 3-3 3-3-1.344-3-3 1.344-3 3-3zm33 0c1.656 0 3 1.344 3 3s-1.344 3-3 3-3-1.344-3-3 1.344-3 3-3zm33 0c1.656 0 3 1.344 3 3s-1.344 3-3 3-3-1.344-3-3 1.344-3 3-3z" fill="#8bc541"/><path d="M494 261c0-1.104-.896-2-2-2s-2 .896-2 2v8c0 1.104.896 2 2 2s2-.896 2-2v-8zm66 0c0-1.104-.896-2-2-2s-2 .896-2 2v8c0 1.104.896 2 2 2s2-.896 2-2v-8zm-33 0c0-1.104-.896-2-2-2s-2 .896-2 2v8c0 1.104.896 2 2 2s2-.896 2-2v-8z" fill="#e1e2e6"/><path d="M373 2.982C373 1.336 371.656 0 370 0h-60c-1.656 0-3 1.336-3 2.982v79.036c0 1.646 1.344 2.982 3 2.982h60c1.656 0 3-1.336 3-2.982V2.982z" fill="#faf8f3"/><path d="M358 11.25c0-1.242-1.008-2.25-2.25-2.25h-31.5c-1.242 0-2.25 1.008-2.25 2.25s1.008 2.25 2.25 2.25h31.5c1.242 0 2.25-1.008 2.25-2.25z" fill="#dbd6c5"/><path d="M361 71c.828 0 1.5.672 1.5 1.5s-.672 1.5-1.5 1.5h-28.5c-.828 0-1.5-.672-1.5-1.5s.672-1.5 1.5-1.5H361zm-7.5-12.5c.828 0 1.5.672 1.5 1.5s-.672 1.5-1.5 1.5h-21c-.828 0-1.5-.672-1.5-1.5s.672-1.5 1.5-1.5h21zm6-12c.828 0 1.5.672 1.5 1.5s-.672 1.5-1.5 1.5h-27c-.828 0-1.5-.672-1.5-1.5s.672-1.5 1.5-1.5h27zm-7.5-12c.828 0 1.5.672 1.5 1.5s-.672 1.5-1.5 1.5h-19.5c-.828 0-1.5-.672-1.5-1.5s.672-1.5 1.5-1.5H352zm7.5-12c.828 0 1.5.672 1.5 1.5s-.672 1.5-1.5 1.5h-27c-.828 0-1.5-.672-1.5-1.5s.672-1.5 1.5-1.5h27z" fill="#ede8d5"/><path d="M319.795 72.455c-.439-.44-1.151-.44-1.59 0-.44.439-.44 1.151 0 1.59l2.25 2.25c.439.44 1.151.44 1.59 0l4.5-4.5c.44-.439.44-1.151 0-1.59-.439-.44-1.151-.44-1.59 0l-3.705 3.704-1.455-1.454zm0-12.5c-.439-.44-1.151-.44-1.59 0-.44.439-.44 1.151 0 1.59l2.25 2.25c.439.44 1.151.44 1.59 0l4.5-4.5c.44-.439.44-1.151 0-1.59-.439-.44-1.151-.44-1.59 0l-3.705 3.704-1.455-1.454zm0-12c-.439-.44-1.151-.44-1.59 0-.44.439-.44 1.151 0 1.59l2.25 2.25c.439.44 1.151.44 1.59 0l4.5-4.5c.44-.439.44-1.151 0-1.59-.439-.44-1.151-.44-1.59 0l-3.705 3.704-1.455-1.454zm0-12c-.439-.44-1.151-.44-1.59 0-.44.439-.44 1.151 0 1.59l2.25 2.25c.439.44 1.151.44 1.59 0l4.5-4.5c.44-.439.44-1.151 0-1.59-.439-.44-1.151-.44-1.59 0l-3.705 3.704-1.455-1.454zm0-12c-.439-.44-1.151-.44-1.59 0-.44.439-.44 1.151 0 1.59l2.25 2.25c.439.44 1.151.44 1.59 0l4.5-4.5c.44-.439.44-1.151 0-1.59-.439-.44-1.151-.44-1.59 0l-3.705 3.704-1.455-1.454z" fill="#c2f77c"/><path d="M467 192c.008.005 22.005 15.001 49 23 8 4 4 11 4 11l-85-2s0-16 2-21 3.699-6.473 3.699-6.473c.694-.856 2.006-.993 2.875-.334 0 0 1.926 2.807 11.426 1.807 2.365-.249 4.297-.746 5.864-1.352-1.499-3.334.737-7.735.737-7.735.208-.498.749-.633 1.18-.288L467 192z" fill="#f37455"/><path d="M521 226.995c0 1.107-.892 2.005-1.997 2.005h-37.497c-.28 0-.606-.199-.728-.444l-.556-1.112c-.123-.245-.455-.444-.725-.444h-5.994c-.278 0-.603.199-.725.444l-.556 1.112c-.123.245-.439.444-.717.444h-32.51c-2.206 0-3.995-1.795-3.995-4v-4l84.001 2.93c1.104.039 1.999.964 1.999 2.075v.99z" fill="#f6f7ff"/><path d="M481 207c-1.104 0-2 .896-2 2s.896 2 2 2 2-.896 2-2-.896-2-2-2zm-8-4c-1.104 0-2 .896-2 2s.896 2 2 2 2-.896 2-2-.896-2-2-2zm-8-4c-1.104 0-2 .896-2 2s.896 2 2 2 2-.896 2-2-.896-2-2-2z" fill="#cc6247"/><path d="M464.2 200.4l5.216-6.955c.331-.441.958-.531 1.4-.2.442.332.531.959.2 1.4L465.8 201.6c-.331.442-.958.531-1.4.2-.442-.331-.531-.958-.2-1.4zm8 4l4.818-6.424c.331-.442.958-.532 1.4-.2.442.331.531.958.2 1.4L473.8 205.6c-.331.442-.958.531-1.4.2-.442-.331-.531-.958-.2-1.4zm8 4l4.679-6.239c.332-.442.959-.532 1.4-.2.442.331.532.958.2 1.4L481.8 209.6c-.331.442-.958.531-1.4.2-.442-.331-.531-.958-.2-1.4z" fill="#fafafa" fill-rule="nonzero"/><path d="M72 403s22 15 49 23c8 4 4 11 4 11l-85-2s0-16 2-21 3.699-6.473 3.699-6.473c.694-.856 2.006-.993 2.875-.334 0 0 1.926 2.807 11.426 1.807 2.365-.249 4.297-.746 5.864-1.352-1.499-3.334.737-7.735.737-7.735.208-.498.749-.633 1.18-.288L72 403z" fill="#6ca5f8"/><path d="M44.235 409.449c-.542.872-1.199 2.091-1.905 3.751l22.381 22.381 2.645.063 1.537-1.537-24.658-24.658zm14.683 25.996L41.1 417.627c-.253 1.528-.448 3.275-.599 5.058l12.624 12.624 5.793.136zm39.909-17.796C98.827 420 93 424 65.864 407.648c-1.499-3.334.737-7.735.737-7.735.208-.498.749-.633 1.18-.288L72 403s10.926 7.449 26.827 14.649z" fill="#f5c918"/><path d="M126 437.995c0 1.107-.892 2.005-1.997 2.005H86.506c-.28 0-.606-.199-.728-.444l-.556-1.112c-.123-.245-.455-.444-.725-.444h-5.994c-.278 0-.603.199-.725.444l-.556 1.112c-.123.245-.439.444-.717.444h-32.51c-2.206 0-3.995-1.795-3.995-4v-4l84.001 2.93c1.104.039 1.999.964 1.999 2.075v.99z" fill="#fff"/><path d="M85 419c-1.104 0-2 .896-2 2s.896 2 2 2 2-.896 2-2-.896-2-2-2zm-8-4c-1.104 0-2 .896-2 2s.896 2 2 2 2-.896 2-2-.896-2-2-2zm-8-4c-1.104 0-2 .896-2 2s.896 2 2 2 2-.896 2-2-.896-2-2-2z" fill="#5c8bd1"/><path d="M68.212 412.384l6.216-7.954c.34-.436.969-.513 1.404-.173.435.341.512.969.172 1.404l-6.216 7.955c-.34.435-.969.512-1.404.172-.435-.34-.512-.969-.172-1.404zm8.001 3.999l5.818-7.424c.341-.435.969-.511 1.404-.17.435.34.511.969.17 1.404l-5.818 7.424c-.341.435-.969.511-1.404.17-.435-.341-.511-.969-.17-1.404zm8 4l5.68-7.239c.341-.435.969-.511 1.404-.17.434.341.51.97.169 1.404l-5.679 7.239c-.341.435-.97.511-1.404.17-.435-.341-.511-.97-.17-1.404z" fill="#fafafa" fill-rule="nonzero"/><path d="M256.31 39.695c2.003 2.019-.99 6.729-1.005 6.744 0 0 1.695 12.231 1.695 19.561 0 7.044-1.695 19.562-1.695 19.562s3.013 4.719 1.005 6.743c-1.975 1.989-6.92-.912-7.02-1.01 0 0-18.845 1.705-29.29 1.705-10.415 0-29.291-1.705-29.291-1.705-.099.098-5.044 2.999-7.018 1.01-2.009-2.024 1.004-6.743 1.004-6.743S183 73.109 183 66c0-7.109 1.695-19.562 1.695-19.562-.016-.014-3.008-4.724-1.004-6.743 1.974-1.989 6.919.911 7.018 1.01 0 0 18.864-1.705 29.291-1.705 10.433 0 29.29 1.705 29.29 1.705.1-.099 5.045-2.999 7.02-1.01z" fill="#fff"/><path d="M671.003 148.408v-18s0-6-5-4 2 10 3 22h2zM675 148h-2v-26s0-6 5-4-2 18-3 30z" fill="#8bc541"/><path d="M663.958 151.988c-.236-2.755 1.805-4.988 4.563-4.988h6.958c2.756 0 4.799 2.234 4.564 4.988l-5.049 59.019c-.095 1.101-1.066 1.993-2.177 1.993h-1.634c-1.108 0-2.082-.883-2.177-1.993l-5.048-59.019z" fill="#ffaf3f"/><path d="M672 200c.552 0 1 .448 1 1s-.448 1-1 1h-3.764l-.171-2H672zm5-14c.045 0 .089.003.132.009l-.17 1.991H672c-.552 0-1-.448-1-1s.448-1 1-1h5zm-4-11c.552 0 1 .448 1 1s-.448 1-1 1h-6.903l-.171-1.997c.025-.002.049-.003.074-.003h7zm-1-11h7.015l-.171 2H672c-.552 0-1-.448-1-1s.448-1 1-1zm0-10c.552 0 1 .448 1 1s-.448 1-1 1h-4c-.552 0-1-.448-1-1s.448-1 1-1h4z" fill="#eea33b"/><path d="M385 214c0-3.311-2.689-6-6-6h-29c-3.311 0-6 2.689-6 6v63c0 3.311 2.689 6 6 6h29c3.311 0 6-2.689 6-6v-63z" fill="#545459"/><path d="M364.5 276c1.38 0 2.5 1.12 2.5 2.5s-1.12 2.5-2.5 2.5-2.5-1.12-2.5-2.5 1.12-2.5 2.5-2.5zm3.5-65c.552 0 1 .448 1 1s-.448 1-1 1h-7c-.552 0-1-.448-1-1s.448-1 1-1h7z" fill="#9c9da7" fill-opacity="0.6"/><path d="M382 216.75c0-.414-.336-.75-.75-.75h-33.5c-.414 0-.75.336-.75.75v56.5c0 .414.336.75.75.75h33.5c.414 0 .75-.336.75-.75v-56.5z" fill="#fafafa"/><path d="M372.5 250c.828 0 1.5.672 1.5 1.5v2c0 .828-.672 1.5-1.5 1.5h-22c-.828 0-1.5-.672-1.5-1.5v-2c0-.828.672-1.5 1.5-1.5h22zm0-18c.828 0 1.5.672 1.5 1.5v5c0 .828-.672 1.5-1.5 1.5h-22c-.828 0-1.5-.672-1.5-1.5v-5c0-.828.672-1.5 1.5-1.5h22zm4.5-12c.552 0 1 .448 1 1s-.448 1-1 1h-14c-.552 0-1-.448-1-1s.448-1 1-1h14z" fill="#dcdde6"/><path d="M378.5 261c.828 0 1.5.672 1.5 1.5v6c0 .828-.672 1.5-1.5 1.5h-22c-.828 0-1.5-.672-1.5-1.5v-6c0-.828.672-1.5 1.5-1.5h22zm.5-4c.552 0 1 .448 1 1v1c0 .552-.448 1-1 1h-17c-.552 0-1-.448-1-1v-1c0-.552.448-1 1-1h17zm-.5-15c.828 0 1.5.672 1.5 1.5v3c0 .828-.672 1.5-1.5 1.5h-22c-.828 0-1.5-.672-1.5-1.5v-3c0-.828.672-1.5 1.5-1.5h22zm-8.5-18c.552 0 1 .448 1 1s-.448 1-1 1h-7c-.552 0-1-.448-1-1s.448-1 1-1h7z" fill="#eeeef2"/><circle cx="354.5" cy="223.5" r="4.5" fill="#ffe3d9"/><circle cx="354.5" cy="223.5" r="2.5" fill="#ff9c7b"/><path d="M353 224s.3 1 1.5 1 1.5-1 1.5-1" fill="#fff"/><path d="M122.209 261.794s16.251 13.635 56.098 10.149c39.848-3.486 52.074-18.316 52.074-18.316.779-.785.694-1.957-.225-2.574 0 0-14.616-12.482-54.463-8.996-39.848 3.486-53.484 19.737-53.484 19.737z" fill="#a7b8c5"/><path d="M203.188 242.227c19.319 2.293 26.968 8.826 26.968 8.826.919.617 1.004 1.789.225 2.574 0 0-6.399 7.761-25.026 13.374-1.58-2.712-4.052-7.584-4.446-12.093-.395-4.509 1.194-9.736 2.279-12.681z" fill="#cad4db"/><path d="M230.372 251.221c.711.645.722 1.688.009 2.406 0 0-.101.123-.316.349-.274.149-.581.297-.921.443-2.322.995-5.642 1.581-10.144 1.581-.552 0-1-.448-1-1s.448-1 1-1c4.248 0 7.303-.539 9.356-1.419 1.137-.487 1.671-.925 1.812-1.136.058-.087.127-.161.204-.224zm-19.526-3.205c1.375-.121 2.588.898 2.708 2.272.121 1.375-.898 2.588-2.272 2.708-1.375.121-2.588-.898-2.708-2.272-.121-1.375.898-2.588 2.272-2.708z" fill="#8d9ba6"/><path d="M106.931 253.862s13.089-3.404 17.666 6.879c1.464 3.289-1.353 1.972-3.661 3.274-4.646 2.622-14.005-10.153-14.005-10.153zm88.099-5.105c-.04.161-.094.44-.146.83-.348 2.605-.102 5.921 1.167 9.729.175.524.741.807 1.265.633.524-.175.807-.741.633-1.265-1.169-3.505-1.392-6.517-1.083-8.833.042-.314.082-.519.104-.608.134-.536-.192-1.079-.727-1.213-.536-.134-1.079.192-1.213.727z" fill="#828f99"/><path d="M110.226 263.021c-1.229-1.116-.888-2.021.765-2.021h115.018c1.652 0 2.003.897.765 2.021L213.578 275h-90.156l-13.196-11.979z" fill="#fae664"/><g><path d="M445 142c0-1.104-.896-2-2-2H334c-1.104 0-2 .896-2 2s.896 2 2 2h109c1.104 0 2-.896 2-2z" fill="#545459"/><path d="M349 126c1.104 0 2 .896 2 2v28c0 1.104-.896 2-2 2h-5c-1.104 0-2-.896-2-2v-28c0-1.104.896-2 2-2h5zm84 32h-5c-1.104 0-2-.896-2-2v-28c0-1.104.896-2 2-2h5c1.104 0 2 .896 2 2v28c0 1.104-.896 2-2 2z" fill="#9c9da7"/><path d="M340.5 131c.828 0 1.5.672 1.5 1.5v19c0 .828-.672 1.5-1.5 1.5h-3c-.828 0-1.5-.672-1.5-1.5v-19c0-.828.672-1.5 1.5-1.5h3zm99 22h-3c-.828 0-1.5-.672-1.5-1.5v-19c0-.828.672-1.5 1.5-1.5h3c.828 0 1.5.672 1.5 1.5v19c0 .828-.672 1.5-1.5 1.5z" fill="#bdbec7"/></g><g><path d="M592 230h40l-4.845 62.014c-.086 1.097-1.053 1.986-2.147 1.986h-26.016c-1.1 0-2.062-.893-2.147-1.986L592 230z" fill="#fff"/><path d="M631.321 245c.832 0 1.454.679 1.39 1.505l-2.422 30.99c-.064.831-.779 1.505-1.61 1.505h-33.358c-.825 0-1.546-.679-1.61-1.505l-2.422-30.99c-.064-.831.554-1.505 1.39-1.505h38.642z" fill="#f3e6d6"/><path d="M592 226h40l-1.683-5.049c-.175-.525-.772-.951-1.317-.951h-34c-.552 0-1.144.432-1.317.951L592 226z" fill="#faf9f5"/><path d="M634 227c0-.552-.448-1-1-1h-42c-.552 0-1 .448-1 1v2c0 .552.448 1 1 1h42c.552 0 1-.448 1-1v-2z" fill="#eeebe6"/></g><g><path d="M647 326c-1.104 0-2 .896-2 2v80c0 1.104.896 2 2 2h2c1.104 0 2-.896 2-2v-80c0-1.104-.896-2-2-2h-2z" fill="#9c9da7"/><path d="M665 388c1.656 0 3 1.344 3 3v6c0 1.656-1.344 3-3 3h-34c-1.656 0-3-1.344-3-3v-6c0-1.656 1.344-3 3-3h34zm0-40h-34c-1.656 0-3-1.344-3-3v-6c0-1.656 1.344-3 3-3h34c1.656 0 3 1.344 3 3v6c0 1.656-1.344 3-3 3z" fill="#bdbec7"/><path d="M659.5 400c.828 0 1.5.672 1.5 1.5v3c0 .828-.672 1.5-1.5 1.5h-23c-.828 0-1.5-.672-1.5-1.5v-3c0-.828.672-1.5 1.5-1.5h23zm0-64h-23c-.828 0-1.5-.672-1.5-1.5v-3c0-.828.672-1.5 1.5-1.5h23c.828 0 1.5.672 1.5 1.5v3c0 .828-.672 1.5-1.5 1.5z" fill="#dddde6"/></g><g><path d="M429 417c1.104 0 2-.896 2-2v-25c0-1.104-.896-2-2-2h-61c-1.104 0-2 .896-2 2v25c0 1.104.896 2 2 2h61z" fill="#996736"/><path d="M418.997 390c.554 0 1.003.438 1.003 1.003v4.994c0 .554-.438 1.003-1.003 1.003h-4.994c-.554 0-1.003-.438-1.003-1.003v-4.994c0-.554.438-1.003 1.003-1.003h4.994zm-9 0c.554 0 1.003.438 1.003 1.003v4.994c0 .554-.438 1.003-1.003 1.003h-4.994c-.554 0-1.003-.438-1.003-1.003v-4.994c0-.554.438-1.003 1.003-1.003h4.994zm-9 0c.554 0 1.003.438 1.003 1.003v4.994c0 .554-.438 1.003-1.003 1.003h-4.994c-.554 0-1.003-.438-1.003-1.003v-4.994c0-.554.438-1.003 1.003-1.003h4.994zm18 9c.554 0 1.003.438 1.003 1.003v4.994c0 .554-.438 1.003-1.003 1.003h-4.994c-.554 0-1.003-.438-1.003-1.003v-4.994c0-.554.438-1.003 1.003-1.003h4.994zm-9 0c.554 0 1.003.438 1.003 1.003v4.994c0 .554-.438 1.003-1.003 1.003h-4.994c-.554 0-1.003-.438-1.003-1.003v-4.994c0-.554.438-1.003 1.003-1.003h4.994zm-9 0c.554 0 1.003.438 1.003 1.003v4.994c0 .554-.438 1.003-1.003 1.003h-4.994c-.554 0-1.003-.438-1.003-1.003v-4.994c0-.554.438-1.003 1.003-1.003h4.994zm18 9c.554 0 1.003.438 1.003 1.003v4.994c0 .554-.438 1.003-1.003 1.003h-4.994c-.554 0-1.003-.438-1.003-1.003v-4.994c0-.554.438-1.003 1.003-1.003h4.994zm9-18c.554 0 1.003.438 1.003 1.003v4.994c0 .554-.438 1.003-1.003 1.003h-4.994c-.554 0-1.003-.438-1.003-1.003v-4.994c0-.554.438-1.003 1.003-1.003h4.994zm0 9c.554 0 1.003.438 1.003 1.003v4.994c0 .554-.438 1.003-1.003 1.003h-4.994c-.554 0-1.003-.438-1.003-1.003v-4.994c0-.554.438-1.003 1.003-1.003h4.994zm0 9c.554 0 1.003.438 1.003 1.003v4.994c0 .554-.438 1.003-1.003 1.003h-4.994c-.554 0-1.003-.438-1.003-1.003v-4.994c0-.554.438-1.003 1.003-1.003h4.994zm-18 0c.554 0 1.003.438 1.003 1.003v4.994c0 .554-.438 1.003-1.003 1.003h-4.994c-.554 0-1.003-.438-1.003-1.003v-4.994c0-.554.438-1.003 1.003-1.003h4.994zm-9 0c.554 0 1.003.438 1.003 1.003v4.994c0 .554-.438 1.003-1.003 1.003h-4.994c-.554 0-1.003-.438-1.003-1.003v-4.994c0-.554.438-1.003 1.003-1.003h4.994zm-9-18c.554 0 1.003.438 1.003 1.003v4.994c0 .554-.438 1.003-1.003 1.003h-4.994c-.554 0-1.003-.438-1.003-1.003v-4.994c0-.554.438-1.003 1.003-1.003h4.994zm0 9c.554 0 1.003.438 1.003 1.003v4.994c0 .554-.438 1.003-1.003 1.003h-4.994c-.554 0-1.003-.438-1.003-1.003v-4.994c0-.554.438-1.003 1.003-1.003h4.994zm0 9c.554 0 1.003.438 1.003 1.003v4.994c0 .554-.438 1.003-1.003 1.003h-4.994c-.554 0-1.003-.438-1.003-1.003v-4.994c0-.554.438-1.003 1.003-1.003h4.994zm-9-18c.554 0 1.003.438 1.003 1.003v4.994c0 .554-.438 1.003-1.003 1.003h-4.994c-.554 0-1.003-.438-1.003-1.003v-4.994c0-.554.438-1.003 1.003-1.003h4.994zm0 9c.554 0 1.003.438 1.003 1.003v4.994c0 .554-.438 1.003-1.003 1.003h-4.994c-.554 0-1.003-.438-1.003-1.003v-4.994c0-.554.438-1.003 1.003-1.003h4.994zm0 9c.554 0 1.003.438 1.003 1.003v4.994c0 .554-.438 1.003-1.003 1.003h-4.994c-.554 0-1.003-.438-1.003-1.003v-4.994c0-.554.438-1.003 1.003-1.003h4.994zm-9-18c.554 0 1.003.438 1.003 1.003v4.994c0 .554-.438 1.003-1.003 1.003h-4.994c-.554 0-1.003-.438-1.003-1.003v-4.994c0-.554.438-1.003 1.003-1.003h4.994zm0 9c.554 0 1.003.438 1.003 1.003v4.994c0 .554-.438 1.003-1.003 1.003h-4.994c-.554 0-1.003-.438-1.003-1.003v-4.994c0-.554.438-1.003 1.003-1.003h4.994zm0 9c.554 0 1.003.438 1.003 1.003v4.994c0 .554-.438 1.003-1.003 1.003h-4.994c-.554 0-1.003-.438-1.003-1.003v-4.994c0-.554.438-1.003 1.003-1.003h4.994z" fill="#ab7844"/></g><g><path d="M464.005 60h-10.01C442.952 60 434 51.048 434 40V23.007c0-1.661 1.337-3.007 2.997-3.007h44.006c1.655 0 2.997 1.342 2.997 3.007v5.93c.066-.033.132-.065.198-.096.771-.36 1.592-.609 2.432-.737.416-.064.834-.095 1.254-.103.116-.001.116-.001.232 0 .42.008.838.039 1.254.103.84.128 1.661.377 2.432.737 1.805.844 3.304 2.29 4.213 4.063.386.754.664 1.562.824 2.393.187.974.211 1.979.074 2.961-.129.915-.4 1.81-.801 2.642-.471.977-1.119 1.866-1.904 2.614-.812.774-1.768 1.396-2.807 1.82-1.077.441-2.238.666-3.401.666-1.163 0-2.324-.225-3.401-.666-.402-.164-.793-.359-1.167-.58C481.298 53.505 473.409 60 464.005 60zM484 37.028c.001.163.012.325.032.487.05.389.158.769.319 1.126.2.441.48.844.822 1.186.353.354.772.641 1.23.842.486.212 1.014.324 1.544.331.534.006 1.067-.092 1.561-.294.448-.183.861-.449 1.215-.778.354-.33.648-.723.864-1.156.173-.349.295-.724.359-1.109.089-.536.069-1.09-.06-1.617-.277-1.135-1.069-2.113-2.113-2.633-.504-.25-1.054-.385-1.615-.41-.071-.002-.141-.003-.211-.003-.564.011-1.12.132-1.632.371-1.074.502-1.894 1.481-2.19 2.629-.081.317-.123.644-.125.972v.056z" fill="#fdfcf0"/><path d="M448 20v15c0 .552.448 1 1 1s1-.448 1-1V20c0-.552-.448-1-1-1s-1 .448-1 1z" fill="#cccbc2" fill-rule="nonzero"/><path d="M453 35c0-.552-.448-1-1-1h-6c-.552 0-1 .448-1 1v8c0 .552.448 1 1 1h6c.552 0 1-.448 1-1v-8z" fill="#baf8d7"/></g><g><path d="M138.006 146c-.105-1.657 1.153-3 2.81-3h29.368c1.657 0 2.915 1.335 2.81 3l-3.042 48c-.105 1.657-1.527 3-3.189 3h-22.526c-1.657 0-3.084-1.335-3.189-3l-3.042-48z" fill="#d9f6ff"/><path d="M172.233 158l-2.281 36c-.105 1.657-1.527 3-3.189 3h-22.526c-1.657 0-3.084-1.335-3.189-3l-2.281-36h33.466z" fill="#bfefff"/></g><g><path d="M92 317c0-1.104-.896-2-2-2H32c-1.104 0-2 .896-2 2s.896 2 2 2h58c1.104 0 2-.896 2-2z" fill="#bdbec7"/><path d="M43 307c1.104 0 2 .896 2 2v16c0 1.104-.896 2-2 2h-2c-1.104 0-2-.896-2-2v-1.5c0 .828-.672 1.5-1.5 1.5h-2c-.828 0-1.5-.672-1.5-1.5v-13c0-.828.672-1.5 1.5-1.5h2c.828 0 1.5.672 1.5 1.5V309c0-1.104.896-2 2-2h2zm40 18c0 1.104-.896 2-2 2h-2c-1.104 0-2-.896-2-2v-16c0-1.104.896-2 2-2h2c1.104 0 2 .896 2 2v1.5c0-.828.672-1.5 1.5-1.5h2c.828 0 1.5.672 1.5 1.5v13c0 .828-.672 1.5-1.5 1.5h-2c-.828 0-1.5-.672-1.5-1.5v1.5z" fill="#dddde6"/></g><g><path d="M131.991 337.771L158 358l26.007-20.228c.61.55.993 1.348.993 2.235v29.986c0 1.661-1.335 3.007-3 3.007h-48c-1.657 0-3-1.346-3-3.007v-29.986c0-.888.382-1.686.991-2.236z" fill="#d3e5eb"/><path d="M184.101 372.142l-20.382-19.455c-.397-.38-1.175-.687-1.714-.687h-8.01c-.549 0-1.323.313-1.714.687L131.9 372.141c.541.531 1.282.859 2.1.859h48c.821 0 1.561-.327 2.101-.858z" fill="#dff2f8"/><path d="M184.009 337.774l-23.648 18.462c-1.304 1.019-3.419 1.018-4.722 0l-23.638-18.474c.529-.474 1.229-.762 1.999-.762h48c.773 0 1.477.293 2.009.774z" fill="#edfbfc"/></g><g><path d="M214.59 156.775c-1.023 2.369-1.59 4.981-1.59 7.725 0 10.77 8.73 19.5 19.5 19.5s19.5-8.73 19.5-19.5c0-2.745-.567-5.357-1.59-7.726l-5.893-14.727c-1.499-5.224-6.311-9.047-12.017-9.047-5.7 0-10.509 3.815-12.012 9.031l-5.898 14.744z" fill="#a5d321"/><path d="M217.376 157.889c-.915 2.119-1.376 4.33-1.376 6.611 0 9.113 7.387 16.5 16.5 16.5s16.5-7.387 16.5-16.5c0-2.281-.461-4.492-1.376-6.612l-5.949-14.868-.042-.146c-1.158-4.037-4.868-6.874-9.133-6.874-4.261 0-7.968 2.831-9.13 6.862l-.041.144-5.953 14.883zm3.112-15.858C221.991 136.815 226.8 133 232.5 133c5.706 0 10.518 3.823 12.017 9.047l5.893 14.727c1.023 2.369 1.59 4.981 1.59 7.726 0 10.77-8.73 19.5-19.5 19.5s-19.5-8.73-19.5-19.5c0-2.744.567-5.356 1.59-7.725l5.898-14.744z" fill="#577010" fill-rule="nonzero"/><circle cx="232.5" cy="164.5" r="9.5" fill="#8c7238"/></g><g><circle cx="427.5" cy="315.5" r="22.5" fill="#f3ae24"/><path d="M426.003 293.049c.495-.032.994-.049 1.497-.049.505 0 1.006.017 1.503.05V314h6.035c.181-3.674 1.011-7.516 2.289-11.349.506-1.518 1.048-2.928 1.591-4.195.191-.446.369-.842.529-1.186.098-.21.17-.359.211-.441.033-.066.071-.129.112-.188.851.556 1.662 1.167 2.428 1.829l-.032.069c-.147.315-.312.683-.49 1.099-.512 1.194-1.025 2.526-1.503 3.961-1.18 3.541-1.949 7.074-2.131 10.401h11.909c.032.496.049.996.049 1.5s-.017 1.004-.049 1.5h-11.909c.182 3.327.951 6.86 2.131 10.401.478 1.435.991 2.767 1.503 3.961.178.416.343.784.49 1.099l.032.069c-.766.662-1.577 1.273-2.428 1.829-.041-.059-.079-.122-.112-.188-.041-.082-.113-.231-.211-.441-.16-.344-.338-.74-.529-1.186-.543-1.267-1.085-2.677-1.591-4.195-1.278-3.834-2.108-7.675-2.289-11.349h-6.035v20.95c-.497.033-.998.05-1.503.05-.503 0-1.002-.017-1.497-.049V317h-6.041c-.181 3.674-1.011 7.515-2.289 11.349-.506 1.518-1.048 2.928-1.591 4.195-.191.446-.369.842-.529 1.186-.098.21-.17.359-.211.441-.033.066-.071.129-.112.188-.851-.556-1.662-1.167-2.428-1.829l.032-.069c.147-.315.312-.683.49-1.099.512-1.194 1.025-2.526 1.503-3.961 1.18-3.541 1.949-7.074 2.131-10.401h-11.909c-.032-.496-.049-.996-.049-1.5s.017-1.004.049-1.5h11.909c-.182-3.327-.951-6.86-2.131-10.401-.478-1.435-.991-2.767-1.503-3.961-.178-.416-.343-.784-.49-1.099l-.032-.069c.766-.662 1.577-1.273 2.428-1.829.041.059.079.122.112.188.041.082.113.231.211.441.16.344.338.74.529 1.186.543 1.267 1.085 2.677 1.591 4.195 1.278 3.834 2.108 7.675 2.289 11.349h6.041v-20.951z" fill="#d99815"/></g><path d="M302 197.934c2.526-4.574 7.579-4.8 10.105-2.513 2.527 2.286 2.527 6.86 0 11.434-1.438 3.125-6.316 6.191-10.105 8.478-3.79-2.287-8.667-5.353-10.105-8.478-2.527-4.574-2.527-9.148 0-11.434 2.526-2.287 7.579-2.061 10.105 2.513z" fill="#ffb3c6"/><path d="M281.404 216.478c.267-3.91 3.63-5.665 6.072-4.912 2.442.754 3.892 3.863 3.624 7.773.013 2.58-2.33 6.21-4.181 8.966-3.301-.354-7.588-.892-9.556-2.56-3.167-2.309-4.617-5.417-3.625-7.773.993-2.355 4.499-3.803 7.666-1.494z" fill="#ff8cc2"/><g><path d="M37.897 198.364c-1.412 10.568-9.882 17.398-18.351 13.552-4.235 1.923-8.47 1.177-11.823-1.371-3.352-2.548-5.823-6.897-6.529-12.181-1.411-10.569 5.647-19.824 18.352-13.056 2.255-1.202 4.332-1.898 6.216-2.172 8.727-1.269 13.296 6.535 12.135 15.228z" fill="#fffcea"/><path d="M36.906 198.231c1.167-8.737-3.516-15.194-11.001-14.105-1.818.264-3.79.946-5.889 2.064-.294.157-.647.157-.941 0-10.838-5.774-18.384.852-16.889 12.041.655 4.905 2.923 9.071 6.142 11.518 3.215 2.443 7.071 2.952 10.804 1.257.263-.119.564-.119.827 0 7.623 3.461 15.586-2.591 16.947-12.775zm-11.288-16.085c8.983-1.306 14.595 6.432 13.27 16.35-1.498 11.216-10.482 18.198-19.342 14.511-4.291 1.785-8.757 1.124-12.428-1.666-3.661-2.782-6.192-7.431-6.915-12.845-1.673-12.523 7.18-20.474 19.342-14.315 2.124-1.079 4.155-1.756 6.073-2.035z" fill="#f34848" fill-rule="nonzero"/><ellipse cx="19.516" cy="198" rx="7.5" ry="6" fill="#f6f1d2"/><path d="M21.016 201v-4.5c0-.828.672-1.5 1.5-1.5s1.5.672 1.5 1.5c0 1.847-3 4.5-3 4.5zm-3 0v-4.5c0-.828-.672-1.5-1.5-1.5s-1.5.672-1.5 1.5c0 1.847 3 4.5 3 4.5z" fill="#997c63"/></g><g><path d="M531.881 105.364c-1.412 10.568-9.882 17.398-18.352 13.552-4.235 1.923-8.469 1.177-11.822-1.371-3.353-2.548-5.823-6.897-6.529-12.181-1.412-10.569 5.647-19.824 18.351-13.056 2.256-1.202 4.333-1.898 6.216-2.172 8.728-1.269 13.297 6.535 12.136 15.228z" fill="#fffcea"/><ellipse cx="513.5" cy="105" rx="7.5" ry="6" fill="#f6f1d2"/><path d="M512 108v-4.5c0-.828-.672-1.5-1.5-1.5s-1.5.672-1.5 1.5c0 1.847 3 4.5 3 4.5z" fill="#997c63"/><path d="M519.601 89.146c8.984-1.306 14.596 6.432 13.271 16.35-1.498 11.216-10.482 18.198-19.343 14.511-4.291 1.785-8.756 1.124-12.427-1.666-3.661-2.782-6.192-7.431-6.915-12.845-1.673-12.523 7.18-20.474 19.342-14.315 2.123-1.079 4.155-1.756 6.072-2.035zm-6.072 4.295l-.47-.251c-10.839-5.774-18.384.852-16.89 12.041.655 4.905 2.923 9.071 6.143 11.518 3.215 2.443 7.071 2.952 10.804 1.257l.413-.188V93.441z" fill="#fad325"/></g><g><path d="M551.817 409.791c-1.447 10.837-10.132 17.84-18.817 13.897-4.342 1.972-8.685 1.206-12.123-1.406-3.438-2.613-5.971-7.073-6.694-12.491-1.448-10.837 5.79-20.327 18.817-13.388 2.312-1.231 4.442-1.946 6.374-2.226 8.949-1.302 13.634 6.7 12.443 15.614z" fill="#f35572"/><path d="M533.577 391.376c.931.218 2.197.342 3.347-.127 2.163-.882 3.415-3.86 3.415-3.86s-2.875-.878-5.037.004c-.988.403-1.722 1.173-2.227 1.892-.157-.512-.337-1.003-.54-1.469-.299-.687-1.098-1.002-1.785-.703-.688.299-1.002 1.099-.703 1.786.309.71.557 1.513.746 2.39.283 1.314.422 2.723.449 4.125.009.493.003.948-.012 1.353-.009.238-.02.403-.026.482-.061.747 2.643.969 2.705.222.035-.435.064-1.169.046-2.108-.025-1.337-.143-2.685-.378-3.987z" fill="#a1de52"/></g><circle cx="221" cy="319" r="12" fill="#cdf324"/><path d="M213.459 309.668c.405.473.846 1.056 1.285 1.745C216.152 313.627 217 316.17 217 319s-.848 5.373-2.256 7.587c-.439.689-.88 1.272-1.285 1.745-.522-.423-1.008-.888-1.453-1.391.359-.422.714-.899 1.05-1.428C214.273 323.602 215 321.42 215 319s-.727-4.602-1.944-6.513c-.336-.529-.691-1.006-1.05-1.428.445-.503.931-.968 1.453-1.391zm15.552.4c.504.453.969.947 1.39 1.477-.224.293-.444.607-.657.942-1.217 1.911-1.944 4.093-1.944 6.513s.727 4.602 1.944 6.513c.213.335.433.649.657.942-.421.53-.886 1.024-1.39 1.477-.31-.39-.633-.839-.955-1.345-1.408-2.214-2.256-4.757-2.256-7.587s.848-5.373 2.256-7.587c.322-.506.645-.955.955-1.345z" fill="#fff"/></svg>