<?xml version="1.0" encoding="UTF-8" standalone="no"?><!DOCTYPE svg PUBLIC "-//W3C//DTD SVG 1.1//EN" "http://www.w3.org/Graphics/SVG/1.1/DTD/svg11.dtd"><svg width="100%" height="100%" viewBox="0 0 36 36" version="1.1" xmlns="http://www.w3.org/2000/svg" xmlns:xlink="http://www.w3.org/1999/xlink" xml:space="preserve" style="fill-rule:evenodd;clip-rule:evenodd;stroke-linejoin:round;stroke-miterlimit:1.41421;"><rect x="7.627" y="10.671" width="21.097" height="16.557" style="fill:#fff;"/><path d="M3.058,27.775c-0.653,-0.378 -1.057,-1.078 -1.058,-1.833l0,-15.884c0,-0.756 0.403,-1.455 1.058,-1.833l13.756,-7.942c0.654,-0.377 1.462,-0.377 2.116,0l13.756,7.942c0.654,0.378 1.059,1.078 1.059,1.833l0,15.884c0,0.756 -0.404,1.455 -1.059,1.833l-13.756,7.942c-0.654,0.377 -1.462,0.377 -2.116,0l-13.756,-7.942ZM11.238,11.651l-2.772,0l0,12.439l2.643,0l-0.018,-1.016c0.166,0.203 0.332,0.388 0.554,0.554c0.869,0.684 1.867,0.721 2.255,0.721c2.218,0 3.271,-1.589 3.604,-2.274c0.221,-0.441 0.495,-1.26 0.57,-2.386l0.633,0l0,4.401l2.643,0l-0.018,-1.016c0.166,0.203 0.333,0.388 0.554,0.554c0.869,0.684 1.867,0.721 2.255,0.721c2.218,0 3.272,-1.589 3.604,-2.274c0.259,-0.517 0.592,-1.552 0.592,-2.994c0,-2.218 -0.776,-3.308 -1.534,-3.955c-0.706,-0.63 -1.624,-0.973 -2.57,-0.961c-1.164,0 -1.848,0.388 -2.236,0.684c-0.203,0.147 -0.222,0.166 -0.517,0.48l0,-3.678l-2.773,0l0,7.253l2.754,0c0.103,-1.473 0.826,-2.614 1.703,-2.614l0.643,0c0.947,0 1.715,1.332 1.715,2.976c0,1.643 -0.768,2.976 -1.715,2.976l-0.643,0c-0.865,0 -1.58,-1.11 -1.698,-2.553l1.643,0l0,-0.001c0.087,0 0.157,-0.129 0.157,-0.289c-0.001,-0.035 -0.004,-0.069 -0.011,-0.103c-0.023,0.109 -0.079,0.186 -0.146,0.186l-7.888,0l0,0.207c-0.118,1.443 -0.833,2.553 -1.698,2.553l-0.644,0c-0.947,0 -1.715,-1.333 -1.715,-2.976c0,-1.644 0.768,-2.976 1.715,-2.976l0.644,0c0.876,0 1.599,1.141 1.702,2.614l2.868,0c-0.04,-2.099 -0.794,-3.149 -1.532,-3.778c-0.706,-0.63 -1.623,-0.973 -2.569,-0.961c-1.164,0 -1.848,0.388 -2.236,0.684c-0.204,0.147 -0.222,0.166 -0.518,0.48l0,-3.678l0,0ZM23.422,21.716c0.027,0.002 0.054,0.004 0.081,0.004c0.737,0 1.334,-1.098 1.334,-2.454c0,-1.355 -0.597,-2.454 -1.334,-2.454c-0.027,0 -0.054,0.002 -0.081,0.004c0.699,0.078 1.253,1.144 1.253,2.45c0,1.305 -0.554,2.372 -1.253,2.45ZM13.135,21.716c0.027,0.002 0.054,0.004 0.081,0.004c0.737,0 1.334,-1.098 1.334,-2.454c0,-1.355 -0.597,-2.454 -1.334,-2.454c-0.027,0 -0.054,0.002 -0.081,0.004c0.699,0.078 1.253,1.144 1.253,2.45c0,1.305 -0.554,2.372 -1.253,2.45Z" style="fill:#000;"/></svg>