<svg viewBox="0 0 36 36" xmlns="http://www.w3.org/2000/svg" fill-rule="evenodd" clip-rule="evenodd" stroke-linejoin="round" stroke-miterlimit="1.414"><path d="M27.097 25.234c.048.005.097.009.146.009 1.335 0 2.417-1.992 2.417-4.447 0-2.456-1.082-4.447-2.417-4.447-.049 0-.098.004-.146.009 1.266.139 2.269 2.073 2.269 4.438 0 2.365-1.003 4.298-2.269 4.438m-18.637 0c.048.005.098.009.146.009 1.335 0 2.417-1.992 2.417-4.447 0-2.456-1.082-4.447-2.417-4.447a1.43 1.43 0 0 0-.146.009c1.266.139 2.27 2.073 2.27 4.438 0 2.365-1.004 4.298-2.27 4.438m24.761-11.939c-1.842-1.607-3.717-1.741-4.655-1.741-2.109 0-3.348.703-4.051 1.239-.369.267-.402.301-.938.87V7h-5.023v13.14h4.99c.186-2.668 1.495-4.735 3.083-4.735h1.166c1.716 0 3.107 2.413 3.107 5.391 0 2.977-1.391 5.391-3.107 5.391h-1.166c-1.566 0-2.861-2.011-3.075-4.625h2.976v-.001h.001c.157 0 .284-.235.284-.524a.865.865 0 0 0-.02-.187c-.041.197-.144.337-.264.337h-.001v.001h-14.29v.374c-.215 2.614-1.51 4.625-3.076 4.625H7.996c-1.716 0-3.107-2.413-3.107-5.391s1.391-5.391 3.107-5.391h1.166c1.588 0 2.897 2.067 3.084 4.735h5.196c-.073-3.803-1.44-5.705-2.775-6.845-1.842-1.607-3.718-1.741-4.655-1.741-2.109 0-3.348.703-4.052 1.239-.368.267-.402.301-.938.87V7H0v22.536h4.788l-.033-1.842c.301.368.603.703 1.004 1.005 1.574 1.239 3.383 1.305 4.086 1.305 4.018 0 5.927-2.879 6.529-4.118.4-.8.896-2.284 1.034-4.324h1.146v7.974h4.789l-.034-1.842c.301.368.603.703 1.005 1.005 1.573 1.239 3.381 1.305 4.085 1.305 4.018 0 5.926-2.879 6.529-4.118.469-.938 1.072-2.813 1.072-5.425 0-4.018-1.407-5.994-2.779-7.166" fill-rule="nonzero"/></svg>
