<svg viewBox="0 0 42 42" xmlns="http://www.w3.org/2000/svg" fill-rule="evenodd" clip-rule="evenodd" stroke-linejoin="round" stroke-miterlimit="1.414"><path d="M8.332 31.999h-.003c-1.322.016-2.644.001-3.966.001a2.813 2.813 0 0 1-.42-.037 3.251 3.251 0 0 1-1.325-.559 3.079 3.079 0 0 1-.741-.735 2.76 2.76 0 0 1-.23-.403 11.96 11.96 0 0 1-.126-.332 25.782 25.782 0 0 1-.972-3.558A27.272 27.272 0 0 1 0 21c0-2.039.246-4.079.697-6.067.157-.69.339-1.374.55-2.049.086-.275.177-.548.274-.818.061-.168.12-.335.204-.492.144-.267.336-.506.558-.711a3.33 3.33 0 0 1 1.144-.692c.2-.071.408-.123.618-.15.098-.012.12-.012.218-.019 1.352-.03 2.704-.017 4.056-.002h.046v.002c.154.007.306.025.457.059a2.884 2.884 0 0 1 1.839 1.331c.095.162.169.333.227.512l1.319 4.462a106.493 106.493 0 0 1 2.061-.31 69.501 69.501 0 0 1 3.886-.43A36.055 36.055 0 0 1 21 15.5c1.361 0 2.723.1 4.076.237 1.56.157 3.115.371 4.663.62l.054.009c.445-1.506.851-3.025 1.337-4.518l.06-.159a2.67 2.67 0 0 1 .266-.479 2.9 2.9 0 0 1 1.722-1.149c.155-.035.312-.053.471-.06V10h.039c1.316-.015 2.633 0 3.949 0 .143.003.284.013.425.037.344.058.677.179.984.345.426.232.811.557 1.086.958.087.127.159.26.224.4.042.108.083.217.123.326.413 1.159.729 2.353.972 3.558.356 1.768.549 3.572.549 5.376 0 2.039-.246 4.079-.697 6.067-.157.69-.339 1.374-.55 2.049-.086.275-.177.548-.274.818-.056.156-.11.313-.188.459-.361.676-1.011 1.183-1.728 1.438a3.077 3.077 0 0 1-.827.167c-1.353.03-2.707.018-4.06.001l-.018.001v-.001a2.728 2.728 0 0 1-.372-.039 2.905 2.905 0 0 1-1.993-1.438 2.468 2.468 0 0 1-.177-.421l-1.323-4.467a106.493 106.493 0 0 1-2.061.31 69.501 69.501 0 0 1-3.886.43c-.947.075-1.896.126-2.846.126-1.361 0-2.722-.1-4.076-.237a79.518 79.518 0 0 1-4.663-.62l-.054-.009c-.447 1.507-.857 3.025-1.341 4.521a2.608 2.608 0 0 1-.268.551 2.887 2.887 0 0 1-2.242 1.292V32l-.024-.001zM5.554 11.973c-.401.008-.802.019-1.203.028a1.189 1.189 0 0 0-.679.303.735.735 0 0 0-.188.224 9.836 9.836 0 0 0-.121.326 24.495 24.495 0 0 0-.919 3.506 25.007 25.007 0 0 0-.44 5.086c.03 1.523.205 3.042.506 4.535.185.919.417 1.83.704 2.723.06.184.122.368.188.551.027.075.048.157.088.226a.915.915 0 0 0 .219.241c.176.142.394.251.62.276.411.027.824.048 1.236.06a20.643 20.643 0 0 1-.318-.942 26.763 26.763 0 0 1-.512-1.885A27.475 27.475 0 0 1 4 21a27.532 27.532 0 0 1 1.521-8.934l.033-.093zm30.893-.03l.046.123c.413 1.159.729 2.353.972 3.558.356 1.768.549 3.572.549 5.376 0 2.095-.259 4.191-.735 6.231a26.763 26.763 0 0 1-.512 1.885 20.643 20.643 0 0 1-.305.905c.395-.005.79-.013 1.185-.022.234-.015.464-.132.644-.277a.887.887 0 0 0 .229-.259c.041-.105.079-.211.117-.317.377-1.087.667-2.205.886-3.334.309-1.584.477-3.198.477-4.812 0-1.437-.134-2.873-.38-4.288a25.87 25.87 0 0 0-.65-2.813 19.832 19.832 0 0 0-.405-1.242c-.014-.038-.031-.095-.053-.138a.607.607 0 0 0-.044-.068 1.207 1.207 0 0 0-.378-.311 1.117 1.117 0 0 0-.416-.138 35.728 35.728 0 0 0-1.227-.059zm-2.755.058l-.002.001a.868.868 0 0 0-.499.244.653.653 0 0 0-.164.235l-.005.016-1.563 5.287-.041.114c-.019.036-.035.073-.055.108a1.013 1.013 0 0 1-.794.492c-.108.007-.135-.001-.242-.013a77.093 77.093 0 0 0-5.452-.758c-1.287-.13-2.581-.227-3.875-.227-1.425 0-2.85.116-4.266.268-1.613.173-3.22.402-4.819.674l-.242.043c-.04.004-.08.011-.12.014a1.01 1.01 0 0 1-.916-.493c-.054-.093-.059-.121-.096-.222-.525-1.777-.843-3.63-1.579-5.33a.858.858 0 0 0-.647-.452 1.529 1.529 0 0 0-.188.025.947.947 0 0 0-.644.501c-.042.108-.081.217-.12.326a24.495 24.495 0 0 0-.919 3.506 25.007 25.007 0 0 0-.44 5.086c.029 1.523.205 3.042.506 4.535.185.919.417 1.83.704 2.723.048.148.098.295.149.442l.071.197c.003.007.032.094.052.132a.96.96 0 0 0 .376.397.965.965 0 0 0 .453.125.894.894 0 0 0 .492-.247.63.63 0 0 0 .164-.234l.002-.007 1.568-5.293.042-.114c.018-.036.034-.073.055-.108a1.008 1.008 0 0 1 .793-.492c.108-.007.135.001.242.013l.242.043c1.599.272 3.206.501 4.819.674 1.416.152 2.841.268 4.266.268 1.425 0 2.85-.116 4.266-.268a78.954 78.954 0 0 0 4.819-.674l.242-.043c.04-.004.08-.011.12-.014a1.007 1.007 0 0 1 .915.493c.055.093.06.121.097.222.526 1.777.842 3.631 1.582 5.331a.702.702 0 0 0 .152.203.87.87 0 0 0 .498.248l.079-.005a1.046 1.046 0 0 0 .321-.09.967.967 0 0 0 .423-.4l.019-.037c.175-.445.318-.906.452-1.365a26.02 26.02 0 0 0 .552-2.289c.309-1.584.477-3.198.477-4.812 0-1.672-.18-3.343-.51-4.981a25.07 25.07 0 0 0-.704-2.723c-.06-.184-.122-.368-.188-.551-.028-.076-.051-.157-.088-.23a.909.909 0 0 0-.368-.384 1.002 1.002 0 0 0-.464-.13z"/></svg>