<svg viewBox="0 0 42 42" xmlns="http://www.w3.org/2000/svg" fill-rule="evenodd" clip-rule="evenodd" stroke-linejoin="round" stroke-miterlimit="1.414"><path d="M24.938 12.002l6.215-.477 6.276-4.35.06-.039c.063-.035.126-.066.194-.089.069-.022.138-.035.209-.045.072-.005.072-.005.143-.005.063.005.079.004.142.015.141.026.275.082.393.163a1.007 1.007 0 0 1 .322 1.27 1.048 1.048 0 0 1-.324.373l-6.499 4.505a1.17 1.17 0 0 1-.173.096 1.068 1.068 0 0 1-.254.072c-2 .22-4.011.321-6.018.465.002.31-.012.621-.031.93a43.075 43.075 0 0 1-.302 2.978 93.83 93.83 0 0 1-.503 3.384 5.22 5.22 0 0 1-.049.224c-.072.265-.172.52-.305.76a3.404 3.404 0 0 1-.441.618c.115.461.227.922.34 1.383.359 1.49.71 2.982 1.035 4.48.226 1.036.443 2.076.618 3.122.162.963.284 1.933.406 2.902.177 1.405.339 2.813.499 4.221l.043.391 1.513.757.073.04c.061.04.077.049.133.097a1 1 0 0 1 .346.807 1.01 1.01 0 0 1-.644.885 1.002 1.002 0 0 1-.649.021c-.07-.022-.086-.031-.153-.062l-2-1c-.065-.035-.082-.042-.142-.086a1.006 1.006 0 0 1-.405-.699c-.092-.838-.187-1.676-.284-2.514a275.695 275.695 0 0 0-.398-3.258 53.568 53.568 0 0 0-.36-2.46 78.188 78.188 0 0 0-.714-3.484 221.592 221.592 0 0 0-1.053-4.474 3.362 3.362 0 0 1-.625.08c-.381.005-.763.005-1.144 0a3.448 3.448 0 0 1-.625-.079c-.065.261-.128.522-.192.784a203.244 203.244 0 0 0-1.025 4.433 64.793 64.793 0 0 0-.6 3.028 50.365 50.365 0 0 0-.228 1.551c-.087.645-.169 1.29-.248 1.936-.183 1.484-.353 2.97-.516 4.457l-.012.082c-.018.072-.02.091-.046.16a.998.998 0 0 1-.489.543l-2 1c-.067.031-.083.04-.153.062a1.002 1.002 0 0 1-1.255-1.233 1 1 0 0 1 .514-.617l1.513-.757c.073-.662.149-1.323.225-1.985.077-.652.154-1.304.234-1.957.094-.754.188-1.508.293-2.261.074-.54.154-1.079.248-1.615.21-1.198.467-2.387.732-3.573.345-1.548.713-3.09 1.09-4.63l.117-.472a3.286 3.286 0 0 1-.789-1.582c-.067-.398-.129-.797-.191-1.195a89.763 89.763 0 0 1-.403-2.919 36.613 36.613 0 0 1-.224-2.43 14.292 14.292 0 0 1-.022-.775l-5.952-.457a1.089 1.089 0 0 1-.196-.035 1.126 1.126 0 0 1-.242-.104c-2.233-1.441-4.369-3.027-6.554-4.541-.05-.038-.064-.046-.111-.089a1.007 1.007 0 0 1 .17-1.592 1.06 1.06 0 0 1 .475-.14c.072 0 .071 0 .142.005.096.014.187.033.276.07.067.028.127.064.188.103l6.275 4.35 6.222.477c.256-.202.563-.348.861-.464a7.595 7.595 0 0 1 .819-.257 9.905 9.905 0 0 1 1.909-.273c.17-.006.34-.008.511-.007a9.77 9.77 0 0 1 1.804.2c.335.071.666.161.987.28.341.126.691.288.978.521zm-4.064 1a7.797 7.797 0 0 0-1.639.219 3.674 3.674 0 0 0-.833.296l-.004.002c-.018.154-.02.312-.021.467 0 .214.008.428.019.641.027.535.077 1.068.133 1.601.155 1.455.368 2.904.599 4.349.021.127.038.26.067.387.141.571.696 1.014 1.282 1.036.358.004.715.012 1.072-.001.59-.037 1.138-.501 1.265-1.079.023-.121.041-.245.061-.364l.126-.801c.18-1.175.346-2.353.471-3.535.051-.483.096-.967.125-1.452a9.42 9.42 0 0 0 .013-1.164l-.006-.071-.003-.026a2.097 2.097 0 0 0-.15-.075 4.546 4.546 0 0 0-.893-.275 7.676 7.676 0 0 0-1.418-.156c-.133-.001-.132-.001-.266.001zM21.103.001a4.025 4.025 0 0 1 1.364.277 4.037 4.037 0 0 1 2.29 2.347c.15.41.225.837.242 1.272.009.735.009 1.471 0 2.206a4.002 4.002 0 0 1-6.236 3.213 4.003 4.003 0 0 1-1.762-3.213 90.123 90.123 0 0 1 0-2.206c.017-.435.092-.862.242-1.272a4.037 4.037 0 0 1 2.29-2.347 4.025 4.025 0 0 1 1.364-.277h.206zm-.155 2a2.075 2.075 0 0 0-.68.137 2.022 2.022 0 0 0-1.147 1.175 2.058 2.058 0 0 0-.12.635 81.981 81.981 0 0 0 0 2.104c.01.283.073.558.196.814a2.021 2.021 0 0 0 1.071.996 2.012 2.012 0 0 0 1.279.062 2.02 2.02 0 0 0 1.277-1.102c.103-.228.158-.47.173-.718.027-.699.003-1.399.003-2.098a2.071 2.071 0 0 0-.121-.693 2.022 2.022 0 0 0-1.147-1.175 2.045 2.045 0 0 0-.784-.137z"/></svg>