<svg viewBox="0 0 16 16" xmlns="http://www.w3.org/2000/svg" fill-rule="evenodd" clip-rule="evenodd" stroke-linejoin="round" stroke-miterlimit="1.414"><path d="M12.075.003s.244.041.359.096c.249.12.44.342.522.606.029.097.04.194.044.295v14c-.002.066-.001.083-.011.149a1.021 1.021 0 0 1-.123.351 1.01 1.01 0 0 1-1.299.402 1.078 1.078 0 0 1-.348-.277L8 11.601l-3.219 4.024-.049.056a1.055 1.055 0 0 1-.368.25 1.009 1.009 0 0 1-1.353-.782c-.01-.066-.009-.083-.011-.149V1c.004-.101.015-.198.044-.295.089-.288.31-.526.591-.636C3.753.023 4 0 4 0l8.075.003zM5 2v10.149l2.219-2.774a1.004 1.004 0 0 1 1.562 0L11 12.149V2H5z"/></svg>