<svg viewBox="0 0 14 14" xmlns="http://www.w3.org/2000/svg" fill-rule="evenodd" clip-rule="evenodd" stroke-linejoin="round" stroke-miterlimit="1.41421"><path d="M7.384 1.622c.108.572.147 1.14.14 1.657 4.469-2.038 6.922 1.347 6.409 5.192-.534 3.992-3.733 6.572-6.933 5.12C3.8 15.043.601 12.463.067 8.471c-.083-.626-.088-1.239-.019-1.819.094.01.189.015.285.015C1.806 6.667 3 5.473 3 4c0-.41-.092-.798-.257-1.144.995-.329 2.241-.251 3.704.41.008-.601-.056-1.29-.236-1.941-.056-.204-.123-.396-.199-.574-.117-.273.009-.59.282-.707.274-.117.59.009.707.282.067.155.127.316.18.483.185-.255.448-.522.797-.664C8.774-.18 9.833.143 9.833.143s-.461 1.098-1.258 1.422c-.406.166-.852.131-1.191.057z" fill-rule="nonzero" fill="#ff5f68"/></svg>