<svg viewBox="0 0 14 14" xmlns="http://www.w3.org/2000/svg" fill-rule="evenodd" clip-rule="evenodd" stroke-linejoin="round" stroke-miterlimit="1.41421"><path fill="#009543" d="M1.939 8.934C.806 8.511 0 7.42 0 6.14c0-1.647 1.335-2.982 2.981-2.982 1.647 0 2.982 1.335 2.982 2.982 0 .102-.005.204-.015.304.494-.031 1.29.155 1.875.866.742.903.663 1.498.547 1.975.057-.126.825-1.236 2.203-2.664.692-.717 2.082-2.796 1.942-3.757-.741.234-1.459-.23-1.521-.366-.063-.137-.074-.818-.018-.934.043-.087.753-.564.94-.564.152 0 1.529.494 1.807.947C14 2.4 14 3.212 14 3.677c0 2.379-1.102 5.332-1.986 6.907-.883 1.574-2.495 2.935-2.81 3.204-.21.145-.448.032-.519 0-6.016-1.732-6.425-4.734-6.746-4.854z"/></svg>