<svg viewBox="0 0 14 14" xmlns="http://www.w3.org/2000/svg" fill-rule="evenodd" clip-rule="evenodd" stroke-linejoin="round" stroke-miterlimit="1.41421"><path fill="#ffbe20" d="M1 1.007C1 .451 1.456 0 2.002 0h9.996C12.551 0 13 .45 13 1.007v11.986c0 .556-.456 1.007-1.002 1.007H2.002C1.449 14 1 13.55 1 12.993V1.007zM3 2.5c0 .268.224.5.5.5h7c.269 0 .5-.224.5-.5 0-.268-.224-.5-.5-.5h-7c-.269 0-.5.224-.5.5zm0 3c0 .268.224.5.5.5h7c.269 0 .5-.224.5-.5 0-.268-.224-.5-.5-.5h-7c-.269 0-.5.224-.5.5zm0 3c0 .268.224.5.5.5h7c.269 0 .5-.224.5-.5 0-.268-.224-.5-.5-.5h-7c-.269 0-.5.224-.5.5z"/></svg>