<?xml version="1.0" encoding="UTF-8" standalone="no"?>
<svg width="24px" height="24px" viewBox="0 0 24 24" version="1.1" xmlns="http://www.w3.org/2000/svg" xmlns:xlink="http://www.w3.org/1999/xlink">
    <!-- Generator: Sketch 39.1 (31720) - http://www.bohemiancoding.com/sketch -->
    <title>Group</title>
    <desc>Created with Sketch.</desc>
    <defs></defs>
    <g id="Page-1" stroke="none" stroke-width="1" fill="none" fill-rule="evenodd">
        <g id="Group" transform="translate(-1.000000, -1.000000)">
            <path d="M20.999,5.499 C20.941,5.499 20.882,5.489 20.824,5.467 C20.592,5.381 20.458,5.136 20.51,4.894 C20.748,3.781 20.818,2.361 20.544,2.022 C20.268,2.022 20.022,1.786 20.022,1.51 C20.022,1.234 20.223,0.998 20.5,0.998 C20.83,0.998 21.114,1.135 21.323,1.393 C21.642,1.788 21.731,2.467 21.723,3.142 C23.214,1.605 24.577,1.997 24.649,2.021 C24.913,2.103 25.06,2.383 24.978,2.647 C24.896,2.911 24.619,3.058 24.352,2.976 C24.302,2.963 22.882,2.619 21.438,5.24 C21.347,5.404 21.177,5.499 20.999,5.499 L20.999,5.499 Z" id="Shape" fill="#7ED321"></path>
            <path d="M20.999,5.499 C20.964,5.499 20.929,5.496 20.894,5.488 C20.624,5.43 20.452,5.165 20.51,4.895 C20.748,3.782 20.818,2.362 20.544,2.023 C20.268,2.023 20.022,1.787 20.022,1.511 C20.022,1.235 20.223,1 20.5,1 C20.83,1 21.114,1.137 21.323,1.395 C22.046,2.29 21.588,4.643 21.489,5.105 C21.437,5.338 21.23,5.499 20.999,5.499 L20.999,5.499 Z" id="Shape" fill="#7ED321"></path>
            <path d="M24.499,5.999 C24.223,5.999 23.999,5.775 23.999,5.499 C23.999,5.476 23.999,5.473 23.976,5.454 C23.637,5.18 22.218,5.25 21.104,5.488 C20.831,5.548 20.568,5.373 20.51,5.104 C20.452,4.834 20.624,4.568 20.894,4.51 C21.356,4.411 23.709,3.952 24.604,4.676 C24.862,4.885 24.999,5.169 24.999,5.499 C24.999,5.775 24.775,5.999 24.499,5.999 L24.499,5.999 Z" id="Shape" fill="#7ED321"></path>
            <path d="M21.875,5.169 L20.83,4.123 C20.105,3.398 19.142,2.999 18.117,2.999 C16.935,2.999 15.837,3.531 15.104,4.458 L13.796,6.115 C14.845,6.406 15.388,7.18 15.415,7.221 C15.568,7.451 15.506,7.761 15.276,7.914 C15.191,7.971 15.094,7.998 14.999,7.998 C14.837,7.998 14.679,7.92 14.582,7.775 C14.563,7.747 14.062,7.051 13.091,7.006 L9.853,11.108 C10.558,11.283 11.224,11.675 11.467,12.322 C11.564,12.581 11.433,12.869 11.175,12.966 C11.117,12.989 11.057,12.999 10.999,12.999 C10.797,12.999 10.606,12.875 10.531,12.675 C10.401,12.328 9.793,12.051 9.14,12.014 L5.902,16.115 C6.704,16.304 7.491,16.708 7.883,17.18 C8.06,17.392 8.031,17.707 7.819,17.884 C7.726,17.962 7.612,18 7.5,18 C7.356,18 7.214,17.939 7.115,17.82 C6.824,17.471 5.96,17.074 5.194,17.013 L1.425,21.788 C1.151,22.136 0.999,22.572 0.999,23.021 C0.999,24.113 1.887,25.001 2.979,25.001 L2.985,25.001 C3.428,25.001 3.863,24.85 4.212,24.575 L14.095,16.773 C14.082,16.753 14.059,16.744 14.048,16.721 C13.808,16.222 13.604,16.042 13.526,16.004 C13.301,16.021 13.08,15.868 13.016,15.636 C12.943,15.37 13.1,15.095 13.367,15.022 C13.562,14.97 14.229,14.915 14.876,16.156 L21.539,10.896 C22.466,10.163 22.998,9.065 22.998,7.883 C22.999,6.856 22.599,5.894 21.875,5.169 L21.875,5.169 Z M16.499,11.999 C16.223,11.999 15.999,11.775 15.999,11.499 C15.999,10.929 14.84,9.999 14.499,9.999 C14.223,9.999 13.999,9.775 13.999,9.499 C13.999,9.223 14.223,8.999 14.499,8.999 C15.347,8.999 16.999,10.349 16.999,11.499 C16.999,11.775 16.775,11.999 16.499,11.999 L16.499,11.999 Z" id="Shape" fill="#ED9222"></path>
        </g>
    </g>
</svg>