
<svg width="36px" height="35px" viewBox="0 0 36 35" version="1.1" xmlns="http://www.w3.org/2000/svg" xmlns:xlink="http://www.w3.org/1999/xlink">
    <!-- Generator: Sketch 39.1 (31720) - http://www.bohemiancoding.com/sketch -->
    <desc>Created with Sketch.</desc>
    <defs></defs>
    <g id="noun_573706_cc" stroke="none" stroke-width="1" fill-rule="evenodd">
        <g id="Group">
            <ellipse id="Oval" cx="14.3265306" cy="31.71875" rx="2.93877551" ry="2.91666667"></ellipse>
            <ellipse id="Oval" cx="25.4204082" cy="31.71875" rx="2.93877551" ry="2.91666667"></ellipse>
            <path d="M30.3428571,21.3645833 C30.7102041,21.3645833 31.0040816,21.1458333 31.077551,20.8541667 L35.2653061,6.125 C35.4122449,5.76041667 35.1918367,5.32291667 34.7510204,5.25 L34.5306122,5.25 L8.08163265,5.25 C8.08163265,5.17708333 8.08163265,5.10416667 8.00816327,5.10416667 L6.6122449,1.3125 C6.46530612,0.802083333 6.0244898,0.510416667 5.58367347,0.364583333 L5.58367347,0.364583333 L1.39591837,0.364583333 C0.587755102,0.4375 0,1.09375 0,1.82291667 C0,2.625 0.587755102,3.20833333 1.39591837,3.28125 L4.33469388,3.28125 L5.06938776,5.10416667 L9.47755102,20.78125 C9.47755102,20.9270833 9.55102041,21 9.6244898,21.0729167 L7.86122449,25.3020833 C7.56734694,25.9583333 7.93469388,26.7604167 8.59591837,27.0520833 L8.59591837,27.0520833 L8.66938776,27.0520833 C8.81632653,27.125 9.03673469,27.1979167 9.25714286,27.1979167 L29.8285714,27.1979167 C30.6367347,27.1979167 31.2979592,26.5416667 31.2979592,25.7395833 C31.2979592,24.9375 30.6367347,24.28125 29.8285714,24.28125 L11.2408163,24.28125 L12.4897959,21.3645833 L30.3428571,21.3645833 L30.3428571,21.3645833 L30.3428571,21.3645833 Z" id="Shape"></path>
        </g>
    </g>
</svg>
