<svg viewBox="0 0 36 36" xmlns="http://www.w3.org/2000/svg" fill-rule="evenodd" clip-rule="evenodd" stroke-linejoin="round" stroke-miterlimit="1.414"><path d="M10.106 8.001c.016-.164.034-.327.055-.49.215-1.69.692-3.402 1.725-4.784a6.395 6.395 0 0 1 1.477-1.436A6.73 6.73 0 0 1 14.952.48 8.247 8.247 0 0 1 16.72.074a11.295 11.295 0 0 1 1.471-.073c.305.008.61.022.914.054a8.443 8.443 0 0 1 1.794.374 6.795 6.795 0 0 1 1.619.781 6.345 6.345 0 0 1 1.515 1.411c.985 1.265 1.487 2.834 1.736 4.4.045.284.083.569.113.855l.012.125h5.191s.646.069.954.179a3.243 3.243 0 0 1 1.885 1.794c.115.279.186.57.22.87a882.71 882.71 0 0 1 1.704 22.159c.013.326-.018.65-.109.964-.087.303-.225.59-.407.847a2.812 2.812 0 0 1-1.232.974c-.327.133-1.023.211-1.023.211H2.923s-.696-.078-1.022-.211a2.82 2.82 0 0 1-1.189-.915 2.832 2.832 0 0 1-.45-.905c-.091-.315-.11-.965-.11-.965l1.704-22.159s.105-.592.222-.872A3.243 3.243 0 0 1 3.963 8.18c.307-.11.952-.179.952-.179h5.191zM9.998 10h-5s-.21.015-.311.046c-.444.136-.788.54-.841 1.001l-.021.233-1.666 21.589-.011.263a.954.954 0 0 0 .041.3.81.81 0 0 0 .485.511c.096.036.3.057.3.057l30.078-.001s.202-.026.296-.064a.807.807 0 0 0 .469-.523.957.957 0 0 0 .034-.306c-.474-7.368-.857-14.75-1.7-22.085a1.215 1.215 0 0 0-.81-.967c-.091-.03-.281-.053-.281-.053h-5.058l.002.16c.007.614-.002 1.228-.004 1.843l-.003.074a1.078 1.078 0 0 1-.133.425 1.009 1.009 0 0 1-.502.429 1.01 1.01 0 0 1-1.045-.201 1.01 1.01 0 0 1-.314-.66c-.007-.183-.003-.183-.002-.4.003-.429.007-.859.005-1.288a48.025 48.025 0 0 0-.005-.382L11.999 10c-.003.128-.004.255-.005.383-.004.538.004 1.075.006 1.613l-.003.075a1.01 1.01 0 0 1-.56.828 1.008 1.008 0 0 1-1.058-.115 1.009 1.009 0 0 1-.243-.281 1.078 1.078 0 0 1-.133-.425c-.008-.186-.003-.185-.004-.396l-.005-.715c-.001-.322 0-.645.004-.967zm13.886-1.999a11.822 11.822 0 0 0-.389-2.019c-.215-.732-.525-1.444-.983-2.057a4.453 4.453 0 0 0-1.184-1.102c-1.075-.68-2.392-.859-3.641-.818-1.146.038-2.319.296-3.259.983a4.39 4.39 0 0 0-.638.572c-.771.84-1.196 1.938-1.443 3.036a14.325 14.325 0 0 0-.231 1.405h11.768z"/>
<!-- <text x="18" y="28" text-anchor="middle" font-weight="600" font-size="16">20</text> -->
</svg>
