<?xml version="1.0" encoding="UTF-8" standalone="no"?>
<svg width="100%" height="100%" viewBox="0 0 36 36" version="1.1" xmlns="http://www.w3.org/2000/svg" xmlns:xlink="http://www.w3.org/1999/xlink">
  <path d="M36,18 C36,8.0588745 27.9411255,-3.55271368e-15 18,-3.55271368e-15 C8.0588745,-3.55271368e-15 1.77635684e-15,8.0588745 8.8817842e-16,18 C8.8817842e-16,27.9411255 8.0588745,36 18,36 C27.9411255,36 36,27.9411255 36,18 L36,18 Z M15.08025,17.99975 L9.60525,12.52475 C8.79825,11.71875 8.79825,10.41075 9.60525,9.60475 C10.41125,8.79775 11.71925,8.79775 12.52525,9.60475 L18.00025,15.07975 L23.47525,9.60475 C24.28125,8.79775 25.58925,8.79775 26.39525,9.60475 C27.20225,10.41075 27.20225,11.71875 26.39525,12.52475 L20.92025,17.99975 L26.39525,23.47475 C27.20225,24.28075 27.20225,25.58875 26.39525,26.39475 C25.58925,27.20175 24.28125,27.20175 23.47525,26.39475 L18.00025,20.91975 L12.52525,26.39475 C11.71925,27.20175 10.41125,27.20175 9.60525,26.39475 C8.79825,25.58875 8.79825,24.28075 9.60525,23.47475 L15.08025,17.99975 L15.08025,17.99975 Z" id="Combined-Shape"></path>
</svg>
