<svg viewBox="0 0 42 42" xmlns="http://www.w3.org/2000/svg" fill-rule="evenodd" clip-rule="evenodd" stroke-linejoin="round" stroke-miterlimit="1.414"><path d="M35 2a2 2 0 0 0-2-2H6a2 2 0 0 0-2 2v35a2 2 0 0 0 2 2h27a2 2 0 0 0 2-2V2z" fill="#68ede9"/><path d="M33.002 38.998A2 2 0 0 0 35 36.996V1.999c0-.522-.196-.994-.519-1.349l2.938 2.938c.359.361.581.86.581 1.41v35a2 2 0 0 1-2 2H10a1.989 1.989 0 0 1-1.419-.592L4.88 38.657c.319.215.704.341 1.118.341h27.004zM26.5 18a1.5 1.5 0 0 1 0 3h-14a1.5 1.5 0 0 1 0-3h14zM8 0h5v10.998c0 .553-.348.724-.777.38L10.5 10l-1.723 1.378c-.429.344-.777.166-.777-.38V0z" fill="#57c7c3"/></svg>