<svg viewBox="0 0 42 42" xmlns="http://www.w3.org/2000/svg" fill-rule="evenodd" clip-rule="evenodd" stroke-linejoin="round" stroke-miterlimit="1.414"><path d="M38 2a2 2 0 0 0-2-2H6a2 2 0 0 0-2 2v38a2 2 0 0 0 2 2h30a2 2 0 0 0 2-2V2z" fill="#b467eb"/><path d="M30.998 33H11.002A.999.999 0 0 1 10 32c0-.552.439-1 1.002-1h19.996A.999.999 0 0 1 32 32c0 .552-.439 1-1.002 1zm0-6H11.002A.999.999 0 0 1 10 26c0-.552.439-1 1.002-1h19.996A.999.999 0 0 1 32 26c0 .552-.439 1-1.002 1zm0-6H11.002A.999.999 0 0 1 10 20c0-.552.439-1 1.002-1h19.996A.999.999 0 0 1 32 20c0 .552-.439 1-1.002 1zm0-6H11.002A.999.999 0 0 1 10 14c0-.552.439-1 1.002-1h19.996A.999.999 0 0 1 32 14c0 .552-.439 1-1.002 1zM27.5 6a1.5 1.5 0 0 1 0 3h-13a1.5 1.5 0 0 1 0-3h13z" fill="#9756c5"/></svg>