<svg viewBox="0 0 42 42" xmlns="http://www.w3.org/2000/svg" fill-rule="evenodd" clip-rule="evenodd" stroke-linejoin="round" stroke-miterlimit="1.414"><path d="M11 22v5.006A2.992 2.992 0 0 1 8 30c-1.656 0-3-1.341-3-2.994v-.176c-.312.11-.649.17-1 .17-1.659 0-3-1.337-3-3v-2a1 1 0 0 1 0-2v-2c0-1.659 1.338-3 3-3 .351 0 .687.06 1 .17v-.176A2.992 2.992 0 0 1 8 12c1.656 0 3 1.341 3 2.994V20h20v-5.006A2.992 2.992 0 0 1 34 12c1.656 0 3 1.341 3 2.994v.176c.312-.11.649-.17 1-.17 1.659 0 3 1.337 3 3v2a1 1 0 0 1 0 2v2c0 1.659-1.338 3-3 3-.351 0-.687-.06-1-.17v.176A2.992 2.992 0 0 1 34 30c-1.656 0-3-1.341-3-2.994V22H11zm23-8c.552 0 1 .447 1 .994v12.012A.992.992 0 0 1 34 28c-.552 0-1-.447-1-.994V14.994A.992.992 0 0 1 34 14zM8 14c.552 0 1 .447 1 .994v12.012A.992.992 0 0 1 8 28c-.552 0-1-.447-1-.994V14.994A.992.992 0 0 1 8 14zm-4 3c.556 0 1 .443 1 1v6c0 .556-.443 1-1 1-.556 0-1-.443-1-1v-6c0-.556.443-1 1-1zm34 0c.556 0 1 .443 1 1v6c0 .556-.443 1-1 1-.556 0-1-.443-1-1v-6c0-.556.443-1 1-1z"/></svg>