<svg xmlns="http://www.w3.org/2000/svg" viewBox="0 0 16 16">
  <path d="M13.227,0 L0.773,0 C0.346083888,-2.61410725e-17 5.2282145e-17,0.346083888 0,0.773 L0,13.227 C0,13.654 0.346,14 0.773,14 L7.478,14 L7.478,8.578 L5.653,8.578 L5.653,6.466 L7.478,6.466 L7.478,4.907 C7.478,3.099 8.582,2.115 10.195,2.115 C10.968,2.115 11.632,2.172 11.826,2.198 L11.826,4.087 L10.707,4.088 C9.83,4.088 9.66,4.505 9.66,5.117 L9.66,6.466 L11.752,6.466 L11.48,8.578 L9.66,8.578 L9.66,14 L13.227,14 C13.6539161,14 14,13.6539161 14,13.227 L14,0.773 C14,0.346083888 13.6539161,2.61410725e-17 13.227,0" transform="translate(1 1)"/>
</svg>
