<?xml version="1.0" encoding="UTF-8" standalone="no"?><!DOCTYPE svg PUBLIC "-//W3C//DTD SVG 1.1//EN" "http://www.w3.org/Graphics/SVG/1.1/DTD/svg11.dtd"><svg width="100%" height="100%" viewBox="0 0 36 36" version="1.1" xmlns="http://www.w3.org/2000/svg" xmlns:xlink="http://www.w3.org/1999/xlink" xml:space="preserve" style="fill-rule:evenodd;clip-rule:evenodd;stroke-linejoin:round;stroke-miterlimit:1.41421;"><g><path d="M26,27l-16,0c-0.106,-0.004 -0.208,-0.016 -0.309,-0.049c-0.276,-0.09 -0.504,-0.3 -0.615,-0.568c-0.051,-0.124 -0.071,-0.25 -0.076,-0.383l0,-16c0.005,-0.133 0.025,-0.259 0.076,-0.383c0.111,-0.268 0.339,-0.478 0.615,-0.568c0.101,-0.033 0.309,-0.049 0.309,-0.049l10.078,0.003c0,0 0.155,0.021 0.231,0.046c0.175,0.057 0.332,0.162 0.451,0.302c0.068,0.079 0.124,0.17 0.164,0.266c0.153,0.37 0.066,0.807 -0.217,1.09c-0.074,0.074 -0.16,0.136 -0.253,0.184c-0.093,0.048 -0.194,0.08 -0.298,0.097c-0.069,0.011 -0.086,0.009 -0.156,0.012l-9,0l0,14l14,0l0,-9l0.003,-0.078c0.008,-0.07 0.008,-0.087 0.025,-0.155c0.024,-0.102 0.065,-0.2 0.119,-0.289c0.055,-0.09 0.124,-0.17 0.204,-0.238c0.079,-0.068 0.17,-0.124 0.266,-0.164c0.37,-0.153 0.807,-0.066 1.09,0.217c0.13,0.13 0.223,0.295 0.265,0.474c0.019,0.077 0.025,0.154 0.028,0.233l0,10c-0.004,0.106 -0.016,0.208 -0.049,0.309c-0.09,0.276 -0.3,0.504 -0.568,0.615c-0.124,0.051 -0.25,0.071 -0.383,0.076Zm-10.586,-5l-1.414,0l0,-1.414l11.293,-11.293c0.39,-0.391 1.024,-0.391 1.414,0c0.391,0.39 0.391,1.024 0,1.414l-11.293,11.293Z"/></g></svg>
