<?xml version="1.0" encoding="UTF-8" standalone="no"?><!DOCTYPE svg PUBLIC "-//W3C//DTD SVG 1.1//EN" "http://www.w3.org/Graphics/SVG/1.1/DTD/svg11.dtd"><svg width="100%" height="100%" viewBox="0 0 36 36" version="1.1" xmlns="http://www.w3.org/2000/svg" xmlns:xlink="http://www.w3.org/1999/xlink" xml:space="preserve" style="fill-rule:evenodd;clip-rule:evenodd;stroke-linejoin:round;stroke-miterlimit:1.41421;"><g><path d="M18.116,9.001c0.42,0.008 0.838,0.039 1.253,0.103c0.841,0.128 1.663,0.378 2.434,0.738c1.838,0.858 3.357,2.342 4.26,4.159c0.378,0.759 0.647,1.572 0.796,2.408c0.168,0.938 0.186,1.904 0.054,2.848c-0.129,0.916 -0.4,1.811 -0.802,2.644c-0.47,0.976 -1.118,1.865 -1.903,2.613c-0.812,0.774 -1.768,1.395 -2.807,1.82c-1.077,0.44 -2.238,0.666 -3.401,0.666c-1.163,0 -2.324,-0.226 -3.401,-0.666c-1.039,-0.425 -1.995,-1.046 -2.807,-1.82c-0.785,-0.748 -1.433,-1.637 -1.903,-2.613c-0.402,-0.833 -0.673,-1.728 -0.802,-2.644c-0.132,-0.944 -0.114,-1.91 0.054,-2.848c0.149,-0.836 0.418,-1.649 0.796,-2.408c0.903,-1.817 2.422,-3.301 4.26,-4.159c0.771,-0.36 1.593,-0.61 2.434,-0.738c0.415,-0.064 0.833,-0.095 1.253,-0.103c0.116,-0.001 0.116,-0.001 0.232,0Zm-5.721,4.808c-0.22,0.294 -0.418,0.605 -0.59,0.931c-0.307,0.581 -0.531,1.206 -0.663,1.849c-0.154,0.756 -0.183,1.538 -0.086,2.303c0.091,0.714 0.293,1.412 0.598,2.064c0.357,0.764 0.854,1.462 1.457,2.052c0.625,0.609 1.362,1.102 2.166,1.442c0.832,0.352 1.73,0.538 2.632,0.549c0.907,0.012 1.813,-0.152 2.656,-0.484c0.58,-0.229 1.128,-0.536 1.626,-0.91l-9.796,-9.796Zm11.21,8.382c0.255,-0.339 0.478,-0.702 0.668,-1.082c0.319,-0.642 0.538,-1.334 0.646,-2.043c0.117,-0.763 0.107,-1.545 -0.028,-2.305c-0.121,-0.677 -0.343,-1.334 -0.657,-1.946c-0.681,-1.328 -1.788,-2.423 -3.125,-3.088c-0.59,-0.293 -1.221,-0.502 -1.87,-0.618c-0.32,-0.057 -0.643,-0.089 -0.968,-0.104c-0.121,-0.004 -0.241,-0.005 -0.362,-0.004c-0.327,0.006 -0.652,0.03 -0.975,0.08c-0.653,0.1 -1.292,0.293 -1.89,0.573c-0.437,0.204 -0.85,0.453 -1.234,0.741l9.795,9.796Z"/></g></svg>
