<?xml version="1.0" encoding="UTF-8" standalone="no"?><!DOCTYPE svg PUBLIC "-//W3C//DTD SVG 1.1//EN" "http://www.w3.org/Graphics/SVG/1.1/DTD/svg11.dtd"><svg width="100%" height="100%" viewBox="0 0 36 36" version="1.1" xmlns="http://www.w3.org/2000/svg" xmlns:xlink="http://www.w3.org/1999/xlink" xml:space="preserve" style="fill-rule:evenodd;clip-rule:evenodd;stroke-linejoin:round;stroke-miterlimit:1.41421;"><path d="M22.642,9.004c0.443,0.024 0.878,0.111 1.293,0.268c0.334,0.126 0.652,0.293 0.945,0.495c0.635,0.437 1.144,1.036 1.493,1.723c0.223,0.439 0.381,0.91 0.482,1.391c0.196,0.931 0.181,1.898 0.033,2.834c-0.148,0.935 -0.43,1.847 -0.803,2.715c-0.14,0.326 -0.296,0.643 -0.457,0.958c-0.176,0.345 -0.364,0.682 -0.571,1.009c-0.37,0.584 -0.784,1.14 -1.223,1.674c-0.54,0.657 -1.118,1.283 -1.724,1.879c-1.059,1.041 -2.204,2 -3.448,2.813l-0.123,0.079c-0.088,0.052 -0.177,0.096 -0.276,0.123c-0.221,0.06 -0.46,0.042 -0.669,-0.051c-0.136,-0.061 -0.26,-0.152 -0.384,-0.234c-0.129,-0.086 -0.257,-0.173 -0.384,-0.262c-1.141,-0.8 -2.199,-1.721 -3.179,-2.711c-0.557,-0.562 -1.089,-1.149 -1.586,-1.764c-0.399,-0.495 -0.778,-1.009 -1.118,-1.546c-0.207,-0.327 -0.395,-0.664 -0.571,-1.009c-0.107,-0.21 -0.214,-0.42 -0.313,-0.634c-0.241,-0.523 -0.449,-1.062 -0.616,-1.613c-0.402,-1.323 -0.581,-2.75 -0.326,-4.119c0.124,-0.667 0.356,-1.318 0.714,-1.896c0.22,-0.355 0.487,-0.681 0.795,-0.964c0.56,-0.516 1.252,-0.889 1.996,-1.058c0.365,-0.083 0.742,-0.117 1.116,-0.099c0.422,0.02 0.839,0.105 1.236,0.25c0.182,0.066 0.36,0.145 0.533,0.234c1.085,0.565 1.9,1.531 2.493,2.583c0.047,-0.084 0.096,-0.166 0.145,-0.249c0.287,-0.467 0.611,-0.911 0.993,-1.306c0.643,-0.666 1.446,-1.184 2.352,-1.402c0.303,-0.073 0.612,-0.109 0.925,-0.115c0.075,0 0.151,0.001 0.227,0.004Zm-0.207,1.996c-0.133,0.003 -0.266,0.016 -0.397,0.042c-0.707,0.142 -1.291,0.624 -1.733,1.173c-0.079,0.098 -0.154,0.198 -0.226,0.301c-0.095,0.135 -0.183,0.275 -0.267,0.417c-0.093,0.157 -0.179,0.318 -0.26,0.482c-0.105,0.211 -0.202,0.428 -0.291,0.647c-0.115,0.282 -0.216,0.57 -0.31,0.861l-0.027,0.073c-0.029,0.064 -0.035,0.081 -0.071,0.14c-0.068,0.112 -0.159,0.21 -0.265,0.287c-0.279,0.203 -0.652,0.247 -0.971,0.115c-0.097,-0.04 -0.187,-0.095 -0.267,-0.163c-0.08,-0.069 -0.148,-0.149 -0.203,-0.239c-0.037,-0.059 -0.042,-0.076 -0.071,-0.14c-0.064,-0.172 -0.118,-0.349 -0.179,-0.522c-0.269,-0.734 -0.6,-1.453 -1.066,-2.084c-0.275,-0.372 -0.6,-0.715 -0.987,-0.972c-0.256,-0.171 -0.54,-0.301 -0.842,-0.368c-0.169,-0.037 -0.342,-0.054 -0.515,-0.049c-0.612,0.016 -1.197,0.302 -1.618,0.741c-0.214,0.224 -0.385,0.487 -0.514,0.768c-0.185,0.404 -0.286,0.842 -0.329,1.282c-0.065,0.664 -0.004,1.337 0.131,1.988c0.143,0.688 0.37,1.357 0.656,1.998c0.106,0.238 0.223,0.47 0.341,0.702c0.148,0.289 0.304,0.572 0.478,0.846c0.273,0.431 0.575,0.845 0.892,1.244c0.383,0.482 0.789,0.944 1.213,1.389c0.987,1.038 2.067,1.994 3.237,2.821l0.026,0.019c0.453,-0.315 0.888,-0.654 1.311,-1.008c0.564,-0.471 1.104,-0.969 1.621,-1.491c0.474,-0.479 0.929,-0.977 1.356,-1.498c0.387,-0.471 0.753,-0.961 1.08,-1.476c0.174,-0.274 0.33,-0.557 0.478,-0.846c0.141,-0.276 0.279,-0.553 0.401,-0.839c0.275,-0.639 0.491,-1.305 0.621,-1.988c0.04,-0.205 0.071,-0.411 0.093,-0.618c0.021,-0.195 0.034,-0.391 0.038,-0.587c0.003,-0.148 0,-0.296 -0.008,-0.444c-0.048,-0.814 -0.284,-1.661 -0.86,-2.262c-0.099,-0.103 -0.207,-0.198 -0.322,-0.283c-0.146,-0.108 -0.305,-0.199 -0.472,-0.272c-0.213,-0.093 -0.438,-0.151 -0.669,-0.176c-0.078,-0.007 -0.155,-0.011 -0.233,-0.011Z" style="fill-rule:nonzero;"/></svg>
