<svg viewBox="0 0 36 36" xmlns="http://www.w3.org/2000/svg" fill-rule="evenodd" clip-rule="evenodd" stroke-linejoin="round" stroke-miterlimit="1.41421"><path d="M13 27h-3c-.106-.004-.208-.016-.309-.049-.276-.09-.504-.3-.615-.568-.051-.124-.071-.25-.076-.383v-3c.003-.079.009-.156.028-.233.03-.128.086-.249.163-.355.041-.056.102-.119.102-.119L21.595 9.991s.142-.131.221-.189c.212-.156.454-.269.709-.331.125-.031.251-.046.379-.055.096-.002.096-.002.192 0 .096.007.19.016.285.034.224.044.44.126.636.241.116.069.221.151.323.238.57.542 1.113 1.11 1.669 1.666.137.143.255.299.348.475.272.516.302 1.141.083 1.682-.063.153-.144.299-.242.432-.053.072-.127.156-.127.156l-2.18 2.181c-.02.022-.042.044-.064.065-.007.007-.014.013-.021.019L13.707 26.707s-.063.061-.119.102c-.106.077-.227.133-.355.163-.077.019-.154.025-.233.028zm7.145-12.731L11 23.414V25h1.586l9.145-9.145-1.586-1.586zm2.997.175l1.435-1.435.008-.009L23 11.415l-.009.008-1.434 1.434 1.585 1.587z"/></svg>