<?xml version="1.0" encoding="UTF-8" standalone="no"?><!DOCTYPE svg PUBLIC "-//W3C//DTD SVG 1.1//EN" "http://www.w3.org/Graphics/SVG/1.1/DTD/svg11.dtd"><svg width="100%" height="100%" viewBox="0 0 36 36" version="1.1" xmlns="http://www.w3.org/2000/svg" xmlns:xlink="http://www.w3.org/1999/xlink" xml:space="preserve" style="fill-rule:evenodd;clip-rule:evenodd;stroke-linejoin:round;stroke-miterlimit:1.41421;"><g><path d="M9.127,14.846l0.001,-0.003c0.051,-0.091 0.117,-0.174 0.194,-0.245c0.051,-0.047 0.067,-0.056 0.123,-0.097l8,-5.333c0.091,-0.055 0.182,-0.102 0.284,-0.131c0.077,-0.021 0.153,-0.03 0.232,-0.036c0.078,0 0.078,0 0.156,0.006c0.079,0.012 0.154,0.027 0.229,0.055c0.074,0.027 0.141,0.065 0.209,0.106l8,5.333l0.009,0.007c0.012,0.008 0.023,0.016 0.035,0.024c0.026,0.019 0.044,0.034 0.079,0.066c0.077,0.071 0.143,0.154 0.194,0.245c0.021,0.038 0.04,0.078 0.056,0.118l0.006,0.014l0.004,0.011l0.007,0.019c0.002,0.007 0.004,0.014 0.007,0.021l0.006,0.021c0.009,0.029 0.016,0.059 0.023,0.09c0.012,0.064 0.019,0.13 0.019,0.195l0,0.001l0,10.667c-0.004,0.106 -0.016,0.208 -0.049,0.309c-0.09,0.276 -0.3,0.504 -0.568,0.615c-0.124,0.051 -0.25,0.071 -0.383,0.076l-16,0c-0.106,-0.004 -0.208,-0.016 -0.309,-0.049c-0.276,-0.09 -0.504,-0.3 -0.615,-0.568c-0.051,-0.124 -0.071,-0.25 -0.076,-0.383l0,-10.667l0.001,-0.012c0,-0.061 0.006,-0.123 0.018,-0.184c0.016,-0.079 0.041,-0.155 0.075,-0.228l0.001,-0.001l0.003,-0.006l0.003,-0.006l0,-0.001c0.002,-0.005 0.005,-0.009 0.007,-0.014l0.001,-0.002l0,-0.001l0.005,-0.008l0.003,-0.006l0.001,-0.002l0.001,-0.001l0.007,-0.014l0.001,-0.001l0,0Zm7.227,6.214l-3.94,3.94l11.172,0l-3.94,-3.94l-1.068,0.756c-0.065,0.043 -0.13,0.081 -0.202,0.111c-0.215,0.087 -0.458,0.096 -0.679,0.026c-0.1,-0.032 -0.188,-0.08 -0.275,-0.137l-1.068,-0.756Zm4.947,-1.173l3.699,3.699l0,-6.319l-3.699,2.62Zm-10.301,3.699l3.699,-3.699l-3.699,-2.62l0,6.319Zm0.765,-8.228l6.235,4.417l6.235,-4.417l-6.235,-4.156l-6.235,4.156Z"/></g></svg>
