<svg width="100%" height="100%" viewBox="0 0 36 36" version="1.1" xmlns="http://www.w3.org/2000/svg" xmlns:xlink="http://www.w3.org/1999/xlink" xml:space="preserve" style="fill-rule:evenodd;clip-rule:evenodd;stroke-linejoin:round;stroke-miterlimit:1.41421;"><path id="forum" d="M9.578,26.421c-1.134,-0.343 -2.218,-0.836 -3.226,-1.467c-0.972,0.286 -4.336,1.27 -4.336,1.27c-0.758,0.223 -1.463,-0.482 -1.24,-1.24c0,0 0.284,-0.974 1.27,-4.336c-1.329,-2.124 -2.046,-4.584 -2.046,-7.148c0,-7.456 6.044,-13.5 13.5,-13.5c6.092,0 11.241,4.035 12.922,9.578c5.543,1.68 9.578,6.83 9.578,12.922c0,2.564 -0.717,5.024 -2.046,7.148c0.986,3.362 1.27,4.336 1.27,4.336c0.223,0.758 -0.482,1.463 -1.24,1.24c0,0 -3.364,-0.984 -4.336,-1.27c-2.124,1.329 -4.584,2.046 -7.148,2.046c-6.092,0 -11.242,-4.035 -12.922,-9.579l0,0ZM22.5,34c-6.351,0 -11.5,-5.149 -11.5,-11.5c0,-6.351 5.149,-11.5 11.5,-11.5c6.351,0 11.5,5.149 11.5,11.5c0,2.325 -0.69,4.544 -1.963,6.428c-0.167,0.247 -0.215,0.555 -0.131,0.841l0.885,3.022l-3.022,-0.885c-0.286,-0.084 -0.594,-0.036 -0.841,0.131c-1.884,1.273 -4.103,1.963 -6.428,1.963l0,0ZM18,24l0,2.502c0,0.551 -0.444,0.998 -1,0.998c-0.552,0 -1,-0.446 -1,-0.998l0,-7.004c0,-0.551 0.444,-0.998 1,-0.998c0.552,0 1,0.446 1,0.998l0,2.502l9,0l0,-2.502c0,-0.552 0.448,-0.998 1,-0.998c0.556,0 1,0.447 1,0.998l0,7.004c0,0.552 -0.448,0.998 -1,0.998c-0.556,0 -1,-0.447 -1,-0.998l0,-2.502l-9,0l0,0ZM13,20.991c0,-0.547 0.444,-0.991 1,-0.991c0.552,0 1,0.451 1,0.991l0,4.018c0,0.547 -0.444,0.991 -1,0.991c-0.552,0 -1,-0.451 -1,-0.991l0,-4.018ZM32,20.991c0,-0.547 -0.444,-0.991 -1,-0.991c-0.552,0 -1,0.451 -1,0.991l0,4.018c0,0.547 0.444,0.991 1,0.991c0.552,0 1,-0.451 1,-0.991l0,-4.018ZM24.127,9.097c-1.728,-4.166 -5.835,-7.097 -10.627,-7.097c-6.351,0 -11.5,5.149 -11.5,11.5c0,2.325 0.69,4.544 1.963,6.428c0.167,0.247 0.215,0.555 0.131,0.841l-0.885,3.022l3.022,-0.885c0.286,-0.084 0.594,-0.036 0.841,0.131c0.639,0.432 1.317,0.797 2.025,1.09c-0.064,-0.533 -0.097,-1.076 -0.097,-1.627c0,-2.775 0.837,-5.355 2.273,-7.5l-2.273,0l0,2.502c0,0.551 -0.444,0.998 -1,0.998c-0.552,0 -1,-0.446 -1,-0.998l0,-7.004c0,-0.551 0.444,-0.998 1,-0.998c0.552,0 1,0.446 1,0.998l0,2.502l3.908,0c2.447,-2.47 5.841,-4 9.592,-4c0.551,0 1.094,0.033 1.627,0.097ZM4,11.991c0,-0.547 0.444,-0.991 1,-0.991c0.552,0 1,0.451 1,0.991l0,4.018c0,0.547 -0.444,0.991 -1,0.991c-0.552,0 -1,-0.451 -1,-0.991l0,-4.018Z"/></svg>
