<svg viewBox="0 0 36 36" xmlns="http://www.w3.org/2000/svg" fill-rule="evenodd" clip-rule="evenodd"><path d="M22.642 9.004c.443.024.878.111 1.293.268.334.126.652.293.945.495.635.437 1.144 1.036 1.493 1.723.223.439.381.91.482 1.391.196.931.181 1.898.033 2.834-.148.935-.43 1.847-.803 2.715-.14.326-.296.643-.457.958-.176.345-.364.682-.571 1.009-.37.584-.784 1.14-1.223 1.674-.54.657-1.118 1.283-1.724 1.879-1.059 1.041-2.204 2-3.448 2.813l-.123.079c-.088.052-.177.096-.276.123-.221.06-.46.042-.669-.051-.136-.061-.26-.152-.384-.234l-.384-.262c-1.141-.8-2.199-1.721-3.179-2.711-.557-.562-1.089-1.149-1.586-1.764-.399-.495-.778-1.009-1.118-1.546-.207-.327-.395-.664-.571-1.009l-.313-.634c-.241-.523-.449-1.062-.616-1.613-.402-1.323-.581-2.75-.326-4.119.124-.667.356-1.318.714-1.896.22-.355.487-.681.795-.964.56-.516 1.252-.889 1.996-1.058.365-.083.742-.117 1.116-.099.422.02.839.105 1.236.25.182.066.36.145.533.234 1.085.565 1.9 1.531 2.493 2.583l.145-.249c.287-.467.611-.911.993-1.306.643-.666 1.446-1.184 2.352-1.402.303-.073.612-.109.925-.115l.227.004zm-.207 1.996c-.133.003-.266.016-.397.042-.707.142-1.291.624-1.733 1.173l-.226.301-.267.417c-.093.157-.179.318-.26.482-.105.211-.202.428-.291.647-.115.282-.216.57-.31.861l-.027.073-.071.14c-.068.112-.159.21-.265.287-.279.203-.652.247-.971.115-.097-.04-.187-.095-.267-.163-.08-.069-.148-.149-.203-.239l-.071-.14-.179-.522c-.269-.734-.6-1.453-1.066-2.084-.275-.372-.6-.715-.987-.972-.256-.171-.54-.301-.842-.368-.169-.037-.342-.054-.515-.049-.612.016-1.197.302-1.618.741-.214.224-.385.487-.514.768-.185.404-.286.842-.329 1.282-.065.664-.004 1.337.131 1.988.143.688.37 1.357.656 1.998.106.238.223.47.341.702.148.289.304.572.478.846.273.431.575.845.892 1.244.383.482.789.944 1.213 1.389.987 1.038 2.067 1.994 3.237 2.821l.026.019c.453-.315.888-.654 1.311-1.008.564-.471 1.104-.969 1.621-1.491.474-.479.929-.977 1.356-1.498.387-.471.753-.961 1.08-1.476.174-.274.33-.557.478-.846.141-.276.279-.553.401-.839.275-.639.491-1.305.621-1.988.04-.205.071-.411.093-.618.021-.195.034-.391.038-.587l-.008-.444c-.048-.814-.284-1.661-.86-2.262-.099-.103-.207-.198-.322-.283-.146-.108-.305-.199-.472-.272-.213-.093-.438-.151-.669-.176l-.233-.011z"/></svg>