<svg viewBox="0 0 36 36" xmlns="http://www.w3.org/2000/svg" fill-rule="evenodd" clip-rule="evenodd" stroke-linejoin="round" stroke-miterlimit="1.414"><path d="M18.078 9.003c.106.013.206.032.305.073.268.111.478.339.568.615.033.101.045.203.049.309v7h7l.078.003a1 1 0 0 1 .078 1.985c-.069.011-.086.009-.156.012h-7v7l-.003.078c-.008.07-.008.087-.025.155-.024.102-.065.2-.119.289a1.01 1.01 0 0 1-1.009.466A1.002 1.002 0 0 1 17 26v-7h-7l-.078-.003a1 1 0 0 1-.078-1.985c.069-.011.086-.009.156-.012h7v-7l.003-.078c.013-.106.032-.206.073-.305a1.01 1.01 0 0 1 .541-.541c.099-.041.199-.06.305-.073.079-.003.078-.003.156 0z" fill-rule="nonzero"/></svg>
