<svg viewBox="0 0 36 36" xmlns="http://www.w3.org/2000/svg" fill-rule="evenodd" clip-rule="evenodd" stroke-linejoin="round" stroke-miterlimit="1.414"><path d="M9.99 9.001L10 9l16.079.003s.26.047.38.109c.336.173.548.531.541.908a1.09 1.09 0 0 1-.086.386l-1.82 4.094 1.82 4.094.029.074c.04.128.063.256.055.391a1.008 1.008 0 0 1-.611.863A1.833 1.833 0 0 1 26 20H11v6a.995.995 0 0 1-.844.988 1.008 1.008 0 0 1-1.144-.832C9.001 26.087 9.003 26.07 9 26V10c.004-.106.016-.208.049-.309l.018-.052.009-.022a1.02 1.02 0 0 1 .541-.541l.02-.008.054-.019.037-.01c.063-.017.127-.028.194-.036l.068-.002zM24.461 11H11v7h13.461l-1.375-3.094-.028-.07c-.02-.065-.027-.081-.04-.147a1.001 1.001 0 0 1 .068-.595L24.461 11z"/></svg>
