<?xml version="1.0" encoding="UTF-8" standalone="no"?><!DOCTYPE svg PUBLIC "-//W3C//DTD SVG 1.1//EN" "http://www.w3.org/Graphics/SVG/1.1/DTD/svg11.dtd"><svg width="100%" height="100%" viewBox="0 0 36 36" version="1.1" xmlns="http://www.w3.org/2000/svg" xmlns:xlink="http://www.w3.org/1999/xlink" xml:space="preserve" style="fill-rule:evenodd;clip-rule:evenodd;stroke-linejoin:round;stroke-miterlimit:1.41421;"><g><path d="M23,27l-5,0c-0.083,-0.003 -0.161,-0.012 -0.243,-0.03l-3.88,-0.97l-3.877,0l-0.078,-0.003c-0.106,-0.013 -0.206,-0.032 -0.305,-0.073c-0.268,-0.111 -0.478,-0.339 -0.568,-0.615c-0.033,-0.101 -0.049,-0.309 -0.049,-0.309l0,-8c0,0 0.016,-0.208 0.049,-0.309c0.09,-0.276 0.3,-0.504 0.568,-0.615c0.124,-0.051 0.25,-0.071 0.383,-0.076l3.586,0l1.562,-1.562l1.924,-4.809c0.043,-0.098 0.093,-0.189 0.162,-0.272c0.136,-0.162 0.324,-0.279 0.53,-0.329c0.079,-0.019 0.236,-0.028 0.236,-0.028l3.078,0.003c0,0 0.206,0.032 0.305,0.073c0.268,0.111 0.478,0.339 0.568,0.615c0.033,0.101 0.045,0.203 0.049,0.309l0,4l3,0l0.078,0.003c0.105,0.012 0.205,0.032 0.302,0.072c0.194,0.08 0.359,0.22 0.469,0.397c0.042,0.068 0.072,0.138 0.1,0.212l1,3c0.025,0.084 0.049,0.252 0.049,0.252l0.002,6.564c0,0 -0.009,0.157 -0.028,0.235c-0.05,0.206 -0.165,0.393 -0.327,0.529c-0.062,0.052 -0.128,0.092 -0.198,0.13l-3,1.5c-0.071,0.033 -0.141,0.061 -0.217,0.079c-0.077,0.018 -0.152,0.024 -0.23,0.027Zm-3,-16l-1.323,0l-1.749,4.371l-0.027,0.062c-0.042,0.082 -0.09,0.154 -0.148,0.225c-0.565,0.605 -1.164,1.177 -1.753,1.758l0,6.803l3.123,0.781l4.641,0l2.236,-1.118c0,-3.039 0,-5.72 0,-5.72c0,0 -0.419,-1.255 -0.721,-2.162l-3.279,0c-0.133,-0.005 -0.259,-0.025 -0.383,-0.076c-0.268,-0.111 -0.478,-0.339 -0.568,-0.615c-0.033,-0.101 -0.045,-0.203 -0.049,-0.309l0,-4Zm-7,7l-2,0l0,6l2,0l0,-6Z"/></g></svg>
