<svg viewBox="0 0 36 36" xmlns="http://www.w3.org/2000/svg" fill-rule="evenodd" clip-rule="evenodd" stroke-linejoin="round" stroke-miterlimit="1.414"><path d="M21.065 20.002s.13.015.194.032c.126.034.246.093.35.173a1.008 1.008 0 0 1 .184 1.402.988.988 0 0 1-.293.257c-.135.078-.435.132-.435.132l-8.647.004s-.32.042-.472.101c-.394.155-.71.479-.855.876-.062.17-.089.347-.091.527V25h8l.065.002a1.006 1.006 0 0 1 .766.442c.236.353.22.829-.038 1.165a.988.988 0 0 1-.293.257c-.135.078-.435.132-.435.132L10 27s-.217-.017-.321-.053a1.006 1.006 0 0 1-.603-.564 1.124 1.124 0 0 1-.074-.318c-.029-.884-.012-1.77-.001-2.655a3.65 3.65 0 0 1 .241-1.196 3.516 3.516 0 0 1 2.053-2.003c.358-.13 1.111-.21 1.111-.21l8.659.001zM25 25l-.001 1.04s-.006.079-.012.118a1.022 1.022 0 0 1-.183.436 1.006 1.006 0 0 1-1.173.335.995.995 0 0 1-.537-.505C23.032 26.29 23 26 23 26v-1l-1.04-.001s-.079-.006-.118-.012a1.022 1.022 0 0 1-.634-.377 1.008 1.008 0 0 1 .051-1.281c.089-.098.197-.179.317-.235C21.71 23.032 22 23 22 23h1l.001-1.04s.006-.079.012-.118a1.001 1.001 0 0 1 1.937-.155c.033.102.05.313.05.313v1l1.04.001s.079.006.118.012a1.002 1.002 0 0 1 .301 1.875c-.142.074-.457.112-.459.112h-1zM16.616 9.001a4.462 4.462 0 0 1 1.932.492 4.542 4.542 0 0 1 1.959 1.959 4.482 4.482 0 0 1 .441 2.733 4.49 4.49 0 0 1-1.344 2.572 4.502 4.502 0 0 1-7.111-5.305 4.542 4.542 0 0 1 1.959-1.959 4.462 4.462 0 0 1 1.932-.492h.232zm-.181 2a2.543 2.543 0 0 0-1.071.272 2.524 2.524 0 0 0-1.3 1.662 2.485 2.485 0 0 0 .669 2.332 2.493 2.493 0 0 0 2.682.56 2.504 2.504 0 0 0 1.312-1.191 2.46 2.46 0 0 0 .234-.692 2.547 2.547 0 0 0 0-.888 2.525 2.525 0 0 0-1.219-1.726 2.529 2.529 0 0 0-1.307-.329z"/></svg>
