<svg viewBox="0 0 42 42" xmlns="http://www.w3.org/2000/svg" fill-rule="evenodd" clip-rule="evenodd" stroke-linejoin="round" stroke-miterlimit="1.414"><path d="M4 36V1a1 1 0 0 1 2 0v35h35a1 1 0 0 1 0 2H6v3a1 1 0 0 1-2 0v-3H1a1 1 0 0 1 0-2h3zM36.084 5.004c.034.004.067.007.101.013a1.007 1.007 0 0 1 .72 1.408c-.014.031-.032.06-.048.089l-6 10a1.13 1.13 0 0 1-.189.23 1.003 1.003 0 0 1-1.115.15l-3.172-1.585-5.524 9.205-.052.079c-.053.065-.064.084-.126.141a1.005 1.005 0 0 1-.875.247l-4.284-.857-4.646 8.362-.053.086c-.056.071-.067.091-.132.153a.998.998 0 0 1-.74.274A1.008 1.008 0 0 1 9 32c0-.136.028-.27.081-.395.014-.031.03-.06.045-.091l5-9a1.19 1.19 0 0 1 .176-.23c.163-.159.378-.258.605-.28.098-.009.192.001.289.015l4.309.862 5.638-9.395.055-.083c.064-.078.129-.15.211-.21a1.006 1.006 0 0 1 1.038-.087l3.172 1.585 5.524-9.205.056-.085c.057-.069.069-.089.137-.149.126-.112.281-.191.446-.228.088-.02.111-.018.201-.024l.101.004z"/></svg>