<svg xmlns="http://www.w3.org/2000/svg" viewBox="0 0 225 225"><g fill="none"><path fill="#E1E7EB" d="M0 0h225v225h-225z"/><path fill="#A6ADB3" d="M157.129 65.501l.506.038c.41.052.813.155 1.198.307 1.328.527 2.369 1.594 2.863 2.934.128.35.217.714.264 1.084l.038.506.002 90.135-.026.504c-.108 1.063-.555 2.062-1.274 2.852-.516.567-1.154 1.009-1.867 1.291-.385.152-.787.255-1.198.307l-.506.038-90.135.002-.504-.026c-1.103-.112-2.137-.589-2.939-1.355-.526-.501-.936-1.111-1.204-1.786-.152-.385-.255-.787-.307-1.198l-.038-.506-.002-90.135.026-.504c.108-1.063.555-2.062 1.274-2.852.516-.567 1.154-1.009 1.867-1.291.385-.152.787-.255 1.198-.307l.506-.038h90.258zm-90.123 1.998s-.703.06-1.037.182c-.827.307-1.48.96-1.787 1.787-.113.307-.181.953-.181.953v90.156s.078.694.207 1.021c.318.796.957 1.421 1.761 1.719.307.113.953.181.953.181h90.156s.646-.068.953-.181c.804-.298 1.443-.923 1.761-1.719.129-.327.207-1.021.207-1.021v-90.156s-.068-.646-.181-.953c-.298-.804-.923-1.443-1.719-1.761-.327-.129-1.021-.207-1.021-.207l-90.072-.001zm39.994 58.319l16.375-13.1.231-.138.259-.072.135-.009.135.009.259.072.231.138 30 24 .187.198c.274.385.241.91-.079 1.258s-.84.425-1.246.184l-.112-.078-29.375-23.5-15.399 12.319 14.679 11.743.104.097c.217.229.313.548.258.858-.055.311-.254.577-.536.719-.304.153-.665.141-.958-.031l-.118-.081-22.03-17.624-29.375 23.5-.118.081-.128.063c-.268.111-.571.099-.83-.032-.44-.228-.65-.741-.497-1.212.046-.136.121-.26.219-.365l.104-.097 30-24 .231-.138.259-.072.135-.009.135.009.259.072.231.138 6.375 5.1zm-22.884-41.318c1.275.014 2.532.301 3.687.841 1.847.868 3.348 2.333 4.26 4.159.379.761.647 1.572.796 2.408.337 1.864.075 3.786-.748 5.492-.969 2.009-2.646 3.588-4.71 4.433-2.18.888-4.622.888-6.802 0-2.063-.847-3.74-2.425-4.71-4.433-.823-1.706-1.085-3.628-.748-5.492.149-.837.417-1.647.796-2.408.912-1.826 2.413-3.291 4.26-4.159 1.155-.54 2.412-.827 3.687-.841h.232zm-.207 2c-.991.011-1.968.233-2.865.653-1.385.651-2.522 1.734-3.239 3.086-.673 1.273-.935 2.724-.749 4.152.091.715.293 1.411.598 2.064.736 1.571 2.026 2.815 3.623 3.494 1.687.711 3.584.734 5.288.065 2.313-.919 3.968-2.99 4.354-5.449.117-.765.107-1.543-.028-2.305-.121-.678-.343-1.333-.657-1.946-.687-1.335-1.782-2.417-3.125-3.088-.884-.439-1.852-.685-2.838-.722l-.362-.004z"/></g></svg>