<svg viewBox="0 0 400 225" xmlns="http://www.w3.org/2000/svg" fill-rule="evenodd" clip-rule="evenodd" stroke-linejoin="round" stroke-miterlimit="1.414"><path fill="#e1e7eb" d="M0 0h400v225H0z"/><path d="M245.129 62.501s.338.017.506.038c.41.052.813.155 1.198.307a5.03 5.03 0 0 1 2.863 2.934c.128.35.217.714.264 1.084.021.168.038.506.038.506l.002 90.135s-.009.336-.026.504a4.985 4.985 0 0 1-1.274 2.852 5.022 5.022 0 0 1-1.867 1.291 4.965 4.965 0 0 1-1.198.307c-.168.021-.506.038-.506.038l-90.135.002s-.336-.009-.504-.026a4.982 4.982 0 0 1-2.939-1.355 5.028 5.028 0 0 1-1.204-1.786 4.965 4.965 0 0 1-.307-1.198c-.021-.168-.038-.506-.038-.506L150 67.493s.009-.336.026-.504a4.985 4.985 0 0 1 1.274-2.852 5.022 5.022 0 0 1 1.867-1.291 4.965 4.965 0 0 1 1.198-.307c.168-.021.506-.038.506-.038h90.258zm-90.123 1.998s-.703.06-1.037.182c-.827.307-1.48.96-1.787 1.787-.113.307-.181.953-.181.953v90.156s.078.694.207 1.021a3.032 3.032 0 0 0 1.761 1.719c.307.113.953.181.953.181h90.156s.646-.068.953-.181a3.032 3.032 0 0 0 1.761-1.719c.129-.327.207-1.021.207-1.021V67.421s-.068-.646-.181-.953a3.032 3.032 0 0 0-1.719-1.761c-.327-.129-1.021-.207-1.021-.207l-90.072-.001zM195 122.818l16.375-13.1c.098-.068.121-.091.231-.138a.979.979 0 0 1 .259-.072c.045-.006.09-.006.135-.009l.135.009c.117.024.148.024.259.072.11.047.133.07.231.138l30 24c.089.082.116.099.187.198a1.001 1.001 0 0 1-1.325 1.442c-.039-.024-.074-.052-.112-.078L212 111.78l-15.399 12.319 14.679 11.743c.035.032.072.062.104.097a.997.997 0 0 1-.278 1.577 1.003 1.003 0 0 1-.958-.031c-.041-.024-.079-.054-.118-.081L188 119.78l-29.375 23.5-.118.081c-.042.021-.084.045-.128.063a.995.995 0 0 1-.83-.032 1.013 1.013 0 0 1-.497-1.212c.046-.136.121-.26.219-.365.032-.035.069-.065.104-.097l30-24c.098-.068.121-.091.231-.138a.979.979 0 0 1 .259-.072c.045-.006.09-.006.135-.009l.135.009c.117.024.148.024.259.072.11.047.133.07.231.138l6.375 5.1zM172.116 81.5a8.937 8.937 0 0 1 3.687.841 9.072 9.072 0 0 1 4.26 4.159c.379.761.647 1.572.796 2.408a8.968 8.968 0 0 1-.748 5.492 9.03 9.03 0 0 1-4.71 4.433 9.017 9.017 0 0 1-6.802 0 9.045 9.045 0 0 1-4.71-4.433 8.968 8.968 0 0 1-.748-5.492 8.908 8.908 0 0 1 .796-2.408 9.072 9.072 0 0 1 4.26-4.159 8.937 8.937 0 0 1 3.687-.841h.232zm-.207 2a6.937 6.937 0 0 0-2.865.653 7.071 7.071 0 0 0-3.239 3.086 6.961 6.961 0 0 0-.749 4.152 6.95 6.95 0 0 0 .598 2.064 7.048 7.048 0 0 0 3.623 3.494 7.014 7.014 0 0 0 5.288.065 7.036 7.036 0 0 0 4.354-5.449 7.076 7.076 0 0 0-.028-2.305 6.943 6.943 0 0 0-.657-1.946 7.068 7.068 0 0 0-3.125-3.088 6.97 6.97 0 0 0-2.838-.722c-.121-.004-.241-.005-.362-.004z" fill="#a6adb3"/></svg>