<?xml version="1.0" standalone="no"?><!DOCTYPE svg PUBLIC "-//W3C//DTD SVG 1.1//EN" "http://www.w3.org/Graphics/SVG/1.1/DTD/svg11.dtd"><svg width="100%" height="100%" viewBox="0 0 26 16" version="1.1" xmlns="http://www.w3.org/2000/svg" xmlns:xlink="http://www.w3.org/1999/xlink" xml:space="preserve" style="fill-rule:evenodd;clip-rule:evenodd;stroke-linejoin:round;stroke-miterlimit:1.41421;"><path id="Page-1" d="M15.554,6.857c0.069,0.4 0.126,0.8 0.126,1.326c0,4.571 -3.063,7.817 -7.68,7.817c-4.424,0 -8,-3.577 -8,-8c0,-4.423 3.576,-8 8,-8c2.16,0 3.966,0.789 5.36,2.091l-2.171,2.092c-0.595,-0.572 -1.635,-1.234 -3.189,-1.234c-2.731,0 -4.96,2.262 -4.96,5.051c0,2.789 2.229,5.051 4.96,5.051c3.166,0 4.354,-2.274 4.537,-3.451l-4.537,0l0,-2.743l7.554,0ZM22.857,4.571l0,2.286l2.286,0l0,2.286l-2.286,0l0,2.286l-2.286,0l0,-2.286l-2.285,0l0,-2.286l2.285,0l0,-2.286l2.286,0Z" /></svg>