<svg viewBox="0 0 42 42" xmlns="http://www.w3.org/2000/svg" fill-rule="evenodd" clip-rule="evenodd" stroke-linejoin="round" stroke-miterlimit="1.414"><path d="M9.842 9.256L8.005 7.419C7.427 6.842 7 5.817 7 5V1a1 1 0 0 1 2 0v4c0 .284.216.801.419 1.005l2.272 2.272.031.031.008.008a1 1 0 0 1 .113 1.279c-.054.15-.125.35-.207.596-.226.68-.454 1.452-.666 2.302C10.364 14.918 10 17.464 10 20c0 2.451.708 4.931 1.894 7.303.418.836.866 1.597 1.313 2.267.06.091.118.175.171.253 2.955-2.43 6.494-3.863 10.622-3.863l.247.001.238-.87 1.05-3.852 1.031-3.783.318-1.163-2.984-.298A1 1 0 0 1 23 15v-.999A3.003 3.003 0 0 1 26 11h6c1.663 0 3 1.341 3 3v2a1 1 0 0 1-1.1.995l-4.998-.5-.406 1.487-1.032 3.785-1.05 3.851-.114.418c5.739.409 8.207 2.449 8.621 6.012.066.569.079 1.013.079 1.952 0 1.387-.113 2.674-.303 3.831a13.504 13.504 0 0 1-.299 1.441C34.066 40.805 32.57 42 30.993 42H11.992c-4.11 0-5.809-3.154-3.415-6.438.171-.329.469-.835.898-1.463a20.69 20.69 0 0 1 2.413-2.918 23.127 23.127 0 0 1-1.782-2.984C8.792 25.569 8 22.799 8 20c0-2.714.386-5.418 1.03-7.993a33.382 33.382 0 0 1 .812-2.751zm.39 27.432l.093-.151a7.03 7.03 0 0 1 .187-.339c.168-.291.373-.618.615-.971a18.702 18.702 0 0 1 2.529-2.979C16.472 29.561 19.904 27.96 24 27.96c6.469 0 8.601 1.448 8.934 4.318.054.468.066.86.066 1.722 0 1.274-.104 2.454-.276 3.509-.06.366-.124.689-.187.965-.037.16-.064.264-.077.311-.148.673-.827 1.215-1.467 1.215H11.992c-2.519 0-3.23-1.343-1.76-3.312zM22.382 35l1.724-3.447a1 1 0 1 1 1.788.894L24.618 35H26a1 1 0 0 1 0 2h-5a1 1 0 0 1 0-2h1.382zm-13.805.562l-.041.08.093-.151-.052.071zM33 14l.003.896L25 14.1v-.099c0-.551.449-1.001 1-1.001h6c.557 0 1 .444 1 1zM11.184 5.166c.398.463.922 1.054 1.546 1.744l.104.116c.533.589 1.103 1.213 1.673 1.832l.551.597.209.226a1.002 1.002 0 0 0 1.414.052 1.002 1.002 0 0 0 .052-1.414l-.207-.223c-.166-.178-.35-.378-.548-.593a282.142 282.142 0 0 1-1.66-1.818l-.104-.115c-.613-.68-1.128-1.26-1.514-1.708l-.442-.514a1 1 0 1 0-1.516 1.304l.442.514z"/></svg>