<svg viewBox="0 0 42 42" xmlns="http://www.w3.org/2000/svg" fill-rule="evenodd" clip-rule="evenodd" stroke-linejoin="round" stroke-miterlimit="1.414"><path d="M38 2a2 2 0 0 0-2-2H6a2 2 0 0 0-2 2v38a2 2 0 0 0 2 2h30a2 2 0 0 0 2-2V2z" fill="#40c9ff"/><path d="M14.037 28.251c.11.008.216.034.314.086a.758.758 0 0 1 .372.862.778.778 0 0 1-.172.31 72.809 72.809 0 0 1-2.042 2.042.757.757 0 0 1-1.018 0 37.917 37.917 0 0 1-1.042-1.042.756.756 0 0 1-.125-.833.755.755 0 0 1 .904-.391.767.767 0 0 1 .302.185l.47.469c.497-.497.984-1.003 1.491-1.49a.794.794 0 0 1 .546-.198zM31 29a1 1 0 0 1 0 2H18a1 1 0 0 1 0-2h13zm-16.963-7.749c.12.008.236.04.34.101.3.174.443.545.338.876a.797.797 0 0 1-.164.281 72.809 72.809 0 0 1-2.042 2.042.757.757 0 0 1-1.018 0 37.917 37.917 0 0 1-1.042-1.042.756.756 0 0 1-.125-.833.755.755 0 0 1 .904-.391.767.767 0 0 1 .302.185l.47.469c.497-.497.984-1.003 1.491-1.49a.794.794 0 0 1 .546-.198zM31 22a1 1 0 0 1 0 2H18a1 1 0 0 1 0-2h13zm-16.963-7.749c.12.008.236.04.34.101.3.174.443.545.338.876a.797.797 0 0 1-.164.281 72.809 72.809 0 0 1-2.042 2.042.757.757 0 0 1-1.018 0 37.917 37.917 0 0 1-1.042-1.042.756.756 0 0 1-.125-.833.755.755 0 0 1 .904-.391.767.767 0 0 1 .302.185l.47.469c.497-.497.984-1.003 1.491-1.49a.794.794 0 0 1 .546-.198zM31 15a1 1 0 0 1 0 2H18a1 1 0 0 1 0-2h13zm-3.5-9a1.5 1.5 0 0 1 0 3h-13a1.5 1.5 0 0 1 0-3h13z" fill="#36abd9"/></svg>