<svg viewBox="0 0 138 120" xmlns="http://www.w3.org/2000/svg" fill-rule="evenodd" clip-rule="evenodd" stroke-linejoin="round" stroke-miterlimit="1.414"><path d="M18 120h-4l.001-108.149s.029-.79.073-1.184c.098-.876.293-1.741.58-2.575a12.046 12.046 0 0 1 2.45-4.146A12.042 12.042 0 0 1 24.52.091c.442-.054 1.331-.09 1.331-.09h86.298s.889.036 1.331.09c.875.109 1.736.315 2.566.612a12.046 12.046 0 0 1 5.142 3.578 12.026 12.026 0 0 1 2.811 7.57l.001.143V120h-4V64H18v56zm0-93v34h102l-.001-34H18zm101.999-3V11.9s-.157-1.698-.435-2.505a8.021 8.021 0 0 0-1.439-2.541 8.016 8.016 0 0 0-3.428-2.385c-.835-.3-2.598-.468-2.598-.468H25.901s-1.699.157-2.506.435a8.035 8.035 0 0 0-3.325 2.195 7.967 7.967 0 0 0-2.02 4.48c-.034.298-.05.895-.05.895V24h101.999z" fill="#6f757b"/><path d="M93.244 12.82c3.972-3.049 9.311-4.196 14.457-2.614 8.441 2.595 13.187 11.555 10.593 19.995-2.595 8.441-11.555 13.187-19.995 10.593-8.441-2.595-13.187-11.555-10.593-19.995a15.914 15.914 0 0 1 4.323-6.946l1.444 2.239 2.657.374.455.499a.232.232 0 0 0 .365-.281l-.58-.897-2.159-.622-.967-2.345z" fill="#ff616b"/><path d="M77.866 73.332A13.942 13.942 0 0 1 69 76.5c-7.727 0-14-6.273-14-14s6.273-14 14-14 14 6.273 14 14c0 3.528-1.308 6.752-3.464 9.215l-1.763-2.268-2.801-.1-2.518-1.922a.145.145 0 0 0-.192.015.144.144 0 0 0-.007.192l2.254 2.74 2.476.303.881 2.657zM28.329 13.191c6.794-3.681 15.298-1.155 18.98 5.638 3.681 6.794 1.155 15.298-5.638 18.98-6.794 3.681-15.298 1.155-18.98-5.638-3.681-6.794-1.155-15.298 5.638-18.98zm-.218 16.807a.5.5 0 0 1 .433.043c2.609 1.596 2.721 1.666 5.329 3.271a.5.5 0 0 1 .234.367l.264 2.202a.506.506 0 0 1-.496.56c-.016 0-.032 0-.048-.002a11.001 11.001 0 0 1-8.048-4.943.498.498 0 0 1 .249-.735l2.083-.763zm14.229-.781a.5.5 0 0 1-.179-.396c.078-3.057.082-3.19.168-6.251a.504.504 0 0 1 .2-.386l1.776-1.33a.505.505 0 0 1 .755.193c.645 1.457.981 3.064.936 4.749a10.924 10.924 0 0 1-1.193 4.692.503.503 0 0 1-.761.151c-.568-.473-1.135-.947-1.702-1.422zm-7.791-11.932a.5.5 0 0 1-.254.353c-2.686 1.461-2.803 1.524-5.497 2.98a.5.5 0 0 1-.434.019l-2.04-.873a.499.499 0 0 1-.211-.749 10.977 10.977 0 0 1 3.646-3.186 10.933 10.933 0 0 1 4.659-1.313l.023-.001a.502.502 0 0 1 .488.585 765.51 765.51 0 0 1-.38 2.185z" fill="#57a7f7"/><path d="M77.184 71.273a12.056 12.056 0 0 1-3.65 2.34A12.01 12.01 0 0 1 69 74.5c-1.551 0-3.098-.3-4.534-.887a12.075 12.075 0 0 1-3.744-2.428 11.956 11.956 0 0 1-3.605-7.008 12.078 12.078 0 0 1 .098-3.947c.213-1.11.584-2.185 1.099-3.191a12.058 12.058 0 0 1 5.617-5.417 11.947 11.947 0 0 1 4.914-1.121h.31c1.699.02 3.374.402 4.914 1.121a12.063 12.063 0 0 1 5.617 5.417 11.947 11.947 0 0 1 1.099 3.191c.249 1.298.282 2.638.098 3.947a11.959 11.959 0 0 1-2.601 5.925l-.509-.655-1.531-.055a9.955 9.955 0 0 0 2.661-5.492 10.09 10.09 0 0 0-.082-3.294 9.925 9.925 0 0 0-.97-2.762 10.098 10.098 0 0 0-4.629-4.41 9.931 9.931 0 0 0-4.092-.933h-.26a9.931 9.931 0 0 0-4.092.933 10.098 10.098 0 0 0-4.629 4.41 9.925 9.925 0 0 0-.97 2.762 10.09 10.09 0 0 0-.082 3.294 9.95 9.95 0 0 0 .889 2.932 10.027 10.027 0 0 0 2.117 2.905c.905.863 1.963 1.55 3.12 2.024 1.196.489 2.485.739 3.777.739 1.292 0 2.581-.25 3.777-.739a9.999 9.999 0 0 0 2.298-1.32l1.91.234.199.598zm-8.147-3.772c.505.022.92.422.96.926.033.531.009 1.065.003 1.597-.014.54-.46.978-1 .983-.533 0-.977-.426-.999-.958-.02-.54-.031-1.083.002-1.622.045-.531.501-.94 1.034-.926zM63.024 61.5c.147.006.291.039.422.105a1.009 1.009 0 0 1 .323 1.535 1.003 1.003 0 0 1-.72.359c-.54.02-1.083.031-1.622-.002a1.013 1.013 0 0 1-.711-.376.992.992 0 0 1-.216-.609 1.016 1.016 0 0 1 .554-.907c.131-.066.275-.099.422-.105a66.566 66.566 0 0 1 1.548 0zm13.5 0c.147.006.291.039.422.105a1.009 1.009 0 0 1 .323 1.535 1.003 1.003 0 0 1-.72.359c-.54.02-1.083.031-1.622-.002a1.015 1.015 0 0 1-.647-.303 1.02 1.02 0 0 1-.033-1.352 1 1 0 0 1 .729-.342 66.566 66.566 0 0 1 1.548 0zm-7.487-7.499c.114.005.225.027.332.069.354.143.598.476.628.857.033.531.009 1.065.003 1.597-.004.147-.04.29-.105.422a1.009 1.009 0 0 1-1.535.323 1.003 1.003 0 0 1-.359-.72c-.02-.54-.031-1.083.002-1.622.03-.381.274-.714.628-.857.129-.05.267-.074.406-.069zM38.135 30.215c.086.005.172.018.255.043.241.074.44.237.57.452.507.899 1.028 1.793 1.475 2.724.057.129.09.266.091.407a.99.99 0 0 1-.257.681 1.01 1.01 0 0 1-1.035.287 1.004 1.004 0 0 1-.571-.452c-.506-.9-1.027-1.793-1.474-2.724a1.012 1.012 0 0 1-.091-.375 1.012 1.012 0 0 1 .537-.93c.126-.066.262-.101.403-.112l.097-.001zM25.53 24.244c1.012.028 2.023.038 3.034.083.184.013.362.075.514.18.378.27.523.767.349 1.198a.956.956 0 0 1-.183.29.957.957 0 0 1-.301.227 1.032 1.032 0 0 1-.433.103 89.68 89.68 0 0 1-3.068-.083 1.05 1.05 0 0 1-.427-.125 1.01 1.01 0 0 1-.512-.883c.004-.517.409-.949.924-.987l.103-.003zm14.467-7.84c.538.019.97.467.97 1.005 0 .161-.039.32-.113.463a33.013 33.013 0 0 1-1.636 2.665 1.028 1.028 0 0 1-.355.31 1.01 1.01 0 0 1-1.416-.585 1.017 1.017 0 0 1-.044-.376c.011-.149.057-.291.129-.421.526-.888 1.04-1.785 1.621-2.637.174-.245.449-.4.749-.422.032-.002.063-.002.095-.002z" fill="#3394f5"/><path d="M40.921 71.77c-5.116 3.268-11.923 1.768-15.191-3.349-3.268-5.116-1.768-11.923 3.349-15.191 5.116-3.268 11.923-1.768 15.191 3.349 3.268 5.116 1.768 11.923-3.349 15.191zm-5.087-2.611a.41.41 0 0 1 .187-.303c2.109-1.352 2.201-1.41 4.316-2.757a.41.41 0 0 1 .354-.042l1.717.593a.413.413 0 0 1 .217.601 9.012 9.012 0 0 1-6.521 4.163c-.015.002-.029.002-.044.002a.416.416 0 0 1-.41-.41l.002-.039.182-1.808zm-7.066-9.291a.41.41 0 0 1 .17.313c.116 2.503.12 2.611.229 5.117a.404.404 0 0 1-.141.327l-1.372 1.191a.408.408 0 0 1-.628-.113 8.968 8.968 0 0 1-1.044-3.826c-.062-1.379.19-2.7.699-3.903a.408.408 0 0 1 .613-.168c.452.324 1.159.835 1.474 1.062zm11.579-1.474a.408.408 0 0 1-.356-.009c-2.225-1.151-2.321-1.202-4.545-2.36a.408.408 0 0 1-.213-.286l-.345-1.784a.413.413 0 0 1 .4-.487h.011a8.976 8.976 0 0 1 3.836 1.009 8.95 8.95 0 0 1 3.03 2.556.407.407 0 0 1-.161.615c-.506.229-1.302.587-1.657.746z" fill="#41d974"/><path d="M32.267 66.826c.139.006.274.037.399.096.366.175.594.565.568.969-.009.13-.043.257-.1.375-.239.473-.465.955-.736 1.411-.129.21-.332.366-.568.438-.357.106-.754 0-1.011-.27a1.009 1.009 0 0 1-.182-1.108c.231-.486.47-.97.745-1.432.189-.305.526-.488.885-.479zm10.254-5.662c.541.01.981.458.981 1 0 .526-.415.966-.94.998-.532.03-1.064.077-1.596.069a1.02 1.02 0 0 1-.925-1.303c.125-.389.476-.665.884-.694.531-.031 1.063-.078 1.596-.07zm-11.543-5.985c.319.008.617.166.803.425.304.443.603.891.866 1.359.078.146.12.309.12.474 0 .549-.452 1-1 1-.331 0-.641-.164-.827-.437-.29-.443-.595-.879-.854-1.34a1.008 1.008 0 0 1 .436-1.378c.122-.06.254-.093.389-.101l.067-.002z" fill="#29cc5f"/><path d="M98.116 50.994c-6.351 2.695-9.318 10.04-6.622 16.39 2.695 6.351 10.04 9.318 16.39 6.622 6.351-2.695 9.318-10.04 6.622-16.39-2.695-6.351-10.04-9.318-16.39-6.622zM59.59 17.276A12.491 12.491 0 0 1 69 13c6.899 0 12.5 5.601 12.5 12.5S75.899 38 69 38s-12.5-5.601-12.5-12.5c0-2.366.659-4.58 1.803-6.467l1.626 1.775 2.287-.012 1.407.983c.097.067.23.051.307-.038a.232.232 0 0 0-.005-.309l-1.278-1.385-2.156-.433-.901-2.338z" fill="#ffe44c"/><path d="M103.114 51.499c1.152.014 2.295.208 3.387.575a11.06 11.06 0 0 1 5.149 3.627 11.066 11.066 0 0 1 2.013 4.092c.268 1.05.378 2.139.326 3.221a11.057 11.057 0 0 1-3.089 7.143 11.028 11.028 0 0 1-7.88 3.345 11.065 11.065 0 0 1-7.384-2.829 10.927 10.927 0 0 1-2.133-2.621 11.068 11.068 0 0 1-1.288-3.381 10.93 10.93 0 0 1-.178-3.084 11.054 11.054 0 0 1 2.879-6.549 10.968 10.968 0 0 1 3.398-2.49 11.062 11.062 0 0 1 3.053-.928c.49-.074.983-.111 1.479-.121h.268zm-.242 2a9.046 9.046 0 0 0-6.485 2.894 9.092 9.092 0 0 0-2.336 5.145 8.937 8.937 0 0 0 .103 2.627 9.07 9.07 0 0 0 1.077 2.88 8.9 8.9 0 0 0 1.743 2.141 9.056 9.056 0 0 0 6.044 2.316 9.022 9.022 0 0 0 6.445-2.736 9.053 9.053 0 0 0 2.528-5.847 8.906 8.906 0 0 0-.266-2.632 9.073 9.073 0 0 0-1.648-3.351 9.06 9.06 0 0 0-6.986-3.437h-.219zm2.298 13.064c.384.011.729.24.89.588.213.486.442.967.621 1.467.047.142.065.291.048.44-.062.499-.488.88-.991.886a1.016 1.016 0 0 1-.665-.251 1.034 1.034 0 0 1-.249-.337c-.213-.487-.442-.968-.621-1.468a1.015 1.015 0 0 1 .955-1.325h.012zm-7.212-2.914c.141.005.279.036.407.096.106.051.203.12.286.203.273.278.359.702.218 1.065a1.017 1.017 0 0 1-.498.537c-.489.228-.982.45-1.489.631-.141.048-.292.064-.44.048a1.024 1.024 0 0 1-.886-.991c.001-.245.09-.481.251-.665.094-.106.209-.189.337-.249.487-.213.968-.442 1.468-.621.09-.029.181-.047.275-.053l.071-.001zm11.506-4.884c.253.007.494.108.676.283.371.365.401.961.068 1.361a1.013 1.013 0 0 1-.331.257c-.488.228-.982.45-1.489.631a1.013 1.013 0 0 1-1.226-.513 1.011 1.011 0 0 1 .136-1.078c.097-.114.217-.203.353-.266.486-.213.967-.442 1.467-.621.09-.029.181-.047.276-.053l.07-.001zm-9.179-3.708c.384.01.73.238.891.587.213.487.442.968.621 1.468a1.011 1.011 0 0 1-.947 1.324 1.004 1.004 0 0 1-.91-.587c-.213-.486-.442-.967-.621-1.467-.16-.477.06-1.005.512-1.227.114-.054.236-.085.361-.096.031-.002.062-.003.093-.002zM60.211 18.888a11.06 11.06 0 0 1 4.142-3.36 10.945 10.945 0 0 1 4.505-1.027h.284a10.948 10.948 0 0 1 7.446 3.038 11.097 11.097 0 0 1 2.208 2.955c.472.921.812 1.908 1.007 2.925.228 1.19.258 2.418.09 3.618a10.977 10.977 0 0 1-3.305 6.424A10.987 10.987 0 0 1 69 36.5a10.987 10.987 0 0 1-7.588-3.039 10.977 10.977 0 0 1-3.305-6.424c-.168-1.2-.138-2.428.09-3.618.217-1.13.611-2.22 1.168-3.227l.564.616 1.396-.007a8.926 8.926 0 0 0-1.142 2.885 9.07 9.07 0 0 0-.095 3.074c.128.914.398 1.807.799 2.639a9.05 9.05 0 0 0 4.714 4.436A8.983 8.983 0 0 0 69 34.5a8.983 8.983 0 0 0 3.399-.665 9.064 9.064 0 0 0 5.514-7.075 9.095 9.095 0 0 0-.096-3.074 8.936 8.936 0 0 0-.851-2.376 9.096 9.096 0 0 0-4.166-3.97 8.936 8.936 0 0 0-3.683-.839h-.234a8.936 8.936 0 0 0-3.683.839 9.105 9.105 0 0 0-3.248 2.567l-1.461-.293-.28-.726zm8.826 11.113c.505.022.92.422.96.926.033.531.009 1.065.003 1.597-.014.54-.46.978-1 .983-.533 0-.977-.426-.999-.958-.02-.54-.031-1.083.002-1.622.03-.381.274-.714.628-.857.129-.05.267-.074.406-.069zM63.524 24.5c.542.009.983.458.983 1 0 .533-.426.977-.958.999-.54.02-1.083.031-1.622-.002a1.016 1.016 0 0 1-.416-.125 1.018 1.018 0 0 1-.449-1.218c.141-.384.505-.644.914-.654a66.566 66.566 0 0 1 1.548 0zm12.5 0c.542.009.983.458.983 1 0 .533-.426.977-.958.999-.54.02-1.083.031-1.622-.002a1.015 1.015 0 0 1-.647-.303 1.02 1.02 0 0 1-.033-1.352 1 1 0 0 1 .729-.342 66.566 66.566 0 0 1 1.548 0zm-6.987-6.999c.114.005.225.027.332.069.354.143.598.476.628.857.033.531.009 1.065.003 1.597-.004.147-.04.29-.105.422a1.01 1.01 0 0 1-.999 1.049h-.003a1.003 1.003 0 0 1-.892-1.446c-.02-.54-.031-1.083.002-1.622.03-.381.274-.714.628-.857.129-.05.267-.074.406-.069z" fill="#fdda2b"/><path d="M58.071 101.967l-.09.183c-.188.376-.39.745-.607 1.106a10.5 10.5 0 0 1 4.001 8.244c0 3.305-1.556 6.517-4.2 8.5h-12.6c-2.644-1.983-4.2-5.195-4.2-8.5 0-3.143 1.412-6.126 3.843-8.118-.674-1.108-1.241-2.294-1.604-3.542-.227-.779-.372-1.588-.373-2.401 0-.569.071-1.139.232-1.685a4.934 4.934 0 0 1 .996-1.839c.136-.159.282-.31.436-.451 1.042-.954 2.415-1.454 3.785-1.71.542-.099 1.09-.168 1.64-.205a20.96 20.96 0 0 1 1.278-.049h.3c.426.005.852.018 1.277.049.55.037 1.098.106 1.641.205.374.07.749.158 1.117.269l.476.864-1.062.807.498.659-.742.553a7.548 7.548 0 0 0-.417-.113c-.959-.23-1.955-.293-2.938-.293-.928 0-1.866.057-2.775.255a7.407 7.407 0 0 0-.815.229c-.66.232-1.332.605-1.668 1.247-.261.5-.292 1.09-.235 1.641.012.123.03.246.051.368.128.745.39 1.466.703 2.152.225.493.479.975.765 1.436a10.455 10.455 0 0 1 4.091-.828c1.379 0 2.696.266 3.903.751.163-.272.318-.548.463-.83l1.572-.164.372 1.042.886.168zM81.956 120H70.56c-2.099-1.69-3.302-4.309-3.302-7 0-2.442.975-4.659 2.556-6.281a14.71 14.71 0 0 1-.133-.208c-.71-1.144-1.307-2.375-1.684-3.671-.227-.779-.372-1.588-.373-2.401 0-.569.071-1.139.232-1.685a4.934 4.934 0 0 1 .996-1.839c.136-.159.282-.31.436-.451 1.042-.954 2.415-1.454 3.785-1.71.542-.099 1.09-.168 1.64-.205a20.96 20.96 0 0 1 1.278-.049h.3c.426.005.852.018 1.277.049.55.037 1.098.106 1.641.205 1.369.256 2.743.756 3.784 1.71.389.356.72.771.983 1.228.203.359.361.743.472 1.139.159.571.221 1.166.208 1.757-.021.899-.211 1.788-.491 2.64a14.22 14.22 0 0 1-.801 1.922c-.244.489-.512.966-.805 1.426A8.99 8.99 0 0 1 85.258 113c0 2.691-1.204 5.31-3.302 7zm-1.86-15.142c.409-.666.768-1.366 1.05-2.096.213-.55.385-1.122.466-1.708.091-.659.072-1.388-.297-1.967-.332-.519-.894-.842-1.457-1.057a6.416 6.416 0 0 0-.779-.237c-.959-.231-1.955-.293-2.938-.293-.928 0-1.866.057-2.775.255a6.046 6.046 0 0 0-.815.229c-.66.232-1.332.605-1.668 1.247-.261.5-.292 1.09-.235 1.641.012.123.03.246.051.368.123.714.368 1.406.664 2.065.253.566.545 1.117.877 1.641a8.95 8.95 0 0 1 4.018-.946c1.372 0 2.673.308 3.838.858z" fill="#5d636f"/><path d="M.886 98.032a1.516 1.516 0 0 1 1.854-1.027l59.599 17.09-1.032 1.784 1.509 1.993-1.65 2.128L1.09 102.774a1.523 1.523 0 0 1-1.032-1.855l.828-2.887zm134.566-.792c.799-.19 1.613.31 1.805 1.108l.701 2.92c.186.8-.314 1.613-1.112 1.808L66.353 120l.389-2.664-2.295-.992.019-2.061 70.986-17.043zM103.08 59.001a3.537 3.537 0 0 1 2.476 1.107c.605.648.942 1.503.942 2.39A3.55 3.55 0 0 1 103.006 66h-.009a3.528 3.528 0 0 1-3.495-3.495V62.5c0-1.337.766-2.562 1.967-3.148.45-.217.941-.336 1.44-.351h.171zm-33.99 0a3.485 3.485 0 0 1 1.504.383A3.502 3.502 0 0 1 69 66a3.55 3.55 0 0 1-3.5-3.501c0-.497.106-.987.31-1.44a3.525 3.525 0 0 1 1.596-1.675c.466-.239.98-.37 1.504-.383h.18zm-34.002 0a3.544 3.544 0 0 1 1.457.358 3.52 3.52 0 0 1 1.085.83 3.537 3.537 0 0 1 .301 4.224A3.493 3.493 0 0 1 34.997 66a3.545 3.545 0 0 1-3.496-3.419 3.526 3.526 0 0 1 .823-2.338 3.517 3.517 0 0 1 2.595-1.242h.169zm67.846.999a2.508 2.508 0 0 0-1.812.849 2.528 2.528 0 0 0-.573 2.144A2.524 2.524 0 0 0 103.001 65h.002a2.521 2.521 0 0 0 2.494-2.627 2.502 2.502 0 0 0-1.29-2.062 2.594 2.594 0 0 0-1.273-.311zm-33.998.001c-.374.011-.74.104-1.074.273a2.52 2.52 0 0 0-1.342 1.908 2.52 2.52 0 0 0 .254 1.456 2.51 2.51 0 0 0 1.31 1.188 2.494 2.494 0 0 0 1.944-.047 2.524 2.524 0 0 0 1.421-1.775 2.52 2.52 0 0 0-.17-1.532 2.515 2.515 0 0 0-2.343-1.471zm-33.995 0c-.37.012-.732.098-1.064.265a2.51 2.51 0 0 0-1.236 1.407 2.516 2.516 0 0 0-.018 1.604c.152.461.434.868.812 1.173a2.528 2.528 0 0 0 2.401.407 2.521 2.521 0 0 0 1.257-.99c.41-.629.517-1.43.284-2.144a2.519 2.519 0 0 0-2.436-1.722zM103.074 22c.973.02 1.894.445 2.54 1.173.568.64.883 1.466.887 2.322a3.554 3.554 0 0 1-3.504 3.504c-1.92 0-3.5-1.58-3.5-3.5a3.545 3.545 0 0 1 3.405-3.498c.086-.002.086-.002.172-.001zm-67.988.001a3.526 3.526 0 0 1 2.478 1.116c.521.563.844 1.282.92 2.045a3.528 3.528 0 0 1-1.165 2.96 3.508 3.508 0 0 1-2.32.878 3.533 3.533 0 0 1-2.117-.713 3.512 3.512 0 0 1-.562-5.039 3.51 3.51 0 0 1 2.597-1.247h.169zm34.004 0a3.533 3.533 0 0 1 3.37 4.031 3.494 3.494 0 0 1-1.045 2.001 3.55 3.55 0 0 1-4.83 0 3.502 3.502 0 0 1-.775-3.974 3.511 3.511 0 0 1 3.1-2.058h.18zm33.84 1c-.364.014-.72.099-1.047.263a2.491 2.491 0 0 0-1.365 1.936c-.09.774.183 1.548.74 2.094.684.66 1.687.877 2.583.56a2.511 2.511 0 0 0 1.567-1.681 2.52 2.52 0 0 0-1.207-2.866 2.57 2.57 0 0 0-1.271-.306zm-67.991 0a2.53 2.53 0 0 0-2.44 2.495c-.001.505.151.998.436 1.414a2.52 2.52 0 0 0 2.005 1.089c.327.009.656-.048.962-.167a2.52 2.52 0 0 0 .755-.459c.581-.519.89-1.278.837-2.055a2.517 2.517 0 0 0-1.284-2.006 2.586 2.586 0 0 0-1.271-.311zm33.997 0c-.374.011-.74.104-1.074.273a2.526 2.526 0 0 0-1.311 1.722 2.52 2.52 0 0 0 .17 1.532 2.51 2.51 0 0 0 3.96.822c.602-.55.9-1.359.799-2.168a2.525 2.525 0 0 0-1.236-1.851 2.559 2.559 0 0 0-1.308-.33z" fill="#dddfe3"/><path d="M21.496 91.46a3.55 3.55 0 0 0-2.4-4.329l-1.922-.552a3.55 3.55 0 0 0-4.329 2.4l-7.443 25.954a3.55 3.55 0 0 0 2.4 4.329l1.923.552a3.553 3.553 0 0 0 4.329-2.4l7.442-25.954zm104.209-2.678a3.55 3.55 0 0 0-4.22-2.586l-1.945.467a3.55 3.55 0 0 0-2.586 4.22l6.303 26.254a3.55 3.55 0 0 0 4.22 2.586l1.945-.467a3.55 3.55 0 0 0 2.586-4.22l-6.303-26.254z" fill="#929496"/><path d="M132.707 92.243a1.517 1.517 0 0 0-1.809-1.108l-2.917.7a1.522 1.522 0 0 0-1.109 1.809l3.969 16.53a1.517 1.517 0 0 0 1.809 1.108l2.917-.7a1.517 1.517 0 0 0 1.108-1.809l-3.968-16.53zM11.466 93.785a1.52 1.52 0 0 0-1.028-1.855l-2.884-.827a1.52 1.52 0 0 0-1.855 1.029l-4.686 16.341a1.52 1.52 0 0 0 1.028 1.855l2.884.827a1.517 1.517 0 0 0 1.856-1.028l4.685-16.342z" fill="#797b7d"/><path d="M69 60a2.535 2.535 0 0 0-2.5 2.5c0 1.371 1.129 2.5 2.5 2.5s2.5-1.129 2.5-2.5S70.371 60 69 60zm-34 0c1.371 0 2.5 1.129 2.5 2.5S36.371 65 35 65a2.513 2.513 0 0 1-2.5-2.5c0-1.371 1.129-2.5 2.5-2.5zm68 0c1.371 0 2.5 1.129 2.5 2.5S104.371 65 103 65a2.513 2.513 0 0 1-2.5-2.5c0-1.371 1.129-2.5 2.5-2.5zM69 23c1.371 0 2.5 1.129 2.5 2.5S70.371 28 69 28a2.535 2.535 0 0 1-2.5-2.5c0-1.371 1.129-2.5 2.5-2.5zm31.61 1.765a2.537 2.537 0 0 1 3.125-1.655 2.537 2.537 0 0 1 1.655 3.125 2.537 2.537 0 0 1-3.125 1.655 2.537 2.537 0 0 1-1.655-3.125zm-66.801-1.463a2.535 2.535 0 0 1 3.389 1.007 2.535 2.535 0 0 1-1.007 3.389 2.535 2.535 0 0 1-3.389-1.007 2.535 2.535 0 0 1 1.007-3.389z" fill="#6f757b"/><path d="M94.041 14.748l.166-.136a14.12 14.12 0 0 1 4.246-2.348 13.945 13.945 0 0 1 4.329-.763l.344-.001c.58.009 1.157.047 1.732.124 1.413.19 2.797.597 4.089 1.201a13.944 13.944 0 0 1 4.397 3.241 14.1 14.1 0 0 1 2.663 4.256c.586 1.469.923 3.036.987 4.616a14.064 14.064 0 0 1-1.969 7.743 13.927 13.927 0 0 1-2.711 3.276 14.1 14.1 0 0 1-4.287 2.611c-1.584.61-3.278.931-4.975.937a14.088 14.088 0 0 1-5.672-1.18 13.95 13.95 0 0 1-4.488-3.139 14.041 14.041 0 0 1-3.881-9.119c-.057-1.4.1-2.805.461-4.158.379-1.425.98-2.789 1.782-4.026a13.956 13.956 0 0 1 1.883-2.314l.339.525 1.774.25a11.94 11.94 0 0 0-3.846 6.079 11.988 11.988 0 0 0-.394 3.562c.057 1.403.364 2.793.9 4.09a12.108 12.108 0 0 0 2.428 3.73 11.946 11.946 0 0 0 3.843 2.688 12.08 12.08 0 0 0 4.863 1.012 11.997 11.997 0 0 0 4.263-.803 12.115 12.115 0 0 0 3.678-2.24 11.954 11.954 0 0 0 3.616-5.88c.321-1.207.454-2.462.388-3.709a12.037 12.037 0 0 0-.95-4.076 12.104 12.104 0 0 0-2.174-3.385 11.945 11.945 0 0 0-3.765-2.775 12.154 12.154 0 0 0-3.509-1.031 12.67 12.67 0 0 0-1.483-.106l-.294.001a11.902 11.902 0 0 0-3.572.608 12.112 12.112 0 0 0-3.164 1.596l-1.865-.538-.172-.419zm7.073 15.968a1.007 1.007 0 0 1 .943 1.264c-.241.829-.471 1.664-.763 2.477a1.03 1.03 0 0 1-.233.359.987.987 0 0 1-.693.289 1.008 1.008 0 0 1-.304-.044 1.01 1.01 0 0 1-.687-.763 1.023 1.023 0 0 1 .017-.457c.241-.83.471-1.664.763-2.478a1.013 1.013 0 0 1 .834-.642c.041-.004.081-.005.123-.005zm8.123-4.303c.083.003.163.014.243.035.83.241 1.664.471 2.477.763a.996.996 0 0 1 .604 1.23 1.007 1.007 0 0 1-.762.687c-.153.03-.308.022-.458-.017-.83-.241-1.664-.471-2.477-.763a1.016 1.016 0 0 1-.381-.255 1.008 1.008 0 0 1-.033-1.324.998.998 0 0 1 .694-.354c.031-.002.062-.003.093-.002zm-14.816-4.555c.083.003.163.015.243.035.83.242 1.664.472 2.478.764.144.056.274.141.38.255.248.267.332.659.214 1.004a1.005 1.005 0 0 1-.783.663 1.03 1.03 0 0 1-.428-.022c-.829-.241-1.664-.471-2.477-.763a1.024 1.024 0 0 1-.38-.255 1.01 1.01 0 0 1-.034-1.324.995.995 0 0 1 .695-.355l.092-.002zm11.247-5.958c.124.004.245.028.36.075a1.009 1.009 0 0 1 .584 1.189c-.242.83-.472 1.664-.763 2.478a.998.998 0 0 1-1.923-.19 1.026 1.026 0 0 1 .022-.427c.241-.83.471-1.664.763-2.477.034-.087.077-.168.132-.243a1.015 1.015 0 0 1 .825-.405z" fill="#ff4c58"/></svg>