<svg viewBox="0 0 36 36" xmlns="http://www.w3.org/2000/svg" fill-rule="evenodd" clip-rule="evenodd" stroke-linejoin="round" stroke-miterlimit="1.414"><path d="M18 0c9.934 0 18 8.066 18 18s-8.066 18-18 18S0 27.934 0 18 8.066 0 18 0zm.003 9.003c-2.444 0-2.751.01-3.711.054-.958.044-1.612.196-2.185.418a4.428 4.428 0 0 0-1.594 1.038 4.428 4.428 0 0 0-1.038 1.594c-.222.573-.374 1.227-.418 2.185-.044.96-.054 1.267-.054 3.711s.01 2.751.054 3.711c.044.957.196 1.612.418 2.184.23.592.538 1.094 1.038 1.594a4.415 4.415 0 0 0 1.594 1.038c.573.223 1.227.375 2.185.419.96.043 1.267.054 3.711.054s2.751-.011 3.711-.054c.957-.044 1.612-.196 2.184-.419a4.398 4.398 0 0 0 1.594-1.038c.501-.5.808-1.002 1.038-1.594.223-.572.375-1.227.419-2.184.043-.96.054-1.267.054-3.711s-.011-2.751-.054-3.711c-.044-.958-.196-1.612-.419-2.185a4.415 4.415 0 0 0-1.038-1.594c-.5-.5-1.002-.808-1.594-1.038-.572-.222-1.227-.374-2.184-.418-.96-.044-1.267-.054-3.711-.054zm0 1.621c2.403 0 2.688.01 3.637.053.877.04 1.354.187 1.671.31.42.163.72.358 1.035.673.315.315.51.615.673 1.035.123.317.27.794.31 1.671.043.949.052 1.234.052 3.637s-.009 2.688-.052 3.637c-.04.877-.187 1.354-.31 1.671-.163.42-.358.72-.673 1.035-.315.315-.615.51-1.035.673-.317.123-.794.27-1.671.31-.949.043-1.234.052-3.637.052s-2.688-.009-3.637-.052c-.877-.04-1.354-.187-1.671-.31a2.786 2.786 0 0 1-1.035-.673 2.786 2.786 0 0 1-.673-1.035c-.123-.317-.27-.794-.31-1.671-.043-.949-.053-1.234-.053-3.637s.01-2.688.053-3.637c.04-.877.187-1.354.31-1.671.163-.42.358-.72.673-1.035.315-.315.615-.51 1.035-.673.317-.123.794-.27 1.671-.31.949-.043 1.234-.053 3.637-.053zm0 2.757a4.622 4.622 0 1 0 0 9.243 4.622 4.622 0 0 0 0-9.243zm0 7.622a3 3 0 1 1 0-6 3 3 0 0 1 0 6zm5.884-7.804a1.08 1.08 0 1 1-2.16 0 1.08 1.08 0 0 1 2.16 0z"/></svg>
