<svg xmlns="http://www.w3.org/2000/svg" viewBox="0 0 16 16">
  <path fill-rule="evenodd" d="M8,0 C5.82755556,0 5.55466667,0.00888888889 4.70133333,0.048 C3.84977778,0.0871111111 3.26844444,0.222222222 2.75911111,0.419555556 C2.22555174,0.620837404 1.74210204,0.935655966 1.34222222,1.34222222 C0.935655966,1.74210204 0.620837404,2.22555174 0.419555556,2.75911111 C0.222222222,3.26844444 0.0871111111,3.84977778 0.048,4.70133333 C0.00888888889,5.55466667 0,5.82755556 0,8 C0,10.1724444 0.00888888889,10.4453333 0.048,11.2986667 C0.0871111111,12.1493333 0.222222222,12.7315556 0.419555556,13.24 C0.624,13.7662222 0.897777778,14.2124444 1.34222222,14.6568889 C1.74186682,15.0637427 2.22538388,15.3786051 2.75911111,15.5795556 C3.26844444,15.7777778 3.84977778,15.9128889 4.70133333,15.952 C5.55466667,15.9902222 5.82755556,16 8,16 C10.1724444,16 10.4453333,15.9902222 11.2986667,15.952 C12.1493333,15.9128889 12.7315556,15.7777778 13.24,15.5795556 C13.7739481,15.3790417 14.2575542,15.0641213 14.6568889,14.6568889 C15.1022222,14.2124444 15.3751111,13.7662222 15.5795556,13.24 C15.7777778,12.7315556 15.9128889,12.1493333 15.952,11.2986667 C15.9902222,10.4453333 16,10.1724444 16,8 C16,5.82755556 15.9902222,5.55466667 15.952,4.70133333 C15.9128889,3.84977778 15.7777778,3.26844444 15.5795556,2.75911111 C15.3786051,2.22538388 15.0637427,1.74186682 14.6568889,1.34222222 C14.2124444,0.897777778 13.7662222,0.624 13.24,0.419555556 C12.7315556,0.222222222 12.1493333,0.0871111111 11.2986667,0.048 C10.4453333,0.00888888889 10.1724444,0 8,0 L8,0 Z M8,1.44088889 C10.136,1.44088889 10.3893333,1.44977778 11.2328889,1.488 C12.0124444,1.52355556 12.4364444,1.65422222 12.7182222,1.76355556 C13.0915556,1.90844444 13.3582222,2.08177778 13.6382222,2.36177778 C13.9182222,2.64177778 14.0915556,2.90844444 14.2364444,3.28177778 C14.3457778,3.56355556 14.4764444,3.98755556 14.512,4.76711111 C14.5502222,5.61066667 14.5582222,5.864 14.5582222,8 C14.5582222,10.136 14.5502222,10.3893333 14.512,11.2328889 C14.4764444,12.0124444 14.3457778,12.4364444 14.2364444,12.7182222 C14.0915556,13.0915556 13.9182222,13.3582222 13.6382222,13.6382222 C13.3582222,13.9182222 13.0915556,14.0915556 12.7182222,14.2364444 C12.4364444,14.3457778 12.0124444,14.4764444 11.2328889,14.512 C10.3893333,14.5502222 10.136,14.5582222 8,14.5582222 C5.864,14.5582222 5.61066667,14.5502222 4.76711111,14.512 C3.98755556,14.4764444 3.56355556,14.3457778 3.28177778,14.2364444 C2.93423222,14.1083483 2.61984755,13.9039223 2.36177778,13.6382222 C2.09607769,13.3801525 1.89165172,13.0657678 1.76355556,12.7182222 C1.65422222,12.4364444 1.52355556,12.0124444 1.488,11.2328889 C1.44977778,10.3893333 1.44088889,10.136 1.44088889,8 C1.44088889,5.864 1.44977778,5.61066667 1.488,4.76711111 C1.52355556,3.98755556 1.65422222,3.56355556 1.76355556,3.28177778 C1.90844444,2.90844444 2.08177778,2.64177778 2.36177778,2.36177778 C2.64177778,2.08177778 2.90844444,1.90844444 3.28177778,1.76355556 C3.56355556,1.65422222 3.98755556,1.52355556 4.76711111,1.488 C5.61066667,1.44977778 5.864,1.44088889 8,1.44088889 L8,1.44088889 Z M8,3.89155556 C6.51795153,3.86975424 5.13905692,4.64793151 4.39166772,5.9279129 C3.64427852,7.20789429 3.64427852,8.79121682 4.39166772,10.0711982 C5.13905692,11.3511796 6.51795153,12.1293569 8,12.1075556 C10.245224,12.0745277 12.0480147,10.2450224 12.0480147,7.99955556 C12.0480147,5.75408869 10.245224,3.92458338 8,3.89155556 L8,3.89155556 Z M8,10.6666667 C6.52724067,10.6666667 5.33333333,9.47275933 5.33333333,8 C5.33333333,6.52724067 6.52724067,5.33333333 8,5.33333333 C9.47275933,5.33333333 10.6666667,6.52724067 10.6666667,8 C10.6666667,9.47275933 9.47275933,10.6666667 8,10.6666667 L8,10.6666667 Z M13.2302222,3.72977778 C13.2302222,4.25997114 12.8004156,4.68977778 12.2702222,4.68977778 C11.7400289,4.68977778 11.3102222,4.25997114 11.3102222,3.72977778 C11.3102222,3.19958442 11.7400289,2.76977778 12.2702222,2.76977778 C12.8004156,2.76977778 13.2302222,3.19958442 13.2302222,3.72977778 Z"/>
</svg>
