<svg viewBox="0 0 36 36" xmlns="http://www.w3.org/2000/svg" fill-rule="evenodd" clip-rule="evenodd" stroke-linejoin="round" stroke-miterlimit="1.414"><path d="M24.586 17l-4.293-4.293a.999.999 0 1 1 1.414-1.414l6 6 .017.017a.997.997 0 0 1 .199.305l.002.004c.045.111.072.231.075.357V18.024c-.003.126-.03.246-.075.357l-.001.001v.002l-.001.001a.997.997 0 0 1-.199.305l-.003.003-.001.001-.001.001-.003.003v.001l-.002.001-.002.003h-.001l-.004.004-6 6a.999.999 0 1 1-1.414-1.414L24.586 19H9a1 1 0 0 1 0-2h15.586z" transform="rotate(180 18 18)"/></svg>
