<svg viewBox="0 0 16 16" xmlns="http://www.w3.org/2000/svg" fill-rule="evenodd" clip-rule="evenodd" stroke-linejoin="round" stroke-miterlimit="1.41421"><path d="M13.634 13.634h-2.373V9.921c0-.885-.015-2.025-1.233-2.025-1.235 0-1.423.965-1.423 1.961v3.777h-2.37V5.999h2.274v1.043h.033c.316-.6 1.09-1.233 2.245-1.233 2.403 0 2.847 1.581 2.847 3.637v4.188zM3.559 4.955c-.763 0-1.377-.616-1.377-1.376 0-.759.614-1.376 1.377-1.376.759 0 1.375.617 1.375 1.376 0 .76-.616 1.376-1.375 1.376zm1.187 8.679H2.37V5.999h2.376v7.635zM14.816 0H1.18C.529 0 0 .517 0 1.154v13.692C0 15.483.529 16 1.18 16h13.636c.652 0 1.184-.517 1.184-1.154V1.154C16 .517 15.468 0 14.816 0z" fill-rule="nonzero"/></svg>
