<svg xmlns="http://www.w3.org/2000/svg" width="171" height="36" viewBox="0 0 171 36">
  <g fill="none" fill-rule="evenodd">
    <path fill="#0C9447" d="M42.093,28.3245 C42.168,28.3335 42.243,28.338 42.3195,28.338 C44.3925,28.338 46.074,25.245 46.074,21.4305 C46.074,17.616 44.3925,14.523 42.3195,14.523 C42.243,14.523 42.168,14.529 42.093,14.5365 C44.0595,14.754 45.618,17.757 45.618,21.4305 C45.618,25.104 44.0595,28.107 42.093,28.3245 M13.1415,28.3245 C13.218,28.3335 13.293,28.338 13.3695,28.338 C15.4425,28.338 17.1225,25.245 17.1225,21.4305 C17.1225,17.616 15.4425,14.523 13.3695,14.523 C13.2933247,14.5237621 13.2172329,14.5282675 13.1415,14.5365 C15.108,14.754 16.6665,17.757 16.6665,21.4305 C16.6665,25.104 15.108,28.107 13.1415,28.3245 M51.606,9.7785 C48.7455,7.2825 45.8325,7.074 44.3745,7.074 C41.0985,7.074 39.174,8.166 38.082,8.9985 C37.509,9.414 37.4565,9.4665 36.624,10.3515 L36.624,0 L28.8225,0 L28.8225,20.412 L36.573,20.412 C36.8625,16.2675 38.8965,13.056 41.3625,13.056 L43.1745,13.056 C45.84,13.056 48.0015,16.806 48.0015,21.4305 C48.0015,26.0565 45.84,29.8065 43.1745,29.8065 L41.3625,29.8065 C38.9295,29.8065 36.918,26.682 36.585,22.62 L41.2095,22.62 C41.454,22.62 41.652,22.2555 41.652,21.8055 C41.6515522,21.7082478 41.6415035,21.6112775 41.622,21.516 C41.5575,21.8205 41.3985,22.038 41.2095,22.038 L41.2095,22.0395 L19.0095,22.0395 L19.0095,22.62 C18.6765,26.682 16.665,29.8065 14.232,29.8065 L12.4215,29.8065 C9.756,29.8065 7.5945,26.0565 7.5945,21.4305 C7.5945,16.806 9.756,13.056 12.4215,13.056 L14.232,13.056 C16.6995,13.056 18.732,16.2675 19.023,20.412 L27.0945,20.412 C26.982,14.505 24.858,11.55 22.7835,9.7785 C19.923,7.2825 17.01,7.074 15.5535,7.074 C12.276,7.074 10.3515,8.166 9.2595,8.9985 C8.6865,9.414 8.6355,9.4665 7.803,10.3515 L7.803,0 L0,0 L0,35.007 L7.4385,35.007 L7.386,32.1465 C7.854,32.718 8.3235,33.2385 8.946,33.7065 C11.391,35.631 14.2005,35.736 15.2925,35.736 C21.5355,35.736 24.4995,31.2615 25.4355,29.337 C26.058,28.095 26.8275,25.7895 27.042,22.62 L28.8225,22.62 L28.8225,35.007 L36.261,35.007 L36.2085,32.1465 C36.6765,32.718 37.1445,33.2385 37.7685,33.7065 C40.2135,35.631 43.023,35.736 44.115,35.736 C50.358,35.736 53.322,31.2615 54.258,29.337 C54.987,27.8805 55.923,24.9675 55.923,20.91 C55.923,14.6685 53.739,11.5995 51.606,9.7785"/>
    <path fill="#8BC541" d="M68.568,0 L68.568,8.5305 L73.8735,8.5305 L73.8735,13.4205 L68.568,13.4205 L68.568,26.376 C68.568,27.4695 68.517,28.0935 68.7765,28.5615 C69.2445,29.4465 70.4925,29.4465 70.6485,29.4465 C70.8405,29.4465 71.0325,29.442 71.223,29.439 C72.5055,29.4075 73.4475,29.244 74.622,28.7025 C75.9375,31.83 77.583,33.39 78.186,33.9945 C75.825,35.3385 72.849,35.9535 69.606,35.9955 C69.486,35.9985 69.3645,36 69.2445,36 C68.673,36 68.1,36 67.5795,35.9475 C66.852,35.8965 64.4595,35.9475 62.6385,34.284 C60.558,32.463 60.6615,29.706 60.6615,27.2085 L60.6615,13.4205 L56.4585,13.4205 L56.4585,8.5305 L60.6615,8.5305 L60.6615,0 L68.568,0 L68.568,0 Z M89.814,29.8575 C86.589,29.8575 84.3525,27.8805 83.727,24.708 C83.571,23.979 83.6235,23.355 83.6235,23.0955 C83.6265,22.2945 86.4795,21.417 90,21.417 C93.513,21.417 96.3615,22.2945 96.375,23.0955 L103.026,23.0955 C102.9735,21.795 103.0785,16.1775 100.0095,11.964 C96.627,7.23 91.218,7.0215 89.397,7.0215 C83.4675,7.0215 80.607,9.4665 78.942,11.34 C75.561,15.2415 75.4575,20.286 75.4575,21.951 C75.4575,28.089 78.2655,33.3945 84.3,35.268 C86.433,35.9445 88.3575,35.9955 89.19,35.9955 C91.218,35.9955 96.42,35.631 100.425,31.2105 C101.049,30.4815 103.026,27.9495 103.026,24.9795 L96.6795,25.02 C96.3165,25.6965 94.788,29.8575 89.814,29.8575 L89.814,29.8575 Z M116.946,7.1265 C120.738,7.1325 125.8545,8.025 127.6695,11.9115 C127.98,12.6405 128.241,13.368 128.241,14.928 L128.241,35.007 L121.1655,35.007 L121.1655,32.562 C120.594,32.979 120.0735,33.3435 119.502,33.7065 C117.540345,35.0439969 115.21768,35.7519414 112.8435,35.736 C107.9535,35.736 105.717,33.0825 104.8335,31.2615 C104.253384,30.0798548 103.950694,28.7813644 103.9485,27.465 C103.9485,22.575 108.318,20.235 109.515,19.7145 C111.543,18.8295 115.236,18.102 120.387,17.166 L120.387,15.657 C120.387,14.721 120.2295,12.3795 117.3165,12.3795 C114.9765,12.3795 113.8845,13.473 113.4675,14.3565 C113.294105,14.7376941 113.17204,15.1402045 113.1045,15.5535 L105.093,15.5535 C105.198,14.46 105.249,12.12 107.2785,10.0905 C109.515,7.9065 112.479,7.4895 113.4165,7.3335 C114.9765,7.1265 116.277,7.1265 116.901,7.1265 L116.946,7.1265 L116.946,7.1265 Z M138.0825,7.854 L138.1335,10.6635 C138.603,10.0905 138.915,9.7275 139.4865,9.258 C140.5275,8.427 142.503,7.1265 145.7805,7.1265 C146.4045,7.1265 149.214,7.1775 151.1895,8.427 C152.022,8.9475 152.6985,9.6225 153.375,10.299 C154.3635,9.4665 154.728,9.207 155.2995,8.8425 C157.15372,7.72838463 159.27433,7.13552581 161.4375,7.1265 C162.3735,7.1265 166.1715,7.1775 168.408,10.0905 C169.7085,11.703 169.761,13.4205 169.761,17.322 L169.761,35.007 L161.802,35.007 L161.802,20.754 C161.802,17.946 161.802,16.3335 161.073,15.189 C160.449,14.148 159.201,13.629 158.0565,13.629 C157.38,13.629 155.508,13.7835 154.5195,15.5535 C153.8955,16.6455 153.9465,17.79 153.9465,20.235 L153.9465,35.007 L145.989,35.007 L145.989,18.882 C145.989,16.281 145.6245,15.1365 144.4275,14.3565 C143.7525,13.8885 142.92,13.68 142.0875,13.68 C141.723,13.68 140.6835,13.68 139.7985,14.3565 C138.1335,15.6045 138.0825,17.7375 138.0825,19.506 L138.0825,35.007 L130.176,35.007 L130.176,7.854 L138.0825,7.854 L138.0825,7.854 Z M120.387,22.056 L120.3855,22.056 C120.384,25.017 120.2475,27.9735 117.528,29.907 C117.1035,30.2115 115.644,31.1835 113.9415,31.1835 C112.953,31.1835 112.236,30.8835 111.717,30.51 C109.989,31.728 108.7005,32.5245 108.7005,32.5245 L107.7345,31.185 C107.7345,31.185 111.921,29.625 118.4565,23.829 C115.2555,26.406 112.59,28.107 110.622,29.2005 C110.463984,28.8054456 110.373718,28.3865727 110.355,27.9615 C110.355,26.745 110.9625,25.407 113.274,24.435 C113.637,24.252 114.003,24.1305 114.3675,24.009 L120.387,22.0035 L120.3855,22.056 L120.387,22.056 L120.387,22.056 Z M90,24.6 C87.033,24.6 84.6075,23.9355 84.432,23.097 C84.4255411,23.1286068 84.422026,23.1607443 84.4215,23.193 C84.4215,24.078 86.919,24.882 90,24.882 C93.0795,24.882 95.5785,24.078 95.5785,23.193 C95.5782113,23.1606446 95.5741846,23.1284309 95.5665,23.097 C95.391,23.9355 92.967,24.6 90,24.6 L90,24.6 Z M94.755,18.102 C94.6515,17.217 94.4955,14.46 91.791,13.2645 C90.6975,12.744 89.814,12.744 89.346,12.744 C86.172,12.744 84.7155,15.0855 84.3,16.0215 C84.0915,16.4895 83.883,17.061 83.676,18.102 L94.755,18.102 L94.755,18.102 Z"/>
  </g>
</svg>
