<svg xmlns="http://www.w3.org/2000/svg" width="56" height="36" viewBox="0 0 56 36">
  <path fill="#0C9447" fill-rule="evenodd" d="M41.3545263,28.3245 C41.4282105,28.3335 41.5018947,28.338 41.5770526,28.338 C43.6136842,28.338 45.2656842,25.245 45.2656842,21.4305 C45.2656842,17.616 43.6136842,14.523 41.5770526,14.523 C41.5018947,14.523 41.4282105,14.529 41.3545263,14.5365 C43.2865263,14.754 44.8176842,17.757 44.8176842,21.4305 C44.8176842,25.104 43.2865263,28.107 41.3545263,28.3245 M12.9109474,28.3245 C12.9861053,28.3335 13.0597895,28.338 13.1349474,28.338 C15.1715789,28.338 16.8221053,25.245 16.8221053,21.4305 C16.8221053,17.616 15.1715789,14.523 13.1349474,14.523 C13.0601085,14.5237621 12.9853517,14.5282675 12.9109474,14.5365 C14.8429474,14.754 16.3741053,17.757 16.3741053,21.4305 C16.3741053,25.104 14.8429474,28.107 12.9109474,28.3245 M50.7006316,9.7785 C47.8903158,7.2825 45.0284211,7.074 43.596,7.074 C40.3774737,7.074 38.4867368,8.166 37.4138947,8.9985 C36.8509474,9.414 36.7993684,9.4665 35.9814737,10.3515 L35.9814737,0 L28.3168421,0 L28.3168421,20.412 L35.9313684,20.412 C36.2157895,16.2675 38.2141053,13.056 40.6368421,13.056 L42.4170526,13.056 C45.0357895,13.056 47.1593684,16.806 47.1593684,21.4305 C47.1593684,26.0565 45.0357895,29.8065 42.4170526,29.8065 L40.6368421,29.8065 C38.2465263,29.8065 36.2703158,26.682 35.9431579,22.62 L40.4865263,22.62 C40.7267368,22.62 40.9212632,22.2555 40.9212632,21.8055 C40.9208232,21.7082478 40.9109508,21.6112775 40.8917895,21.516 C40.8284211,21.8205 40.6722105,22.038 40.4865263,22.038 L40.4865263,22.0395 L18.676,22.0395 L18.676,22.62 C18.3488421,26.682 16.3726316,29.8065 13.9823158,29.8065 L12.2035789,29.8065 C9.58484211,29.8065 7.46126316,26.0565 7.46126316,21.4305 C7.46126316,16.806 9.58484211,13.056 12.2035789,13.056 L13.9823158,13.056 C16.4065263,13.056 18.4033684,16.2675 18.6892632,20.412 L26.6191579,20.412 C26.5086316,14.505 24.4218947,11.55 22.3837895,9.7785 C19.5734737,7.2825 16.7115789,7.074 15.2806316,7.074 C12.0606316,7.074 10.1698947,8.166 9.09705263,8.9985 C8.53410526,9.414 8.484,9.4665 7.66610526,10.3515 L7.66610526,0 L0,0 L0,35.007 L7.308,35.007 L7.25642105,32.1465 C7.71621053,32.718 8.17747368,33.2385 8.78905263,33.7065 C11.1911579,35.631 13.9513684,35.736 15.0242105,35.736 C21.1576842,35.736 24.0696842,31.2615 24.9892632,29.337 C25.6008421,28.095 26.3568421,25.7895 26.5675789,22.62 L28.3168421,22.62 L28.3168421,35.007 L35.6248421,35.007 L35.5732632,32.1465 C36.0330526,32.718 36.4928421,33.2385 37.1058947,33.7065 C39.508,35.631 42.2682105,35.736 43.3410526,35.736 C49.4745263,35.736 52.3865263,31.2615 53.3061053,29.337 C54.0223158,27.8805 54.9418947,24.9675 54.9418947,20.91 C54.9418947,14.6685 52.7962105,11.5995 50.7006316,9.7785"/>
</svg>
