<svg viewBox="0 0 42 42" xmlns="http://www.w3.org/2000/svg" fill-rule="evenodd" clip-rule="evenodd" stroke-linejoin="round" stroke-miterlimit="1.414"><path d="M4 36V1a1 1 0 0 1 2 0v35h35a1 1 0 0 1 0 2H6v3a1 1 0 0 1-2 0v-3H1a1 1 0 0 1 0-2h3zM9.915 5.004c-.033.004-.067.007-.1.013a1.008 1.008 0 0 0-.72 1.408c.014.031.031.06.047.089l6 10a1.002 1.002 0 0 0 1.305.38l3.172-1.585 5.523 9.205.053.079c.052.065.064.084.125.141a1.01 1.01 0 0 0 .876.247l4.284-.857 4.646 8.362.053.086c.055.071.067.091.132.153a1 1 0 0 0 1.608-1.12c-.014-.031-.03-.06-.045-.091l-5-9a1.19 1.19 0 0 0-.176-.23 1.01 1.01 0 0 0-.605-.28 1.214 1.214 0 0 0-.289.015l-4.309.862-5.638-9.395-.055-.083a1.003 1.003 0 0 0-1.249-.297l-3.172 1.585-5.524-9.205-.056-.085c-.058-.069-.07-.089-.137-.149a1.01 1.01 0 0 0-.446-.228c-.088-.02-.112-.018-.201-.024l-.102.004z"/></svg>