<svg viewBox="0 0 26 16" xmlns="http://www.w3.org/2000/svg" fill-rule="evenodd" clip-rule="evenodd" stroke-linejoin="round" stroke-miterlimit="1.414"><path d="M22 0c1.656 0 3 1.344 3 3v10c0 1.656-1.344 3-3 3H4c-1.656 0-3-1.344-3-3V3c0-1.656 1.344-3 3-3h18zM8.988 7.527L3.445 3.832c-.059-.043-.075-.052-.129-.103a.997.997 0 0 1 .077-1.524c.11-.083.237-.144.371-.177.071-.017.09-.017.163-.025.082-.003.082-.003.165.001.083.011.162.025.241.053.08.028.15.067.222.111L13 7.798l8.445-5.63.071-.043c.066-.033.081-.043.151-.068a.986.986 0 0 1 .649-.006 1.01 1.01 0 0 1 .656 1.185 1.006 1.006 0 0 1-.288.493c-.054.051-.07.06-.129.103l-5.543 3.695a165.101 165.101 0 0 1 5.665 4.737c.117.113.209.244.264.398.033.091.052.187.058.284a1.01 1.01 0 0 1-.825 1.039c-.127.022-.258.02-.384-.007a1.038 1.038 0 0 1-.392-.18 163.962 163.962 0 0 1-6.075-5.062 1.156 1.156 0 0 1-.049-.05l-1.719 1.146a1.009 1.009 0 0 1-1.11 0l-1.719-1.146-.049.05a163.962 163.962 0 0 1-6.075 5.062 1.038 1.038 0 0 1-.392.18 1.012 1.012 0 0 1-.701-.107 1.01 1.01 0 0 1-.508-.925c.006-.097.025-.193.058-.284.055-.154.147-.285.264-.398a165.101 165.101 0 0 1 5.665-4.737z"/></svg>