<svg viewBox="0 0 22 14" xmlns="http://www.w3.org/2000/svg" fill-rule="evenodd" clip-rule="evenodd" stroke-linejoin="round" stroke-miterlimit="1.414"><path d="M19 0c1.656 0 3 1.344 3 3v8c0 1.656-1.344 3-3 3H3c-1.656 0-3-1.344-3-3V3c0-1.656 1.344-3 3-3h16zM6.877 6.602L2.47 3.848c-.058-.039-.073-.047-.126-.093a1.007 1.007 0 0 1-.318-.53 1.007 1.007 0 0 1 .749-1.199.99.99 0 0 1 .755.126L11 6.821l7.47-4.669.068-.039c.063-.03.078-.039.145-.061a1.12 1.12 0 0 1 .23-.048c.079-.004.078-.004.157-.002.069.008.087.008.155.024a1.004 1.004 0 0 1 .579.379 1.01 1.01 0 0 1-.148 1.35c-.053.046-.068.054-.126.093l-4.407 2.754a146.942 146.942 0 0 1 4.536 3.646c.121.11.216.241.275.395a1 1 0 0 1-1.524 1.165 147.244 147.244 0 0 1-5.069-4.056l-.023-.021-1.788 1.117a1.006 1.006 0 0 1-1.06 0L8.682 7.731l-.023.021a147.244 147.244 0 0 1-5.069 4.056.996.996 0 0 1-1.588-.863.976.976 0 0 1 .064-.302 1.03 1.03 0 0 1 .275-.395c1.488-1.245 3-2.461 4.536-3.646z"/></svg>
