<svg viewBox="0 0 42 42" xmlns="http://www.w3.org/2000/svg" fill-rule="evenodd" clip-rule="evenodd" stroke-linejoin="round" stroke-miterlimit="1.414"><path d="M4 36V1a1 1 0 0 1 2 0v35h35a1 1 0 0 1 0 2H6v3a1 1 0 0 1-2 0v-3H1a1 1 0 0 1 0-2h3zm6.587-15.86c.665.121 1.471.241 2.421.353C15.704 20.81 19.024 21 23 21c3.976 0 7.296-.19 9.992-.507.95-.112 1.756-.232 2.421-.353.408-.074.683-.133.83-.17a1 1 0 0 0-.486-1.94c-.103.026-.336.076-.702.142-.623.114-1.388.228-2.297.335-2.617.308-5.859.493-9.758.493-3.899 0-7.141-.185-9.758-.493a36.963 36.963 0 0 1-2.297-.335 12.196 12.196 0 0 1-.702-.142 1 1 0 0 0-.486 1.94c.147.037.422.096.83.17z"/></svg>