<svg viewBox="0 0 14 14" xmlns="http://www.w3.org/2000/svg" fill-rule="evenodd" clip-rule="evenodd" stroke-linejoin="round" stroke-miterlimit="1.414"><path d="M9 0h4.026l.022.001c.115.006.225.031.327.072l.016.006a.985.985 0 0 1 .281.181l.018.016.017.017.018.018.015.017c.078.085.138.18.181.281l.006.016c.041.102.066.212.072.327L14 .976V5a1 1 0 0 1-2 0V3.414L9.172 6.242a5.002 5.002 0 0 1-7.708 6.294 5.002 5.002 0 0 1 6.294-7.708L10.586 2H9a1 1 0 0 1 0-2zM7.121 6.879a2.998 2.998 0 0 1 0 4.242 2.998 2.998 0 0 1-4.242 0 2.998 2.998 0 0 1 0-4.242 2.998 2.998 0 0 1 4.242 0z"/></svg>
