<svg xmlns="http://www.w3.org/2000/svg" xmlns:xlink="http://www.w3.org/1999/xlink" version="1.1" x="0px" y="0px" viewBox="0 0 100 100" enable-background="new 0 0 100 100" xml:space="preserve"><path fill="rgba(87, 167, 247, 1)" d="M85.333,75.972c-7.435-3.716-4.572-0.872-13.698-4.675c-9.126-3.798-11.288-5.038-11.288-5.038l-0.08-8.709  c0,0,3.418-2.606,4.485-10.843c2.133,0.62,2.856-2.513,2.971-4.515c0.126-1.934,1.262-7.964-1.349-7.426  c0.534-4.026,0.953-7.665,0.763-9.592c-0.653-6.763-5.306-13.825-17.052-14.34c-9.986,0.516-16.469,7.582-17.123,14.345  c-0.188,1.927,0.195,5.563,0.729,9.596c-2.609-0.545-1.486,5.495-1.371,7.428c0.126,2.002,0.832,5.146,2.971,4.525  c1.062,8.237,4.48,10.864,4.48,10.864l-0.086,8.753c0,0-2.162,1.326-11.288,5.123c-9.126,3.804-6.264,0.787-13.698,4.503  C2.951,81.846,2.951,98,2.951,98h47.133H97.08C97.08,98,97.08,81.846,85.333,75.972z"/></svg>
