<svg viewBox="0 0 42 42" xmlns="http://www.w3.org/2000/svg" fill-rule="evenodd" clip-rule="evenodd" stroke-linejoin="round" stroke-miterlimit="1.414"><path d="M20.644 0c-5.392 0-9.878 3.88-10.819 9l-4.21.515c-2.193.268-3.803 2.274-3.597 4.473L4.27 38.012C4.477 40.214 6.433 42 8.648 42H32.64c2.211 0 4.172-1.789 4.378-3.988l2.252-24.024c.207-2.202-1.401-4.205-3.597-4.473L31.463 9c-.941-5.12-5.427-9-10.819-9z" fill="#ff8f40"/><path d="M9.052 35.365a1 1 0 0 1 .947-1.051l4.993-.262a1 1 0 0 1 .104 1.998l-4.993.261a1 1 0 0 1-1.051-.946zm23.991 0a1 1 0 0 0-.947-1.051l-4.993-.262a1 1 0 0 0-.104 1.998l4.993.261a1 1 0 0 0 1.051-.946zM8.052 30.417a1 1 0 0 1 .947-1.051l5.991-.314a1 1 0 0 1 .105 1.998l-5.992.314a1.002 1.002 0 0 1-1.051-.947zm25.989 0a1 1 0 0 0-.946-1.051l-5.992-.314a1 1 0 0 0-.104 1.998l5.991.314a1.001 1.001 0 0 0 1.051-.947zm.999-4.947a1 1 0 0 0-.946-1.051l-6.991-.367a1 1 0 0 0-.104 1.998l6.99.366a1 1 0 0 0 1.051-.946zm-27.988 0a1 1 0 0 1 .947-1.051l6.99-.367a1 1 0 0 1 .105 1.998l-6.991.366a1 1 0 0 1-1.051-.946zM21 3c4.415 0 8 3.585 8 8s-3.585 8-8 8-8-3.585-8-8 3.585-8 8-8zm-3.959 6.784a.59.59 0 0 1 .237-.714.59.59 0 0 1 .738.152l3.725 4.918c.462.61.298 1.415-.356 1.793l-.213.123c-.659.38-1.433.118-1.731-.588l-2.4-5.684z" fill="#d97a36"/></svg>