<svg viewBox="0 0 40 56" xmlns="http://www.w3.org/2000/svg" fill-rule="evenodd" clip-rule="evenodd" stroke-linejoin="round" stroke-miterlimit="1.41421"><path fill="#569cbf" d="M7 0h26v7H7z"/><path d="M33 0L21.737 29.322l7.266 3.336 10.313-26.59c.199-.515.002-1.208-.431-1.541L33 0zM7.001 0l11.263 29.322-7.266 3.336L.685 6.068c-.199-.515-.002-1.208.431-1.541L7.001 0z" fill="#6dc6f3"/><path d="M24.486 29.108l2.696 1.413L37.615 3.55l-2.476-1.905-10.653 27.463zm-8.971 0l-2.697 1.413L2.386 3.55l2.475-1.905 10.654 27.463z" fill="#61b1d9"/><circle cx="20" cy="42" r="14" fill="#fc0"/><path d="M20 51c4.971 0 9-4.029 9-9s-4.029-9-9-9-9 4.029-9 9 4.029 9 9 9zm0 2c-6.075 0-11-4.925-11-11s4.925-11 11-11 11 4.925 11 11-4.925 11-11 11z" fill="#e6b800" fill-rule="nonzero"/></svg>