<svg viewBox="0 0 42 42" xmlns="http://www.w3.org/2000/svg" fill-rule="evenodd" clip-rule="evenodd" stroke-linejoin="round" stroke-miterlimit="1.414"><path d="M28 20v-6.507A3.49 3.49 0 0 1 31.5 10a3.5 3.5 0 0 1 3.497 3.337A3.503 3.503 0 0 1 40 16.503V20h1a1 1 0 0 1 0 2h-1v3.497a3.496 3.496 0 0 1-5.003 3.164A3.49 3.49 0 0 1 31.5 32a3.498 3.498 0 0 1-3.5-3.493V22H14v6.507A3.49 3.49 0 0 1 10.5 32a3.5 3.5 0 0 1-3.497-3.337A3.503 3.503 0 0 1 2 25.497V22H1a1 1 0 0 1 0-2h1v-3.497a3.496 3.496 0 0 1 5.003-3.164A3.49 3.49 0 0 1 10.5 10c1.932 0 3.5 1.565 3.5 3.493V20h14zM9 13.493A1.49 1.49 0 0 1 10.5 12c.828 0 1.5.67 1.5 1.493v15.014A1.49 1.49 0 0 1 10.5 30c-.828 0-1.5-.67-1.5-1.493V13.493zm21 0A1.49 1.49 0 0 1 31.5 12c.828 0 1.5.67 1.5 1.493v15.014A1.49 1.49 0 0 1 31.5 30c-.828 0-1.5-.67-1.5-1.493V13.493zm-26 3.01C4 15.669 4.666 15 5.5 15c.828 0 1.5.673 1.5 1.503v8.994C7 26.331 6.334 27 5.5 27c-.828 0-1.5-.673-1.5-1.503v-8.994zm31 0c0-.834.666-1.503 1.5-1.503.828 0 1.5.673 1.5 1.503v8.994c0 .834-.666 1.503-1.5 1.503-.828 0-1.5-.673-1.5-1.503v-8.994z"/></svg>