<svg viewBox="0 0 36 36" xmlns="http://www.w3.org/2000/svg" fill-rule="evenodd" clip-rule="evenodd" stroke-linejoin="round" stroke-miterlimit="1.414"><path d="M31 8c2.761 0 5 2.242 5 5.005V31.001C36 33.743 33.743 36 31.001 36H5c-2.761 0-5-2.242-5-5.006V13.005v-.007C0 10.256 2.256 8 4.998 8H31zm1.517 25.589l-9.875-11.618-2.507 2.359a3.15 3.15 0 0 1-4.27 0l-2.507-2.359-9.874 11.617C3.929 33.85 4.447 34 5 34h26c.554 0 1.072-.15 1.517-.411zM24.1 20.598l9.718 11.433c.118-.323.182-.672.182-1.037V13.005a2.996 2.996 0 0 0-.345-1.4L24.1 20.598zM2.344 11.604A2.999 2.999 0 0 0 2 13.005v17.989c0 .364.065.713.183 1.036L11.9 20.598l-9.556-8.994zm29.84-1.361A2.994 2.994 0 0 0 31 10H5c-.421 0-.821.086-1.185.242l13.421 12.632c.432.39 1.096.39 1.528 0l2.581-2.429 1.458-1.373 9.381-8.829z"/></svg>
