<svg width="100%" height="100%" viewBox="0 0 36 36" version="1.1" xmlns="http://www.w3.org/2000/svg" xmlns:xlink="http://www.w3.org/1999/xlink" xml:space="preserve" style="fill-rule:evenodd;clip-rule:evenodd;stroke-linejoin:round;stroke-miterlimit:1.41421;"><path id="my-bb" d="M9,4l0,0c0,-1.106 0.893,-2 2.001,-2c0,0 2.866,0 3.534,0c0.701,-1.214 2.008,-2 3.465,-2c1.457,0 2.764,0.786 3.465,2c0.868,0 3.534,0 3.534,0c1.106,0 2.001,0.892 2.001,2l0,0l3.008,0c1.651,0 2.992,1.344 2.992,2.992l0,26.016c0,1.65 -1.345,2.992 -2.991,2.992l-24.018,0c-1.65,0 -2.991,-1.344 -2.991,-2.992l0,-26.016c0,-1.652 1.341,-2.992 2.991,-2.992l3.009,0ZM27,6l0,1c0,1.106 -0.893,2 -2.001,2l-13.998,0c-1.106,0 -2.001,-0.892 -2.001,-2l0,-1l-3.009,0c-0.546,0 -0.991,0.445 -0.991,0.992l0,26.016c0,0.545 0.446,0.992 0.991,0.992l24.018,0c0.542,0 0.991,-0.447 0.991,-0.992l0,-26.016c0,-0.544 -0.447,-0.992 -0.992,-0.992l-3.008,0ZM26.007,30l-16.014,0c-0.548,0 -0.993,-0.444 -0.993,-1c0,-0.552 0.445,-1 0.993,-1l16.014,0c0.548,0 0.993,0.444 0.993,1c0,0.552 -0.445,1 -0.993,1ZM26.007,26l-16.014,0c-0.548,0 -0.993,-0.444 -0.993,-1c0,-0.552 0.445,-1 0.993,-1l16.014,0c0.548,0 0.993,0.444 0.993,1c0,0.552 -0.445,1 -0.993,1ZM22.5,18l-9,0l0,2.502c0,0.551 -0.444,0.998 -1,0.998c-0.552,0 -1,-0.446 -1,-0.998l0,-7.004c0,-0.551 0.444,-0.998 1,-0.998c0.552,0 1,0.446 1,0.998l0,2.502l9,0l0,-2.502c0,-0.552 0.448,-0.998 1,-0.998c0.556,0 1,0.447 1,0.998l0,7.004c0,0.552 -0.448,0.998 -1,0.998c-0.556,0 -1,-0.447 -1,-0.998l0,-2.502ZM8.5,14.991c0,-0.547 0.444,-0.991 1,-0.991c0.552,0 1,0.451 1,0.991l0,4.018c0,0.547 -0.444,0.991 -1,0.991c-0.552,0 -1,-0.451 -1,-0.991l0,-4.018ZM27.5,14.991c0,-0.547 -0.444,-0.991 -1,-0.991c-0.552,0 -1,0.451 -1,0.991l0,4.018c0,0.547 0.444,0.991 1,0.991c0.552,0 1,-0.451 1,-0.991l0,-4.018ZM25,4c0,0 -0.001,0 -0.001,0l-4.17,0c-0.424,0 -0.801,-0.267 -0.943,-0.667c-0.28,-0.792 -1.031,-1.333 -1.886,-1.333c-0.855,0 -1.606,0.541 -1.886,1.333c-0.142,0.4 -0.519,0.667 -0.943,0.667l-4.17,0c-0.001,0 -0.001,0 -0.001,0l0,0c0,-0.001 -0.001,0 0,0l0,3c-0.001,0 0,0.002 0,0l0,0l0,0l0.001,0l13.998,0l0.001,0c0,0.001 0.001,0 0,0l0,-3c0.001,0 0,-0.002 0,0l0,0Z"/></svg>
