<svg viewBox="0 0 138 120" xmlns="http://www.w3.org/2000/svg" fill-rule="evenodd" clip-rule="evenodd" stroke-linejoin="round" stroke-miterlimit="1.414"><path d="M138 101.5a1.5 1.5 0 0 0-1.5-1.5H1.5a1.5 1.5 0 0 0-1.5 1.5v3a1.5 1.5 0 0 0 1.5 1.5h135a1.5 1.5 0 0 0 1.5-1.5v-3z" fill="#dddfe3"/><path d="M14.5 86c1.932 0 3.5 1.568 3.5 3.5v27c0 1.932-1.568 3.5-3.5 3.5h-2a3.501 3.501 0 0 1-3.5-3.5v-27c0-1.932 1.568-3.5 3.5-3.5h2zm111 0c1.932 0 3.5 1.568 3.5 3.5v27c0 1.932-1.568 3.5-3.5 3.5h-2a3.501 3.501 0 0 1-3.5-3.5v-27c0-1.932 1.568-3.5 3.5-3.5h2z" fill="#929496"/><path d="M7.5 93A1.5 1.5 0 0 1 9 94.5v17a1.5 1.5 0 0 1-1.5 1.5h-3a1.5 1.5 0 0 1-1.5-1.5v-17A1.5 1.5 0 0 1 4.5 93h3zm126 0a1.5 1.5 0 0 1 1.5 1.5v17a1.5 1.5 0 0 1-1.5 1.5h-3a1.5 1.5 0 0 1-1.5-1.5v-17a1.5 1.5 0 0 1 1.5-1.5h3z" fill="#797b7d"/><path d="M30 91h78V69L72.204 40.806c-1.869-1.461-4.902-1.459-6.769 0L30 69v22z" fill="#dcd6c6"/><path d="M98 49a2 2 0 0 0-2-2H42a2 2 0 0 0-2 2v65a2 2 0 0 0 2 2h54a2 2 0 0 0 2-2V49z" fill="#faf7eb"/><path d="M87.5 84a1.5 1.5 0 0 1 0 3h-37a1.5 1.5 0 0 1 0-3h37zm0-6a1.5 1.5 0 0 1 0 3h-37a1.5 1.5 0 0 1 0-3h37z" fill="#d1cdbc"/><path d="M69 59.129c-6.046-3.199-9.591.914-8.919 5.91.672 4.995 4.888 8.271 8.919 6.453V59.129z" fill="#ff7373"/><path d="M69 59.129c6.046-3.199 9.591.914 8.919 5.91-.672 4.995-4.888 8.271-8.919 6.453V59.129z" fill="#ff5959"/><path d="M65 52c0 2 1 5 5 5 0-4-2-4-5-5z" fill="#a3d95d"/><path d="M62.687.001a51.075 51.075 0 0 1 6.557.473c.446.061.891.129 1.334.216.917.182 1.82.434 2.697.757 2.565.944 4.938 2.511 6.629 4.678a11.782 11.782 0 0 1 2.11 4.217c.389 1.469.479 3.008.305 4.515a12.746 12.746 0 0 1-1.267 4.247 12.876 12.876 0 0 1-2.023 2.932 13 13 0 0 1-6.828 3.916 13.163 13.163 0 0 1-6.62-.284 12.986 12.986 0 0 1-7.622-6.286 12.771 12.771 0 0 1-1.263-3.565 12.918 12.918 0 0 1-.232-2.435 12.743 12.743 0 0 1 1.926-6.75l.055-.088c.04-.055.077-.113.12-.166a1.516 1.516 0 0 1 1.07-.534 1.512 1.512 0 0 1 1.373.737 1.506 1.506 0 0 1 .074 1.378c-.051.115-.087.164-.145.258a10.502 10.502 0 0 0-.376.659 9.838 9.838 0 0 0-.674 1.652 9.786 9.786 0 0 0 1.143 8.163 9.986 9.986 0 0 0 6.028 4.273c1.634.395 3.367.375 4.991-.061a9.98 9.98 0 0 0 5.083-3.253 9.762 9.762 0 0 0 2.268-6.014 8.835 8.835 0 0 0-.529-3.293 9.048 9.048 0 0 0-1.855-2.987c-1.417-1.536-3.287-2.614-5.262-3.263a15.152 15.152 0 0 0-1.888-.485 24.738 24.738 0 0 0-1.411-.213 48.39 48.39 0 0 0-2.08-.223 45.198 45.198 0 0 0-9.953.23 43.05 43.05 0 0 0-9.019 2.246 44.33 44.33 0 0 0-5.579 2.505 46.536 46.536 0 0 0-3.517 2.082 49.053 49.053 0 0 0-2.528 1.766c-6.085 4.541-11.088 10.429-15.001 16.912a70.746 70.746 0 0 0-2.006 3.551 74.69 74.69 0 0 0-2.289 4.734 79.094 79.094 0 0 0-2.367 6.031 82.664 82.664 0 0 0-2.362 8.179 84.75 84.75 0 0 0-1.763 10.448l-.035.201c-.021.065-.038.132-.063.195a1.514 1.514 0 0 1-.849.841 1.512 1.512 0 0 1-1.535-.272 1.506 1.506 0 0 1-.508-1.082c-.002-.068.005-.136.008-.204l.088-.809a87.373 87.373 0 0 1 1.924-10.787 85.094 85.094 0 0 1 2.391-8.067c.7-1.99 1.475-3.954 2.326-5.885a77.614 77.614 0 0 1 4.077-7.964c4.233-7.181 9.728-13.69 16.462-18.644a51.77 51.77 0 0 1 3.309-2.242 48.838 48.838 0 0 1 5.094-2.766A45.975 45.975 0 0 1 57.138.291a47.926 47.926 0 0 1 5.549-.29zm19.486 1.191a47.132 47.132 0 0 1 9.803 2.411A48.177 48.177 0 0 1 98.2 6.382a50.33 50.33 0 0 1 4.497 2.718 52.632 52.632 0 0 1 3.489 2.583c6.99 5.633 12.504 12.954 16.54 20.94a75.13 75.13 0 0 1 1.706 3.608c2.572 5.833 4.425 11.978 5.592 18.243a87.834 87.834 0 0 1 .929 6.231c.026.236.065.471.034.709-.024.179-.08.354-.166.514a1.514 1.514 0 0 1-1.518.776 1.505 1.505 0 0 1-1.211-.97c-.056-.152-.056-.194-.083-.352a90.067 90.067 0 0 0-.536-4.034c-.33-2.1-.739-4.187-1.229-6.255a80.681 80.681 0 0 0-1.987-6.992 76.738 76.738 0 0 0-2.061-5.476 72.425 72.425 0 0 0-3.482-7.163c-3.642-6.535-8.37-12.518-14.182-17.258a49.7 49.7 0 0 0-2.799-2.123 47.252 47.252 0 0 0-3.93-2.492 45.103 45.103 0 0 0-6.305-2.963 44.013 44.013 0 0 0-9.736-2.462l-.178-.035c-.057-.019-.116-.035-.172-.057a1.49 1.49 0 0 1-.784-.719 1.471 1.471 0 0 1-.123-.34 1.514 1.514 0 0 1 .486-1.474c.184-.157.406-.269.642-.323.157-.036.199-.03.359-.037l.181.013z" fill="#cbcfd4"/><path d="M131.997 77h-4.994A1.005 1.005 0 0 1 126 75.995v-7.906c0-.556.121-1.428.273-1.961l1.478-5.173c.151-.527.722-.955 1.279-.955h.864c.556 0 1.131.422 1.289.955l1.534 5.173c.156.528.283 1.407.283 1.961v7.906A.997.997 0 0 1 131.997 77zm-121 0H6.003A1.005 1.005 0 0 1 5 75.995v-7.906c0-.556.121-1.428.273-1.961l1.478-5.173c.151-.527.722-.955 1.279-.955h.864c.556 0 1.131.422 1.289.955l1.534 5.173c.156.528.283 1.407.283 1.961v7.906A.997.997 0 0 1 10.997 77z" fill="#8cdfff"/><path d="M41.047 27.705a.444.444 0 0 0 .093-.14.439.439 0 0 0-.267-.577.432.432 0 0 0-.399.069c-.043.033-.079.074-.121.108a1.032 1.032 0 0 1-.509.215 1.007 1.007 0 0 1-1.114-.889 1.004 1.004 0 0 1 .213-.728c.075-.093.166-.174.258-.249a2.432 2.432 0 0 1 3.258.166c.174.173.32.372.434.589.35.665.37 1.475.053 2.157a2.384 2.384 0 0 1-.491.7c-.016.018-.032.036-.046.056a.44.44 0 0 0 .11.604.438.438 0 0 0 .511-.013l.029-.024a2.421 2.421 0 0 1 1.793-.726c.375.014.741.103 1.074.278.216.114.415.261.589.434.173.174.32.373.434.589.349.665.369 1.475.053 2.157a2.447 2.447 0 0 1-.492.7c-.016.018-.032.036-.046.056a.44.44 0 0 0 .223.66.427.427 0 0 0 .398-.069l.029-.024a2.448 2.448 0 0 1 1.793-.726c.375.014.741.104 1.074.279a2.438 2.438 0 0 1 1.023 1.023c.349.665.369 1.475.053 2.156a2.414 2.414 0 0 1-.492.7.478.478 0 0 0-.09.139.439.439 0 0 0 .267.577.432.432 0 0 0 .399-.069c.042-.033.079-.073.121-.108a1.043 1.043 0 0 1 .509-.215 1.01 1.01 0 0 1 1.021.561.994.994 0 0 1-.12 1.056 1.736 1.736 0 0 1-.258.249 2.443 2.443 0 0 1-2.398.39 2.437 2.437 0 0 1-1.504-2.855 2.452 2.452 0 0 1 .645-1.145c.017-.019.034-.037.049-.058a.44.44 0 0 0-.223-.659.435.435 0 0 0-.398.068l-.029.024a2.436 2.436 0 0 1-3.224.218 2.462 2.462 0 0 1-.509-.535 2.453 2.453 0 0 1-.366-1.969 2.421 2.421 0 0 1 .645-1.145c.017-.018.034-.036.049-.057a.44.44 0 0 0-.223-.659.433.433 0 0 0-.399.068l-.028.024a2.445 2.445 0 0 1-1.386.702 2.453 2.453 0 0 1-1.838-.484 2.439 2.439 0 0 1-.509-.535 2.45 2.45 0 0 1-.366-1.969 2.421 2.421 0 0 1 .645-1.145z" fill="#f0c6f8"/><path d="M93.727 25.233c.211.013.418.045.621.104.605.177 1.127.558 1.546 1.021.195.216.372.448.519.699.181.308.316.642.403.989.12.482.143.983.093 1.477a5.969 5.969 0 0 1-.136.774 4.86 4.86 0 0 0 1.214-.554c.945-.606 1.646-1.521 2.297-2.417l.049-.062c.047-.051.058-.065.111-.111a.997.997 0 0 1 .571-.236 1.007 1.007 0 0 1 1.066.84 1.002 1.002 0 0 1-.179.744c-.129.179-.129.178-.26.356-.547.726-1.13 1.43-1.828 2.018a7.07 7.07 0 0 1-1.197.817 6.98 6.98 0 0 1-1.629.619 6.86 6.86 0 0 1-1.094.181l-.04.002c-.079.139-.163.275-.247.411-.082.13-.167.26-.252.388a17.577 17.577 0 0 1-2.383 2.804c-.294.28-.597.551-.914.804a5.897 5.897 0 0 1-.842.578l-.049.025a6.327 6.327 0 0 1-.18.666 7.582 7.582 0 0 1-.402.98 7.816 7.816 0 0 1-1.445 2.001 9.04 9.04 0 0 1-.528.489c-.072.061-.143.124-.22.178a.99.99 0 0 1-.591.18 1.006 1.006 0 0 1-.982-1.018c.004-.183.059-.365.157-.52.043-.067.094-.124.149-.181.102-.091.208-.176.31-.267.263-.238.51-.493.731-.771.27-.34.499-.709.686-1.102l.025-.053c-.067.002-.134.001-.202 0a4.174 4.174 0 0 1-.961-.142 4.096 4.096 0 0 1-1.28-.612 4.906 4.906 0 0 1-.627-.533 4.36 4.36 0 0 1-.715-.924c-.305-.533-.475-1.145-.438-1.761a2.819 2.819 0 0 1 .457-1.371 2.975 2.975 0 0 1 3.342-1.192c.782.232 1.443.764 1.916 1.419.426.592.695 1.277.84 1.988l.007.038c.35-.309.683-.639 1.001-.98.493-.528.951-1.087 1.367-1.678l.057-.082.052-.076a5.127 5.127 0 0 1-.849-.428 4.963 4.963 0 0 1-1.195-1.072 3.854 3.854 0 0 1-.742-1.406c-.108-.395-.145-.807-.108-1.214a3.3 3.3 0 0 1 .89-1.983c.131-.136.275-.26.43-.368a2.72 2.72 0 0 1 .573-.306 2.665 2.665 0 0 1 1.035-.17zm-6.176 8.191a.997.997 0 0 0-.345.074.892.892 0 0 0-.527.569.824.824 0 0 0-.029.237c.005.278.137.541.297.762.096.132.205.254.323.367.319.307.707.543 1.147.622.295.052.593.034.886-.019l.015-.003a3.923 3.923 0 0 0-.14-.977 3.343 3.343 0 0 0-.122-.353 2.868 2.868 0 0 0-.263-.496c-.27-.402-.685-.768-1.192-.783h-.05zm6.053-6.193c-.219.007-.406.141-.539.307-.268.335-.34.801-.228 1.21.073.271.225.505.404.718a2.9 2.9 0 0 0 .852.702c.178.095.364.169.557.225.034-.089.064-.177.094-.267.174-.561.283-1.186.083-1.757a1.633 1.633 0 0 0-.086-.202 2.15 2.15 0 0 0-.364-.504c-.19-.201-.435-.405-.722-.43a.87.87 0 0 0-.051-.002z" fill="#dac6f8" fill-rule="nonzero"/><path d="M26.077 33a6.09 6.09 0 0 1 2.259.472 6.025 6.025 0 0 1 3.325 3.534c.182.518.292 1.061.327 1.61.015.241.036.493-.048.725a.99.99 0 0 1-.486.55 1.01 1.01 0 0 1-1.29-.342 1.053 1.053 0 0 1-.16-.454c-.009-.135-.006-.269-.016-.404a4.05 4.05 0 0 0-.302-1.248 4.038 4.038 0 0 0-2.129-2.129 3.978 3.978 0 0 0-1.096-.288c-.171-.019-.341-.022-.512-.027-.044-.003-.043-.003-.088-.009a1.034 1.034 0 0 1-.482-.206 1.008 1.008 0 0 1 .12-1.65 1.07 1.07 0 0 1 .419-.131c.053-.003.106-.003.159-.003z" fill="#f99" fill-rule="nonzero"/><path d="M114.027 53c.16.008.315.047.456.124a1.007 1.007 0 0 1 .34 1.444 1.004 1.004 0 0 1-.652.417c-.108.019-.217.015-.326.019-.077.005-.076.005-.153.012a3.076 3.076 0 0 0-.859.219 3.028 3.028 0 0 0-1.651 1.734 2.989 2.989 0 0 0-.166.723c-.014.133-.011.267-.02.4a1.042 1.042 0 0 1-.199.512 1.008 1.008 0 0 1-1.178.321 1.013 1.013 0 0 1-.53-.513 1.035 1.035 0 0 1-.089-.425c.002-.122.002-.121.006-.243a5.062 5.062 0 0 1 .341-1.578 5.03 5.03 0 0 1 1.291-1.867 4.985 4.985 0 0 1 3.106-1.293c.094-.003.188-.006.283-.006z" fill="#9cf0ec" fill-rule="nonzero"/><path d="M46.59 12.001a3.497 3.497 0 0 1 3.064 1.981 3.486 3.486 0 0 1 .306 2.05 3.486 3.486 0 0 1-1.045 2.001 3.51 3.51 0 0 1-3.778.691 3.522 3.522 0 0 1-1.791-1.706 3.486 3.486 0 0 1-.306-2.05c.052-.341.156-.675.306-.986a3.497 3.497 0 0 1 3.064-1.981h.18zm-.129 2c-.224.008-.442.06-.643.163-.39.2-.681.57-.78.997a1.528 1.528 0 0 0 .094.955 1.518 1.518 0 0 0 .752.752c.181.082.378.126.577.131a1.48 1.48 0 0 0 1.047-.389 1.503 1.503 0 0 0 .475-1.339 1.516 1.516 0 0 0-.738-1.073 1.53 1.53 0 0 0-.784-.197z" fill="#adc0f8" fill-rule="nonzero"/><path d="M111.103 36.001a4.018 4.018 0 0 1 1.718.437 4.002 4.002 0 0 1-.264 7.247 4 4 0 1 1-1.66-7.684h.206zm-.155 2c-.299.011-.59.081-.857.217a2.02 2.02 0 0 0-1.05 1.378 2.012 2.012 0 0 0 .156 1.27 2.007 2.007 0 0 0 2.58.977 2.007 2.007 0 0 0 1.2-1.538c.036-.234.03-.476-.018-.709a2.016 2.016 0 0 0-1.007-1.355 2.035 2.035 0 0 0-1.004-.24z" fill="#ffef73" fill-rule="nonzero"/><path d="M27.062 49.002a1.002 1.002 0 0 1 .863.617c.034.093.065.187.099.281.058.162.065.179.129.35.124.326.255.649.398.967.142.314.293.625.47.921.066.11.135.218.212.321.048.065.1.129.159.185.109.102.235.187.361.266a7.1 7.1 0 0 0 .635.349c.255.126.515.243.778.353.382.16.769.308 1.16.443l.059.022c.156.071.292.167.399.302a1.01 1.01 0 0 1-.031 1.28c-.099.112-.22.194-.354.258-.151.06-.304.113-.455.171-.356.138-.71.281-1.059.436a11.56 11.56 0 0 0-1.009.503c-.111.063-.22.13-.325.204-.062.044-.124.09-.178.144a2.327 2.327 0 0 0-.284.364 6.1 6.1 0 0 0-.322.56c-.128.25-.244.505-.353.763-.122.289-.234.583-.339.878-.05.142-.094.285-.145.427l-.024.057c-.076.15-.176.28-.312.38a1.008 1.008 0 0 1-1.261-.059 1.065 1.065 0 0 1-.252-.35c-.059-.15-.111-.301-.167-.451a23.054 23.054 0 0 0-.432-1.054 11.24 11.24 0 0 0-.502-1.007 3.716 3.716 0 0 0-.206-.326 1.378 1.378 0 0 0-.149-.184 2.248 2.248 0 0 0-.357-.278 6.09 6.09 0 0 0-.56-.321c-.25-.128-.507-.245-.766-.354-.29-.123-.585-.237-.883-.343-.142-.051-.287-.096-.429-.148l-.058-.025a1.062 1.062 0 0 1-.38-.314 1.01 1.01 0 0 1 .07-1.265c.1-.109.22-.188.354-.248.093-.036.188-.067.282-.101.163-.059.181-.066.353-.131.327-.125.652-.257.971-.402.315-.141.626-.293.922-.47.109-.065.217-.134.319-.21a1.35 1.35 0 0 0 .182-.156 2.35 2.35 0 0 0 .27-.366c.129-.204.243-.418.35-.635.126-.254.242-.513.351-.775.159-.38.305-.765.438-1.154l.022-.059a1.004 1.004 0 0 1 .862-.616c.062-.002.062-.002.124 0zm-.08 3.643c-.259.495-.543.997-.942 1.396a4.01 4.01 0 0 1-.657.517 8.249 8.249 0 0 1-.766.435c.129.065.256.135.382.206.395.229.785.486 1.1.821.167.178.312.378.444.584.162.253.307.518.442.787.053-.104.108-.204.164-.307.241-.425.512-.846.87-1.182.379-.355.844-.61 1.301-.848l.093-.047a12.408 12.408 0 0 1-.361-.19 12.352 12.352 0 0 1-.293-.17 4.378 4.378 0 0 1-.799-.606c-.399-.399-.683-.901-.942-1.397L27 52.608l-.018.037z" fill="#c4f097" fill-rule="nonzero"/><path d="M91.071 11.003a1.031 1.031 0 0 1 .602.257 92.393 92.393 0 0 1 3.067 3.067 1.004 1.004 0 0 1 0 1.346 92.393 92.393 0 0 1-3.067 3.067 1.004 1.004 0 0 1-1.346 0 92.393 92.393 0 0 1-3.067-3.067 1.004 1.004 0 0 1 0-1.346 92.393 92.393 0 0 1 3.067-3.067c.122-.105.259-.184.414-.226a1.19 1.19 0 0 1 .188-.031c.048-.003.094-.003.142 0zM89.414 15L91 16.586 92.586 15 91 13.414 89.414 15z" fill="#ffcf8c" fill-rule="nonzero"/><path d="M30 69l39 31 39-31v48.167c0 1.565-1.289 2.833-2.892 2.833H32.892c-1.597 0-2.892-1.261-2.892-2.833V69z" fill="#e6e0cf"/><path d="M75.495 90c.831 0 1.991.47 2.578 1.038l29.076 28.138a2.914 2.914 0 0 1-2.041.824H32.892a2.916 2.916 0 0 1-2.041-.823l29.076-28.139c.593-.573 1.74-1.038 2.578-1.038h12.99z" fill="#f0ead8"/></svg>