<svg xmlns="http://www.w3.org/2000/svg" viewBox="0 0 36 36">
  <path d="M32.6195122,0.175609756 L3.3804878,0.175609756 C1.62439024,0.175609756 0.175609756,1.62439024 0.175609756,3.3804878 L0.175609756,32.6634146 C0.175609756,34.4195122 1.62439024,35.8682927 3.3804878,35.8682927 L32.6634146,35.8682927 C34.4195122,35.8682927 35.8682927,34.4195122 35.8682927,32.6634146 L35.8682927,3.3804878 C35.8243902,1.5804878 34.4195122,0.175609756 32.6195122,0.175609756 Z M3.3804878,2.89756098 L32.6634146,2.89756098 C32.9268293,2.89756098 33.102439,3.11707317 33.102439,3.33658537 L33.102439,23.795122 L24.4536585,15.1902439 C23.9268293,14.6634146 23.0487805,14.6634146 22.5219512,15.1902439 L14.3560976,23.3560976 L11.6780488,20.6780488 C11.1512195,20.1512195 10.2731707,20.1512195 9.74634146,20.6780488 L2.89756098,27.4829268 L2.89756098,3.33658537 C2.89756098,3.11707317 3.11707317,2.89756098 3.3804878,2.89756098 Z M2.89756098,32.6195122 L2.89756098,31.3463415 L10.6682927,23.5756098 L20.195122,33.102439 L3.3804878,33.102439 C3.11707317,33.102439 2.89756098,32.8829268 2.89756098,32.6195122 Z M32.6195122,33.102439 L24.0585366,33.102439 L16.2878049,25.3317073 L23.4878049,18.1317073 L33.102439,27.7463415 L33.102439,32.6634146 C33.102439,32.8829268 32.8829268,33.102439 32.6195122,33.102439 Z M13.4341463,13.8731707 C12.1733207,13.8731707 11.1512195,12.8510696 11.1512195,11.5902439 C11.1512195,10.3294182 12.1733207,9.30731707 13.4341463,9.30731707 C14.694972,9.30731707 15.7170732,10.3294182 15.7170732,11.5902439 C15.7170732,12.8510696 14.694972,13.8731707 13.4341463,13.8731707 Z"/>
</svg>
