<svg viewBox="0 0 36 36" xmlns="http://www.w3.org/2000/svg" fill-rule="evenodd" clip-rule="evenodd" stroke-linejoin="round" stroke-miterlimit="1.414"><path d="M18.116 9.001a8.944 8.944 0 0 1 3.687.841 9.072 9.072 0 0 1 4.26 4.159 8.92 8.92 0 0 1 .796 2.408 8.971 8.971 0 0 1-.748 5.492 9.03 9.03 0 0 1-4.71 4.433 9.014 9.014 0 0 1-6.802 0 9.039 9.039 0 0 1-4.71-4.433 8.971 8.971 0 0 1-.748-5.492 8.92 8.92 0 0 1 .796-2.408 9.072 9.072 0 0 1 4.26-4.159 8.944 8.944 0 0 1 3.687-.841h.232zm6.459 11.405l-2.469-1.235L18.6 21.8l-.063.044a1 1 0 0 1-1.092-.012l-2.517-1.678-2.922 1.461a7.046 7.046 0 0 0 3.271 2.835 7.01 7.01 0 0 0 5.288.065 7.028 7.028 0 0 0 4.01-4.109zm.415-2.029a6.943 6.943 0 0 0-.756-3.562 7.073 7.073 0 0 0-3.125-3.088 6.965 6.965 0 0 0-2.838-.722c-.121-.004-.241-.005-.362-.004a6.943 6.943 0 0 0-2.865.653 7.067 7.067 0 0 0-3.239 3.086 6.962 6.962 0 0 0-.749 4.152c.038.296.095.589.17.877l3.327-1.663.068-.031a1.012 1.012 0 0 1 .934.093l2.411 1.607L21.4 17.2l.061-.042c.064-.038.127-.072.198-.098.094-.034.189-.05.288-.059.074-.001.073-.001.147.003.074.01.146.022.217.046.062.02.077.028.136.056l2.543 1.271zM15.5 14a1.5 1.5 0 1 1-.001 3.001A1.5 1.5 0 0 1 15.5 14z"/></svg>
