<svg viewBox="0 0 42 42" xmlns="http://www.w3.org/2000/svg" fill-rule="evenodd" clip-rule="evenodd" stroke-linejoin="round" stroke-miterlimit="1.414"><path d="M35 2c0-1.097-.903-2-2-2H5C3.903 0 3 .903 3 2v38c0 1.097.903 2 2 2h28c1.097 0 2-.903 2-2V2z" fill="#efcd25"/><path d="M37.896 38H10.359c-.992 0-2.359-.582-2.962-1.366 0 0-2.2-1.38-3.525-9.978C3.358 23.314 3 19.087 3 13.938V4h32s-.059 10.84 0 11.348c.189 17.649 3.675 21.315 3.675 21.315.456.738.113 1.337-.779 1.337zM9 30c0-.552.444-1 1-1 .552 0 1 .444 1 1 0 .552-.444 1-1 1-.552 0-1-.444-1-1zm18.999 1h.002c.548 0 .999-.451.999-.999V30c0-.556-.448-1-1.001-1h-14c-.548 0-.999.451-.999.999V30c0 .556.448 1 1.001 1h13.998zM9 24c0-.552.444-1 1-1 .552 0 1 .444 1 1 0 .552-.444 1-1 1-.552 0-1-.444-1-1zm18.999 1h.002c.548 0 .999-.451.999-.999V24c0-.556-.448-1-1.001-1h-14c-.548 0-.999.451-.999.999V24c0 .556.448 1 1.001 1h13.998zm-9.276-6c-.268 0-.503-.087-.703-.261-.201-.174-.301-.417-.301-.73a.938.938 0 0 1 .291-.7.984.984 0 0 1 .713-.284.953.953 0 0 1 .7.284c.19.189.284.423.284.7 0 .308-.099.551-.297.727a1.003 1.003 0 0 1-.687.264zM15.5 11.761c0-.418.134-.842.403-1.272.269-.429.66-.784 1.176-1.066.515-.282 1.116-.423 1.803-.423.638 0 1.202.118 1.691.353.488.236.866.556 1.132.961.267.406.4.846.4 1.321 0 .375-.076.703-.228.985a2.997 2.997 0 0 1-.541.729c-.21.205-.585.55-1.127 1.034a5.094 5.094 0 0 0-.36.36 1.332 1.332 0 0 0-.303.542c-.04.15-.077.3-.109.452-.084.458-.346.687-.786.687a.803.803 0 0 1-.578-.225c-.157-.149-.235-.372-.235-.667 0-.37.057-.69.172-.961.114-.27.266-.508.456-.713.189-.205.444-.448.766-.73.282-.246.485-.432.611-.558.125-.125.231-.265.317-.419.086-.155.129-.322.129-.502 0-.353-.131-.65-.393-.892s-.6-.363-1.014-.363c-.485 0-.841.122-1.07.366-.229.245-.423.605-.581 1.08-.15.498-.434.747-.853.747a.84.84 0 0 1-.624-.261c-.169-.174-.254-.363-.254-.565z" fill="#fada4b"/></svg>