<svg width="100%" height="100%" viewBox="0 0 36 36" version="1.1" xmlns="http://www.w3.org/2000/svg" xmlns:xlink="http://www.w3.org/1999/xlink" xml:space="preserve" style="fill-rule:evenodd;clip-rule:evenodd;stroke-linejoin:round;stroke-miterlimit:1.41421;"><path id="profile" d="M18,35.999l-0.004,0c-0.414,-0.002 -0.827,-0.014 -1.239,-0.042c-0.384,-0.026 -0.766,-0.064 -1.147,-0.115c-0.042,-0.006 -0.084,-0.011 -0.126,-0.017c-0.137,-0.019 -0.273,-0.04 -0.409,-0.062c-0.246,-0.041 -0.492,-0.086 -0.736,-0.136c-0.768,-0.159 -1.524,-0.368 -2.264,-0.626c0,0 -0.002,-0.001 -0.002,-0.001l-0.024,-0.008l-0.006,-0.002l-0.006,-0.002l-0.017,-0.006l-0.006,-0.003l-0.003,-0.001c-0.481,-0.169 -0.954,-0.359 -1.419,-0.569c-0.119,-0.054 -0.237,-0.109 -0.355,-0.165l-0.008,-0.004l-0.003,-0.002l-0.007,-0.003l-0.009,-0.004l-0.014,-0.007l-0.017,-0.008l-0.002,-0.001c-0.105,-0.051 -0.21,-0.103 -0.314,-0.156c-0.092,-0.046 -0.182,-0.093 -0.273,-0.141c-0.571,-0.303 -1.126,-0.636 -1.661,-0.998c-0.026,-0.018 -0.053,-0.035 -0.079,-0.053l-0.716,-0.495l0.005,-0.018c-0.487,-0.368 -0.954,-0.761 -1.401,-1.177c-1.426,-1.327 -2.635,-2.885 -3.565,-4.597c-0.842,-1.551 -1.453,-3.225 -1.807,-4.954c-0.398,-1.942 -0.471,-3.951 -0.221,-5.918c0.233,-1.837 0.753,-3.636 1.537,-5.315c0.917,-1.965 2.193,-3.758 3.744,-5.273c1.605,-1.567 3.501,-2.831 5.567,-3.705c2.14,-0.905 4.452,-1.384 6.775,-1.414c2.331,-0.029 4.663,0.392 6.832,1.248c2.089,0.824 4.018,2.043 5.662,3.573c1.585,1.476 2.902,3.237 3.866,5.177c0.822,1.655 1.385,3.435 1.664,5.261c0.3,1.961 0.275,3.972 -0.073,5.925c-0.312,1.741 -0.882,3.435 -1.689,5.01c-0.889,1.735 -2.061,3.322 -3.456,4.684c-0.539,0.527 -1.112,1.02 -1.713,1.475l0.005,0.018c-0.376,0.26 -0.749,0.524 -1.133,0.772c-0.543,0.349 -1.104,0.669 -1.681,0.958l-0.002,0.001c-0.013,0.007 -0.026,0.013 -0.039,0.019l-0.002,0.001l-0.005,0.003l-0.017,0.008l-0.009,0.005l-0.01,0.005l-0.01,0.005l-0.008,0.004l-0.008,0.004l-0.015,0.007l-0.01,0.005l-0.004,0.002l-0.006,0.003l-0.021,0.01l-0.01,0.005c-0.024,0.012 -0.048,0.023 -0.072,0.035c-1.413,0.681 -2.916,1.174 -4.457,1.465c-0.001,0 -0.002,0 -0.002,0l-0.029,0.005l-0.009,0.002c-0.001,0 -0.004,0.001 -0.004,0.001l-0.026,0.005l-0.01,0.001l-0.002,0.001l-0.003,0l-0.025,0.005l-0.01,0.002l-0.002,0l-0.004,0.001l-0.023,0.004l-0.011,0.002l-0.003,0l-0.004,0.001l-0.021,0.004l-0.013,0.002l-0.002,0.001l-0.005,0l-0.019,0.004l-0.014,0.002l-0.003,0.001l-0.004,0l-0.018,0.004l-0.016,0.002l-0.003,0.001l-0.003,0l-0.018,0.003l-0.016,0.003l-0.003,0.001l-0.004,0l-0.016,0.003l-0.018,0.003l-0.003,0.001l-0.003,0l-0.015,0.003l-0.021,0.003l-0.002,0l-0.001,0l-0.015,0.003l-0.024,0.004c-0.001,0 -0.001,0 -0.001,0l-0.014,0.002l-0.024,0.004l-0.002,0l-0.001,0.001l-0.011,0.001l-0.023,0.004l-0.006,0.001l-0.003,0l-0.007,0.001l-0.018,0.003l-0.013,0.002l-0.005,0.001l-0.003,0l-0.009,0.002c-0.674,0.103 -1.352,0.166 -2.034,0.195c-0.087,0.003 -0.174,0.007 -0.262,0.01l-0.052,0c-0.018,0.001 -0.036,0.001 -0.055,0.002c-0.177,0.003 -0.178,0.003 -0.353,0.003l-0.004,0ZM28.208,30.32c0.236,-0.196 0.467,-0.398 0.691,-0.607c1.268,-1.18 2.343,-2.565 3.17,-4.088c0.748,-1.377 1.291,-2.864 1.606,-4.4c0.353,-1.728 0.418,-3.515 0.196,-5.264c-0.207,-1.633 -0.669,-3.231 -1.365,-4.722c-0.816,-1.747 -1.95,-3.341 -3.329,-4.688c-1.427,-1.393 -3.113,-2.517 -4.95,-3.294c-1.901,-0.804 -3.956,-1.23 -6.02,-1.256c-2.072,-0.026 -4.145,0.348 -6.074,1.108c-1.857,0.733 -3.571,1.817 -5.032,3.177c-1.41,1.313 -2.581,2.878 -3.438,4.603c-0.73,1.47 -1.231,3.051 -1.478,4.673c-0.267,1.744 -0.245,3.534 0.065,5.271c0.277,1.547 0.784,3.051 1.5,4.45c0.79,1.543 1.833,2.954 3.073,4.165c0.311,0.304 0.634,0.595 0.969,0.872c0.041,-0.096 0.084,-0.192 0.129,-0.287c0.539,-1.143 1.343,-2.218 2.466,-2.84c0.159,-0.089 0.324,-0.166 0.494,-0.234c0.332,-0.133 0.678,-0.233 1.025,-0.317c0.418,-0.103 0.842,-0.182 1.267,-0.249c0.176,-0.027 0.352,-0.052 0.528,-0.074c0.073,-0.009 0.147,-0.015 0.22,-0.029c0.044,-0.009 0.088,-0.021 0.132,-0.035c0.527,-0.182 0.94,-0.697 0.947,-1.262l0,-1.666c-0.696,-0.331 -1.337,-0.777 -1.89,-1.316c-0.747,-0.728 -1.327,-1.623 -1.685,-2.603c-0.272,-0.745 -0.409,-1.529 -0.424,-2.321c-0.009,-1.421 -0.026,-2.843 0.001,-4.264c0.009,-0.267 0.029,-0.533 0.066,-0.798c0.08,-0.573 0.232,-1.135 0.451,-1.67c0.469,-1.146 1.245,-2.159 2.228,-2.912c0.674,-0.517 1.442,-0.911 2.256,-1.153c0.705,-0.21 1.442,-0.306 2.177,-0.288c0.787,0.02 1.57,0.172 2.306,0.452c0.817,0.31 1.574,0.774 2.22,1.362c0.666,0.604 1.213,1.336 1.603,2.146c0.287,0.597 0.489,1.234 0.597,1.887c0.053,0.322 0.081,0.647 0.092,0.973c0.026,1.422 0.01,2.843 0.001,4.265c-0.015,0.791 -0.152,1.574 -0.425,2.318c-0.34,0.927 -0.878,1.778 -1.568,2.484c-0.581,0.595 -1.267,1.084 -2.018,1.44c-0.006,0.576 -0.008,1.151 0.013,1.725c0.037,0.589 0.501,1.131 1.084,1.238c0.067,0.011 0.136,0.016 0.202,0.025c0.15,0.019 0.169,0.022 0.326,0.044c0.543,0.082 1.084,0.178 1.616,0.315c0.393,0.101 0.786,0.222 1.153,0.397c1.075,0.512 1.885,1.453 2.451,2.48c0.087,0.157 0.169,0.318 0.246,0.48c0.045,0.095 0.088,0.191 0.129,0.287ZM17.63,33.995c0.165,0.003 0.179,0.003 0.37,0.004c0.225,-0.001 0.45,-0.006 0.674,-0.016c0.776,-0.033 1.547,-0.118 2.311,-0.261c0.925,-0.175 1.835,-0.432 2.715,-0.768l0.005,-0.002l0.023,-0.009l0.022,-0.008l0.006,-0.002c0.314,-0.121 0.623,-0.252 0.928,-0.392l0.004,-0.002l0.018,-0.008l0.019,-0.009l0.011,-0.005c0.119,-0.056 0.238,-0.113 0.356,-0.171l0.012,-0.006l0.018,-0.009c0.457,-0.228 0.901,-0.479 1.336,-0.747c0.026,-0.017 0.053,-0.034 0.08,-0.051c-0.242,-0.652 -0.554,-1.286 -1.001,-1.824c-0.274,-0.33 -0.6,-0.622 -0.985,-0.815c-0.128,-0.065 -0.263,-0.114 -0.399,-0.159c-0.214,-0.07 -0.432,-0.127 -0.651,-0.178c-0.55,-0.127 -1.109,-0.216 -1.669,-0.28c-0.08,-0.013 -0.08,-0.012 -0.16,-0.027c-0.316,-0.066 -0.62,-0.173 -0.905,-0.328c-0.785,-0.428 -1.389,-1.173 -1.64,-2.032c-0.084,-0.288 -0.124,-0.584 -0.128,-0.884l0,-1.006l-0.997,0l-0.003,0l-0.002,0l-0.998,0c0,0.359 0.004,0.718 -0.001,1.076c-0.011,0.302 -0.059,0.599 -0.152,0.886c-0.282,0.874 -0.931,1.619 -1.755,2.023c-0.269,0.132 -0.552,0.223 -0.846,0.279c-0.193,0.032 -0.388,0.051 -0.582,0.078c-0.469,0.071 -0.937,0.152 -1.396,0.271c-0.268,0.069 -0.539,0.147 -0.79,0.266c-0.379,0.181 -0.704,0.466 -0.975,0.783c-0.468,0.547 -0.792,1.2 -1.041,1.871c0.092,0.058 0.185,0.116 0.278,0.172l0.042,0.025c0.038,0.023 0.076,0.046 0.114,0.068c0.441,0.257 0.892,0.497 1.355,0.713c1.101,0.513 2.26,0.898 3.449,1.148c0.965,0.201 1.945,0.309 2.93,0.336ZM18,22c0.565,-0.004 1.125,-0.095 1.659,-0.283c0.703,-0.248 1.347,-0.656 1.874,-1.183c0.513,-0.513 0.913,-1.136 1.163,-1.818c0.195,-0.531 0.293,-1.09 0.303,-1.655c0.009,-1.396 0.026,-2.792 -0.001,-4.188c-0.022,-0.708 -0.183,-1.404 -0.491,-2.043c-0.278,-0.579 -0.67,-1.102 -1.145,-1.534c-0.462,-0.419 -1.002,-0.751 -1.585,-0.972c-0.526,-0.2 -1.085,-0.308 -1.647,-0.322c-0.546,-0.014 -1.093,0.06 -1.614,0.223c-0.56,0.174 -1.087,0.448 -1.552,0.805c-0.719,0.551 -1.284,1.296 -1.617,2.139c-0.223,0.564 -0.335,1.163 -0.347,1.769c-0.008,1.396 -0.025,2.793 0.002,4.189c0.018,0.564 0.122,1.122 0.323,1.651c0.488,1.286 1.512,2.334 2.785,2.853c0.48,0.196 0.987,0.312 1.504,0.354c0.129,0.009 0.257,0.014 0.386,0.015ZM17.972,19.9c-0.334,-0.003 -0.664,-0.043 -0.986,-0.13c-0.782,-0.21 -1.486,-0.675 -1.989,-1.309c-0.105,-0.133 -0.201,-0.272 -0.288,-0.417c-0.053,-0.09 -0.107,-0.182 -0.144,-0.28c-0.058,-0.152 -0.077,-0.318 -0.057,-0.479c0.015,-0.117 0.05,-0.231 0.104,-0.336c0.048,-0.092 0.11,-0.176 0.183,-0.249c0.299,-0.297 0.767,-0.374 1.146,-0.188c0.161,0.079 0.292,0.2 0.394,0.347c0.049,0.078 0.091,0.161 0.141,0.238c0.141,0.208 0.32,0.387 0.532,0.522c0.427,0.273 0.961,0.351 1.449,0.215c0.172,-0.049 0.336,-0.123 0.486,-0.22c0.21,-0.135 0.391,-0.315 0.528,-0.524c0.065,-0.097 0.112,-0.203 0.169,-0.304c0.024,-0.038 0.024,-0.037 0.049,-0.074c0.108,-0.142 0.244,-0.257 0.409,-0.329c0.094,-0.041 0.195,-0.068 0.298,-0.078c0.42,-0.043 0.832,0.191 1.009,0.574c0.05,0.107 0.08,0.223 0.09,0.341c0.01,0.132 -0.006,0.266 -0.047,0.392c-0.034,0.103 -0.085,0.199 -0.136,0.294c-0.084,0.155 -0.179,0.304 -0.283,0.446c-0.485,0.66 -1.183,1.154 -1.968,1.389c-0.309,0.092 -0.627,0.141 -0.949,0.156c-0.071,0.002 -0.07,0.002 -0.14,0.003Z"/></svg>
