<?xml version="1.0" standalone="no"?><!DOCTYPE svg PUBLIC "-//W3C//DTD SVG 1.1//EN" "http://www.w3.org/Graphics/SVG/1.1/DTD/svg11.dtd"><svg width="100%" height="100%" viewBox="0 0 36 36" version="1.1" xmlns="http://www.w3.org/2000/svg" xmlns:xlink="http://www.w3.org/1999/xlink" xml:space="preserve" style="fill-rule:evenodd;clip-rule:evenodd;stroke-linejoin:round;stroke-miterlimit:1.41421;"><g id="Meh-Copy"><circle id="face" cx="18" cy="18" r="18" style="fill:#ffdb38;"/><path id="shadow-copy" d="M36,18c0,9.941 -8.059,18 -18,18c-9.941,0 -18,-8.059 -18,-18c0,-0.336 0.009,-0.669 0.027,-1l35.946,0c0.018,0.331 0.027,0.664 0.027,1ZM18,34c-9.606,0 -17.454,-7.524 -17.973,-17l35.946,0c-0.519,9.476 -8.367,17 -17.973,17Z" style="fill:#f2d035;"/><path d="M6.164,24.486c0.076,-0.012 0.257,-0.037 0.556,-0.07c0.512,-0.057 1.166,-0.114 1.972,-0.168c2.32,-0.155 5.392,-0.248 9.308,-0.248c3.916,0 6.988,0.093 9.308,0.248c0.806,0.054 1.46,0.111 1.972,0.168c0.299,0.033 0.48,0.058 0.556,0.07c0.544,0.091 1.06,-0.277 1.15,-0.822c0.091,-0.544 -0.277,-1.06 -0.822,-1.15c-0.112,-0.019 -0.329,-0.049 -0.663,-0.086c-0.542,-0.06 -1.225,-0.12 -2.059,-0.176c-2.367,-0.158 -5.483,-0.252 -9.442,-0.252c-3.959,0 -7.075,0.094 -9.442,0.252c-0.834,0.056 -1.517,0.116 -2.059,0.176c-0.334,0.037 -0.551,0.067 -0.663,0.086c-0.545,0.09 -0.913,0.606 -0.822,1.15c0.09,0.545 0.606,0.913 1.15,0.822ZM13,14c1.104,0 2,0.896 2,2c0,1.104 -0.896,2 -2,2c-1.104,0 -2,-0.896 -2,-2c0,-1.104 0.896,-2 2,-2ZM23,14c1.104,0 2,0.896 2,2c0,1.104 -0.896,2 -2,2c-1.104,0 -2,-0.896 -2,-2c0,-1.104 0.896,-2 2,-2Z" style="fill:#3a3a3a;"/></g></svg>