<?xml version="1.0" standalone="no"?><!DOCTYPE svg PUBLIC "-//W3C//DTD SVG 1.1//EN" "http://www.w3.org/Graphics/SVG/1.1/DTD/svg11.dtd"><svg width="100%" height="100%" viewBox="0 0 36 36" version="1.1" xmlns="http://www.w3.org/2000/svg" xmlns:xlink="http://www.w3.org/1999/xlink" xml:space="preserve" style="fill-rule:evenodd;clip-rule:evenodd;stroke-linejoin:round;stroke-miterlimit:1.41421;"><g id="Great-Copy"><circle id="face" cx="18" cy="18" r="18" style="fill:#ffdb38;"/><path id="shadow" d="M36,18c0,9.941 -8.059,18 -18,18c-9.941,0 -18,-8.059 -18,-18c0,-0.336 0.009,-0.669 0.027,-1l35.946,0c0.018,0.331 0.027,0.664 0.027,1ZM18,34c-9.606,0 -17.454,-7.524 -17.973,-17l35.946,0c-0.519,9.476 -8.367,17 -17.973,17Z" style="fill:#f2d035;"/><path id="Shape" d="M5.064,20.351c0.111,0.296 0.331,0.779 0.674,1.389c0.565,1.004 1.279,2.007 2.157,2.944c2.524,2.692 5.874,4.316 10.105,4.316c4.231,0 7.581,-1.624 10.105,-4.316c0.878,-0.937 1.592,-1.94 2.157,-2.944c0.343,-0.61 0.563,-1.093 0.674,-1.389c0.194,-0.517 -0.068,-1.093 -0.585,-1.287c-0.517,-0.194 -1.093,0.068 -1.287,0.585c-0.077,0.204 -0.255,0.596 -0.545,1.111c-0.49,0.871 -1.112,1.743 -1.874,2.556c-2.164,2.308 -5.001,3.684 -8.645,3.684c-3.644,0 -6.481,-1.376 -8.645,-3.684c-0.762,-0.813 -1.384,-1.685 -1.874,-2.556c-0.29,-0.515 -0.468,-0.907 -0.545,-1.111c-0.194,-0.517 -0.77,-0.779 -1.287,-0.585c-0.517,0.194 -0.779,0.77 -0.585,1.287Z" style="fill:#3a3a3a;"/><path id="Shape1" d="M14.232,17.64l-1.734,-2.073l-1.73,2.073c-0.353,0.424 -0.984,0.482 -1.408,0.128c-0.424,-0.353 -0.482,-0.984 -0.128,-1.408l2.5,-3c0.4,-0.48 1.136,-0.48 1.536,0l2.5,3c0.354,0.424 0.296,1.055 -0.128,1.408c-0.424,0.354 -1.055,0.296 -1.408,-0.128Z" style="fill:#3a3a3a;"/><path id="Shape2" d="M25.232,17.64l-1.734,-2.073l-1.73,2.073c-0.353,0.424 -0.984,0.482 -1.408,0.128c-0.424,-0.353 -0.482,-0.984 -0.128,-1.408l2.5,-3c0.4,-0.48 1.136,-0.48 1.536,0l2.5,3c0.354,0.424 0.296,1.055 -0.128,1.408c-0.424,0.354 -1.055,0.296 -1.408,-0.128Z" style="fill:#3a3a3a;"/></g></svg>