<?xml version="1.0" standalone="no"?><!DOCTYPE svg PUBLIC "-//W3C//DTD SVG 1.1//EN" "http://www.w3.org/Graphics/SVG/1.1/DTD/svg11.dtd"><svg width="100%" height="100%" viewBox="0 0 36 36" version="1.1" xmlns="http://www.w3.org/2000/svg" xmlns:xlink="http://www.w3.org/1999/xlink" xml:space="preserve" style="fill-rule:evenodd;clip-rule:evenodd;stroke-linejoin:round;stroke-miterlimit:1.41421;"><g id="No-good-Copy"><circle id="face" cx="18" cy="18" r="18" style="fill:#ffdb38;"/><path id="shadow-copy-2" d="M36,18c0,9.941 -8.059,18 -18,18c-9.941,0 -18,-8.059 -18,-18c0,-0.336 0.009,-0.669 0.027,-1l35.946,0c0.018,0.331 0.027,0.664 0.027,1ZM18,34c-9.606,0 -17.454,-7.524 -17.973,-17l35.946,0c-0.519,9.476 -8.367,17 -17.973,17Z" style="fill:#f2d035;"/><path id="Shape" d="M25.64,16.232l-2.073,-1.734l2.073,-1.73c0.424,-0.353 0.482,-0.984 0.128,-1.408c-0.353,-0.424 -0.984,-0.482 -1.408,-0.128l-3,2.5c-0.48,0.4 -0.48,1.136 0,1.536l3,2.5c0.424,0.354 1.055,0.296 1.408,-0.128c0.354,-0.424 0.296,-1.055 -0.128,-1.408Z" style="fill:#3a3a3a;"/><path id="Shape1" d="M10.36,16.232l2.073,-1.734l-2.073,-1.73c-0.424,-0.353 -0.482,-0.984 -0.128,-1.408c0.353,-0.424 0.984,-0.482 1.408,-0.128l3,2.5c0.48,0.4 0.48,1.136 0,1.536l-3,2.5c-0.424,0.354 -1.055,0.296 -1.408,-0.128c-0.354,-0.424 -0.296,-1.055 0.128,-1.408Z" style="fill:#3a3a3a;"/><path id="Shape2" d="M8.566,26.608c2.202,-2.837 5.284,-4.608 9.434,-4.608c4.16,0 7.245,1.779 9.447,4.625c0.338,0.437 0.966,0.517 1.403,0.179c0.437,-0.338 0.517,-0.966 0.179,-1.403c-2.556,-3.303 -6.195,-5.401 -11.029,-5.401c-4.823,0 -8.458,2.089 -11.014,5.382c-0.339,0.436 -0.259,1.064 0.177,1.403c0.436,0.339 1.064,0.26 1.403,-0.177Z" style="fill:#3a3a3a;"/></g></svg>