<svg viewBox="0 0 36 36" xmlns="http://www.w3.org/2000/svg" fill-rule="evenodd" clip-rule="evenodd" stroke-linejoin="round" stroke-miterlimit="1.414"><path d="M30.009 0A2.993 2.993 0 0 1 33 3v30a3 3 0 0 1-2.991 3H5.991A2.993 2.993 0 0 1 3 33V3a3 3 0 0 1 2.991-3h24.018zM16 2v17c0 .961-1.223 1.369-1.8.6L12 16.667 9.8 19.6c-.577.769-1.8.361-1.8-.6V2H5.991C5.45 2 5 2.45 5 3v30c0 .555.443 1 .991 1h24.018c.541 0 .991-.45.991-1V3c0-.555-.443-1-.991-1H16zm-2 0h-4v14l1.2-1.6a1 1 0 0 1 1.6 0L14 16V2z"/></svg>