<svg class="icon" width="100%" height="100%" viewBox="0 0 36 36" version="1.1" xmlns="http://www.w3.org/2000/svg" xmlns:xlink="http://www.w3.org/1999/xlink" xml:space="preserve" style="fill-rule:evenodd;clip-rule:evenodd;stroke-linejoin:round;stroke-miterlimit:1.41421;"><path id="reading" d="M32.5,36l-29.001,0c-1.938,0 -3.5,-1.564 -3.499,-3.499l0.008,-29.51c0,-1.65 1.345,-2.991 2.991,-2.991l25.012,0c1.649,0 2.99,1.345 2.99,2.991l0,17.009l2.002,0c1.657,0 2.997,1.34 2.997,3l0,9.499c0,0.082 -0.003,0.163 -0.008,0.243l-0.001,0.003l0,0l0,0l0,0.003c-0.128,1.819 -1.633,3.25 -3.487,3.252l-0.004,0ZM29.002,20l0,-17.009c0,-0.542 -0.448,-0.991 -0.991,-0.991l-25.012,0c-0.543,0 -0.991,0.447 -0.991,0.992l-0.008,29.51c-0.001,0.83 0.666,1.498 1.499,1.498l25.839,0c-0.217,-0.456 -0.338,-0.965 -0.338,-1.503l0,-12.497l0.002,0ZM31,22l0,10.497c0,0.83 0.672,1.503 1.5,1.503l0.002,0c0.734,-0.001 1.35,-0.539 1.475,-1.238c0.015,-0.086 0.023,-0.174 0.023,-0.265l0,-9.491c0,-0.556 -0.45,-1.006 -1.005,-1.006l-1.995,0ZM13.493,31l-8.486,0c-0.556,0 -1.007,-0.444 -1.007,-1c0,-0.552 0.451,-1 1.007,-1l8.486,0c0.556,0 1.007,0.444 1.007,1c0,0.552 -0.451,1 -1.007,1ZM25.993,31l-8.486,0c-0.556,0 -1.007,-0.444 -1.007,-1c0,-0.552 0.451,-1 1.007,-1l8.486,0c0.556,0 1.007,0.444 1.007,1c0,0.552 -0.451,1 -1.007,1ZM13.493,27l-8.486,0c-0.556,0 -1.007,-0.444 -1.007,-1c0,-0.552 0.451,-1 1.007,-1l8.486,0c0.556,0 1.007,0.444 1.007,1c0,0.552 -0.451,1 -1.007,1ZM25.993,27l-8.486,0c-0.556,0 -1.007,-0.444 -1.007,-1c0,-0.552 0.451,-1 1.007,-1l8.486,0c0.556,0 1.007,0.444 1.007,1c0,0.552 -0.451,1 -1.007,1ZM13.493,23l-8.486,0c-0.556,0 -1.007,-0.444 -1.007,-1c0,-0.552 0.451,-1 1.007,-1l8.486,0c0.556,0 1.007,0.444 1.007,1c0,0.552 -0.451,1 -1.007,1ZM25.993,23l-8.486,0c-0.556,0 -1.007,-0.444 -1.007,-1c0,-0.552 0.451,-1 1.007,-1l8.486,0c0.556,0 1.007,0.444 1.007,1c0,0.552 -0.451,1 -1.007,1ZM25.997,19l-20.994,0c-0.554,0 -1.003,-0.444 -1.003,-1c0,-0.552 0.439,-1 1.003,-1l20.994,0c0.554,0 1.003,0.444 1.003,1c0,0.552 -0.439,1 -1.003,1ZM11,11l0,2.502c0,0.551 -0.444,0.998 -1,0.998c-0.552,0 -1,-0.446 -1,-0.998l0,-7.004c0,-0.551 0.444,-0.998 1,-0.998c0.552,0 1,0.446 1,0.998l0,2.502l9,0l0,-2.502c0,-0.552 0.448,-0.998 1,-0.998c0.556,0 1,0.447 1,0.998l0,7.004c0,0.552 -0.448,0.998 -1,0.998c-0.556,0 -1,-0.447 -1,-0.998l0,-2.502l-9,0ZM6,7.991c0,-0.547 0.444,-0.991 1,-0.991c0.552,0 1,0.451 1,0.991l0,4.018c0,0.547 -0.444,0.991 -1,0.991c-0.552,0 -1,-0.451 -1,-0.991l0,-4.018ZM25,7.991c0,-0.547 -0.444,-0.991 -1,-0.991c-0.552,0 -1,0.451 -1,0.991l0,4.018c0,0.547 0.444,0.991 1,0.991c0.552,0 1,-0.451 1,-0.991l0,-4.018Z"/></svg>
