<svg width="100%" height="100%" viewBox="0 0 36 36" version="1.1" xmlns="http://www.w3.org/2000/svg" xmlns:xlink="http://www.w3.org/1999/xlink" xml:space="preserve" style="fill-rule:evenodd;clip-rule:evenodd;stroke-linejoin:round;stroke-miterlimit:1.41421;"><path d="M19.749,21.163c-2.091,1.77 -4.795,2.837 -7.749,2.837c-6.627,0 -12,-5.373 -12,-12c0,-6.627 5.373,-12 12,-12c6.627,0 12,5.373 12,12c0,2.954 -1.067,5.658 -2.837,7.749l3.472,3.472c1.116,-0.533 2.493,-0.336 3.419,0.59l7.062,7.063c1.175,1.175 1.181,3.071 0.005,4.247c-1.173,1.172 -3.073,1.169 -4.247,-0.005l-7.063,-7.062c-0.927,-0.927 -1.126,-2.303 -0.591,-3.42l-3.471,-3.471ZM25.225,26.639c-0.395,-0.395 -0.397,-1.025 -0.004,-1.418c0.39,-0.39 1.025,-0.389 1.418,0.004l7.063,7.063c0.396,0.396 0.398,1.025 0.004,1.418c-0.39,0.391 -1.024,0.39 -1.418,-0.004l-7.063,-7.063ZM12,22c-5.523,0 -10,-4.477 -10,-10c0,-5.523 4.477,-10 10,-10c5.523,0 10,4.477 10,10c0,5.523 -4.477,10 -10,10ZM20,12c0,-4.418 -3.582,-8 -8,-8c-0.552,0 -1,0.448 -1,1c0,0.552 0.448,1 1,1c3.314,0 6,2.686 6,6c0,0.552 0.448,1 1,1c0.552,0 1,-0.448 1,-1Z"/></svg>
