<svg viewBox="0 0 42 20" xmlns="http://www.w3.org/2000/svg" fill-rule="evenodd" clip-rule="evenodd" stroke-linejoin="round" stroke-miterlimit="1.41421"><path d="M0 16.5s.012-2.752.025-2.934c.021-.3.049-.633.085-.991.102-1.026.249-2.052.448-3.018.141-.683.305-1.313.493-1.878.798-2.39 1.629-3.773 2.242-4.386.304-.304.769-.38 1.154-.187.101.05.348.145.735.247 1.129.297 2.528.393 4.177.157 1.175-.168 2.081-.67 2.776-1.41.303-.322.545-.669.73-1.014.106-.198.166-.342.186-.402.198-.593.884-.861 1.431-.56.167.092.494.267.966.514.791.413 1.701.874 2.714 1.371 2.898 1.419 6.05 2.84 9.344 4.165 3.84 1.544 7.622 2.856 11.261 3.862 1.256.348 2.12 1.265 2.658 2.516.386.899.541 1.775.574 2.396.005.094.001 1.553.001 1.553C42 18.436 40.438 20 38.498 20H3.502C1.565 20 0 18.44 0 16.5zm2 0c0 .834.668 1.5 1.502 1.5h34.996c.835 0 1.502-.668 1.502-1.499v-.526l-38-.95V16.5zM17 3.666c-.917-.452-1.746-.873-2.478-1.255-.027-.014-.053-.028-.08-.042-.218.352-.498.727-.849 1.101-.994 1.058-2.307 1.785-3.952 2.02-1.921.274-3.588.16-4.967-.203-.115-.03-.222-.06-.322-.091-.038.059-.078.123-.12.193-.43.717-.869 1.681-1.283 2.923-.162.484-.306 1.039-.432 1.65-.184.89-.321 1.851-.417 2.813-.009.085-.017.169-.025.252l37.731.943c-.06-.217-.133-.428-.219-.628-.319-.743-.763-1.215-1.354-1.378-3.716-1.028-7.568-2.364-11.473-3.935-1.308-.526-2.593-1.066-3.849-1.616-.03.066-.068.13-.114.191l-2.272 3c-.333.44-.96.527-1.4.193-.441-.333-.527-.96-.194-1.401l2.127-2.809c-.754-.343-1.496-.688-2.225-1.034-.01.016-.021.032-.033.047l-3 4c-.331.442-.958.531-1.4.2-.442-.331-.531-.958-.2-1.4L17 3.666z"/></svg>
