<svg viewBox="0 0 12 42" xmlns="http://www.w3.org/2000/svg" fill-rule="evenodd" clip-rule="evenodd" stroke-linejoin="round" stroke-miterlimit="1.41421"><path d="M5.139 6.517c-.019-.39-.053-.775-.102-1.151-.229-1.747-.768-2.984-1.592-3.534-.459-.306-.583-.927-.277-1.387.306-.459.927-.583 1.387-.277 1.363.909 2.112 2.549 2.43 4.691.185-.318.38-.622.584-.914C8.65 2.4 9.759 1.502 10.553 1.106c.494-.247 1.094-.047 1.341.447.247.494.047 1.094-.447 1.341-.101.051-.325.193-.634.443-.542.438-1.09 1.018-1.606 1.755-.916 1.309-1.621 2.953-2.032 4.977 2.725.432 4.639 2.846 4.351 5.718L9.194 39.108C9.034 40.714 7.617 42 6 42c-1.624 0-3.033-1.279-3.194-2.892L.474 15.787c-.291-2.904 1.668-5.344 4.45-5.733-.213-1.238-.871-2.034-1.871-2.535-.45-.225-.942-.372-1.436-.454C1.324 7.016 1.104 7 1 7c-.552 0-1-.448-1-1s.448-1 1-1c.766 0 1.846.18 2.947.731.439.219.838.481 1.192.786zM5.985 12h-.278c-2.004 0-3.443 1.594-3.243 3.588L2.705 18H6c.552 0 1 .448 1 1s-.448 1-1 1H2.905l1.2 12H6c.552 0 1 .448 1 1s-.448 1-1 1H4.305l.491 4.909C4.855 39.501 5.405 40 6 40c.588 0 1.146-.506 1.204-1.091L8.395 27H6c-.552 0-1-.448-1-1s.448-1 1-1h2.595l.941-9.412C9.736 13.593 8.293 12 6.293 12H5.985z"/></svg>
