<svg viewBox="0 0 42 20" xmlns="http://www.w3.org/2000/svg" fill-rule="evenodd" clip-rule="evenodd" stroke-linejoin="round" stroke-miterlimit="1.414"><path d="M10 17.005A3.012 3.012 0 0 1 7.003 20H7a3 3 0 0 1-2.896-2.21 2.99 2.99 0 0 1-1.106.211A3.012 3.012 0 0 1 0 15.003V5.006v-.005a3.017 3.017 0 0 1 3.002-3.002c.377 0 .751.072 1.102.21A3.008 3.008 0 0 1 7 0c1.662 0 3 1.338 3 2.995V9h22V2.995v-.003A3.007 3.007 0 0 1 34.992 0H35c1.384 0 2.55.936 2.896 2.209.351-.138.725-.21 1.102-.21A3.017 3.017 0 0 1 42 5.001v10.002a3.012 3.012 0 0 1-2.998 2.998 2.99 2.99 0 0 1-1.106-.211A3 3 0 0 1 35 20c-1.656 0-3-1.34-3-2.995V11H10v6.005zm24-14.01v-.002c0-.545.448-.993.993-.993H35c.553 0 1 .446 1 .995v14.012a.997.997 0 0 1-.993.993H35c-.553 0-1-.446-1-.995V2.995zm-26 0v14.01a1.002 1.002 0 0 1-.997.995H7c-.557 0-1-.443-1-.995V2.995c.001-.546.451-.995.997-.995H7c.557 0 1 .443 1 .995zm30 2.011v-.008c0-.547.45-.998.998-.998H39c.552 0 1 .449 1 1.006V15.002c0 .547-.45.998-.998.998H39c-.552 0-1-.449-1-1.006V5.006zm-34 0v9.988C4 15.551 3.552 16 3 16c-.556 0-1-.446-1-1.006V5.006C2 4.449 2.448 4 3 4c.556 0 1 .446 1 1.006z"/></svg>
