<svg viewBox="0 0 100 100" xmlns="http://www.w3.org/2000/svg" fill-rule="evenodd" clip-rule="evenodd" stroke-linejoin="round" stroke-miterlimit="1.414"><path d="M77 8c0-4.415-3.585-8-8-8H31c-4.415 0-8 3.585-8 8v84c0 4.415 3.585 8 8 8h38c4.415 0 8-3.585 8-8V8z" fill="#545459"/><path d="M74 12a1 1 0 0 0-1-1H27a1 1 0 0 0-1 1v76a1 1 0 0 0 1 1h46a1 1 0 0 0 1-1V12z" fill="#fafafa"/><circle cx="50.5" cy="94.5" r="3.5" fill="#9c9da7" fill-opacity=".6"/><path d="M56 5a1 1 0 0 0-1-1H45a1 1 0 0 0 0 2h10a1 1 0 0 0 1-1z" fill="#777880"/><path d="M66 70H36a1 1 0 0 1 0-2h30a1 1 0 0 1 0 2zm-33-1a1 1 0 1 0-2 0 1 1 0 0 0 2 0zm17-3H36a1 1 0 0 1 0-2h14a1 1 0 0 1 0 2zm-17-1a1 1 0 1 0-2 0 1 1 0 0 0 2 0zm25-3H36a1 1 0 0 1 0-2h22a1 1 0 0 1 0 2zm-25-1a1 1 0 1 0-2 0 1 1 0 0 0 2 0zm20-3H32a1 1 0 0 1 0-2h21a1 1 0 0 1 0 2zm15-4H32a1 1 0 0 1 0-2h36a1 1 0 0 1 0 2zM50 40H32a1 1 0 0 1 0-2h18a1 1 0 0 1 0 2zm18-4H32a1 1 0 0 1 0-2h36a1 1 0 0 1 0 2zm0-4H32a1 1 0 0 1 0-2h36a1 1 0 0 1 0 2z" fill="#bdbec7"/><path d="M58 74a2 2 0 0 1 2 2v6a2 2 0 0 1-2 2H42a2 2 0 0 1-2-2v-6a2 2 0 0 1 2-2h16zM36 16a2 2 0 0 1 0 4h-5a2 2 0 0 1 0-4h5z" fill="#8bc541"/><path d="M53.036 76.001c.163.009.318.05.461.131a1.009 1.009 0 0 1 .458 1.166c-.044.14-.119.263-.215.374a117.306 117.306 0 0 1-4.021 4.022 1.004 1.004 0 0 1-1.346 0 61.942 61.942 0 0 1-2.113-2.114 1.049 1.049 0 0 1-.215-.375 1.003 1.003 0 0 1 .967-1.297c.097.001.193.017.286.045.156.049.291.136.409.248l1.339 1.339c1.094-1.094 2.162-2.214 3.282-3.28.037-.032.036-.032.074-.062a1.16 1.16 0 0 1 .166-.1 1.06 1.06 0 0 1 .372-.096c.048-.002.048-.002.096-.001z" fill="#fff" fill-rule="nonzero"/><path d="M49 17a1 1 0 0 1 0 2h-3a1 1 0 0 1 0-2h3zm7 0a1 1 0 0 1 0 2h-3a1 1 0 0 1 0-2h3zm7 0a1 1 0 0 1 0 2h-3a1 1 0 0 1 0-2h3zm7 0a1 1 0 0 1 0 2h-3a1 1 0 0 1 0-2h3z" fill="#dddde6"/><path d="M54 45v-1a1 1 0 0 1 2 0v.5a.5.5 0 0 1 1 0v3a.5.5 0 0 1-1 0v.5a1 1 0 0 1-2 0v-1h-8v1a1 1 0 0 1-2 0v-.5a.5.5 0 0 1-1 0v-3a.5.5 0 0 1 1 0V44a1 1 0 0 1 2 0v1h8zm5.5-21a1.5 1.5 0 0 1 0 3h-18a1.5 1.5 0 0 1 0-3h18z" fill="#9c9da7"/></svg>