<svg viewBox="0 0 100 100" xmlns="http://www.w3.org/2000/svg" fill-rule="evenodd" clip-rule="evenodd" stroke-linejoin="round" stroke-miterlimit="1.414"><path d="M24 48c0-3.571 2-6.934 2-9.909.017-2.976-2-5.494-2-9.091V18.997A5 5 0 0 1 29.006 14h25.988A5.004 5.004 0 0 1 60 19.005V29c0 3.571-2 6.115-2 9.091 0 2.975 2 6.338 2 9.909v49.007A3 3 0 0 1 56.993 100H27.007A2.996 2.996 0 0 1 24 97.007V48z" fill="#bfefff"/><path d="M45 3c.596 0 1 .03 1-.55V.996A1 1 0 0 0 45.003 0h-6.006A.998.998 0 0 0 38 .996V2.45c0 .578.414.55 1 .55v2l-7.692 1.291C30.039 6.538 29 7.787 29 9v5h26V9c0-1.219-1.033-2.461-2.308-2.709L45 5V3z" fill="#acd7e6"/><path d="M45 3h-6v2h6V3z" fill="#a3cbd9"/><path d="M95 45a2 2 0 0 0-2-2H53a2 2 0 0 0-2 2v53a2 2 0 0 0 2 2h40a2 2 0 0 0 2-2V45z" fill="#faf8f3"/><path d="M85 50.5a1.5 1.5 0 0 0-1.5-1.5h-21a1.5 1.5 0 0 0 0 3h21a1.5 1.5 0 0 0 1.5-1.5z" fill="#d4d0c5"/><path d="M63.527 81.25a.79.79 0 0 1 .313.082c.31.158.473.52.386.856a.78.78 0 0 1-.171.316 89.566 89.566 0 0 1-3.051 3.051.757.757 0 0 1-1.008 0 45.367 45.367 0 0 1-1.551-1.551.78.78 0 0 1-.171-.316.756.756 0 0 1 .452-.886.743.743 0 0 1 .804.168l.97.969c.832-.831 1.644-1.683 2.496-2.494.028-.024.056-.046.085-.067a.823.823 0 0 1 .302-.119c.048-.006.095-.009.144-.009zM82 84H68a1 1 0 0 1 0-2h14a1 1 0 0 1 0 2zM63.527 73.25a.79.79 0 0 1 .313.082c.31.158.473.52.386.856a.78.78 0 0 1-.171.316 90.49 90.49 0 0 1-3.051 3.051.757.757 0 0 1-1.008 0 45.367 45.367 0 0 1-1.551-1.551.748.748 0 0 1-.129-.812.756.756 0 0 1 .907-.408.765.765 0 0 1 .307.186l.97.969c.832-.831 1.644-1.683 2.496-2.494.028-.024.056-.046.085-.067a.823.823 0 0 1 .302-.119c.048-.006.095-.009.144-.009zM86 76H68a1 1 0 0 1 0-2h18a1 1 0 0 1 0 2zM63.527 65.25a.786.786 0 0 1 .345.099.757.757 0 0 1 .344.874.79.79 0 0 1-.161.281 89.566 89.566 0 0 1-3.051 3.051.757.757 0 0 1-1.008 0 45.367 45.367 0 0 1-1.551-1.551.78.78 0 0 1-.171-.316.758.758 0 0 1 .699-.938.743.743 0 0 1 .557.22l.97.969c.832-.831 1.644-1.683 2.496-2.494.028-.024.056-.046.085-.067a.823.823 0 0 1 .302-.119c.048-.006.095-.009.144-.009zM81 68H68a1 1 0 0 1 0-2h13a1 1 0 0 1 0 2zM63.527 57.25a.786.786 0 0 1 .345.099.757.757 0 0 1 .344.874.79.79 0 0 1-.161.281 89.566 89.566 0 0 1-3.051 3.051.757.757 0 0 1-1.008 0 45.367 45.367 0 0 1-1.551-1.551.748.748 0 0 1-.012-.995.756.756 0 0 1 .79-.225.765.765 0 0 1 .307.186l.97.969c.832-.831 1.644-1.683 2.496-2.494.028-.024.056-.046.085-.067a.823.823 0 0 1 .302-.119c.048-.006.095-.009.144-.009zM86 60H68a1 1 0 0 1 0-2h18a1 1 0 0 1 0 2z" fill="#e6e2d6"/><path d="M29.038 70.989c8.479-1.232 12.917 6.349 11.789 14.793C39.456 96.048 31.228 102.683 23 98.947c-4.114 1.868-8.228 1.143-11.485-1.332-3.257-2.475-5.656-6.7-6.342-11.833C3.802 75.515 10.658 66.525 23 73.099c2.191-1.167 4.209-1.844 6.038-2.11z" fill="#fa6969"/><path d="M23.88 68.146c.882.207 2.081.324 3.171-.12 2.049-.836 3.235-3.657 3.235-3.657s-2.724-.832-4.772.003c-.936.382-1.631 1.112-2.11 1.793-.149-.486-.319-.95-.511-1.392a1.286 1.286 0 0 0-2.357 1.026c.293.673.527 1.433.707 2.264.268 1.245.399 2.58.425 3.909a22.968 22.968 0 0 1-.036 1.737c-.058.708 2.504.918 2.562.211a20.94 20.94 0 0 0 .044-1.997 23.87 23.87 0 0 0-.358-3.777z" fill="#a1de52"/><path d="M44 87.538l1.207-4.14c.24-.821 1.102-1.398 2.09-1.398h4.143c1.003 0 1.874.593 2.099 1.431L54.769 88c.001 0 5.562-.836 9.693-.836h1.076c4.131 0 9.692.836 9.693.836l1.23-4.569C76.686 82.593 77.557 82 78.56 82h4.143c.988 0 1.85.577 2.09 1.398L86 87.538v6.924l-1.207 4.14c-.24.821-1.102 1.398-2.09 1.398H78.56c-1.003 0-1.874-.593-2.099-1.431L75.231 94c-.001 0-5.562.836-9.693.836h-1.076c-4.131 0-9.692-.836-9.693-.836l-1.23 4.569c-.225.838-1.096 1.431-2.099 1.431h-4.143c-.988 0-1.85-.577-2.09-1.398L44 94.462v-6.924z" fill="#b6b7bf"/></svg>