<svg viewBox="0 0 100 100" xmlns="http://www.w3.org/2000/svg" fill-rule="evenodd" clip-rule="evenodd" stroke-linejoin="round" stroke-miterlimit="1.414"><path d="M69 2a2 2 0 0 0-2-2H7a2 2 0 0 0-2 2v96a2 2 0 0 0 2 2h60a2 2 0 0 0 2-2V2z" fill="#fffffd"/><path d="M58 14.5a1.5 1.5 0 0 0-1.5-1.5h-39a1.5 1.5 0 0 0 0 3h39a1.5 1.5 0 0 0 1.5-1.5z" fill="#e1e2e6"/><path d="M21 10.5a1.5 1.5 0 0 0-3 0v8a1.5 1.5 0 0 0 3 0v-8zm32 0a1.5 1.5 0 0 1 3 0v8a1.5 1.5 0 0 1-3 0v-8z" fill="#adaeb3"/><path d="M24 9.5a1.5 1.5 0 0 0-3 0v10a1.5 1.5 0 0 0 3 0v-10zm26 0a1.5 1.5 0 0 1 3 0v10a1.5 1.5 0 0 1-3 0v-10z" fill="#b9b9bd"/><path d="M61.5 86a1.5 1.5 0 0 1 0 3h-49a1.5 1.5 0 0 1 0-3h49zm0-6a1.5 1.5 0 0 1 0 3h-49a1.5 1.5 0 0 1 0-3h49zm0-12a1.5 1.5 0 0 1 0 3h-49a1.5 1.5 0 0 1 0-3h49zm0-6a1.5 1.5 0 0 1 0 3h-49a1.5 1.5 0 0 1 0-3h49zm0-6a1.5 1.5 0 0 1 0 3h-49a1.5 1.5 0 0 1 0-3h49zm0-6a1.5 1.5 0 0 1 0 3h-49a1.5 1.5 0 0 1 0-3h49zm0-12a1.5 1.5 0 0 1 0 3h-49a1.5 1.5 0 0 1 0-3h49zm0-6a1.5 1.5 0 0 1 0 3h-49a1.5 1.5 0 0 1 0-3h49zm0-6a1.5 1.5 0 0 1 0 3h-49a1.5 1.5 0 0 1 0-3h49z" fill="#eeeef3"/><path d="M95 48c0-2.208-1.792-4-4-4H23c-2.208 0-4 1.792-4 4v48c0 2.208 1.792 4 4 4h68c2.208 0 4-1.792 4-4V48z" fill="#f3f4f5"/><path d="M56 51a1 1 0 0 0-1-1H31a1 1 0 0 0-1 1v2a1 1 0 0 0 1 1h24a1 1 0 0 0 1-1v-2z" fill="#bdbec7"/><path d="M88.981 69.647H78.095L67.67 72.781a11.418 11.418 0 0 0 .55 1.255 10.976 10.976 0 0 0 4.022 4.337 11.033 11.033 0 0 0 3.209 1.329c1.11.264 2.259.352 3.396.266a10.945 10.945 0 0 0 6.451-2.737 11.072 11.072 0 0 0 2.499-3.224 10.939 10.939 0 0 0 1.181-4.3l.003-.06z" fill="#c2f87c"/><path d="M78.481 68.353h10.5l-.013-.2a10.92 10.92 0 0 0-.781-3.311 11.054 11.054 0 0 0-6.279-6.128 10.95 10.95 0 0 0-3.624-.71c-.142-.003-.142-.003-.285-.004a11.029 11.029 0 0 0-2.54.298l3.022 10.055z" fill="#8bc541"/><path d="M74.171 58.688a10.957 10.957 0 0 0-3.046 1.724 11.051 11.051 0 0 0-3.157 4.075 10.973 10.973 0 0 0-.878 5.914c.046.365.113.727.195 1.086l.013.054 9.893-2.974-3.02-9.879z" fill="#a1de52"/><path d="M59.5 89a1.5 1.5 0 0 1 0 3h-33a1.5 1.5 0 0 1 0-3h33zM81 87a1 1 0 0 1 0 2H68a1 1 0 0 1 0-2h13zm-21.5-4a1.5 1.5 0 0 1 0 3h-33a1.5 1.5 0 0 1 0-3h33zM88 83a1 1 0 0 1 0 2H68a1 1 0 0 1 0-2h20zm-28.5-6a1.5 1.5 0 0 1 0 3h-33a1.5 1.5 0 0 1 0-3h33zm0-6a1.5 1.5 0 0 1 0 3h-33a1.5 1.5 0 0 1 0-3h33zm0-6a1.5 1.5 0 0 1 0 3h-33a1.5 1.5 0 0 1 0-3h33zm0-6a1.5 1.5 0 0 1 0 3h-33a1.5 1.5 0 0 1 0-3h33z" fill="#e1e2e6"/></svg>