<svg viewBox="0 0 36 36" xmlns="http://www.w3.org/2000/svg" fill-rule="evenodd" clip-rule="evenodd" stroke-linejoin="round" stroke-miterlimit="1.414"><path d="M26 36H10a1.096 1.096 0 0 1-.388-.078 1.01 1.01 0 0 1-.61-.865 1.087 1.087 0 0 1 .056-.392c.323-.91.637-1.823.971-2.729.076-.191.162-.376.264-.555a4.793 4.793 0 0 1 1.399-1.509 4.783 4.783 0 0 1 1.892-.808c.201-.037.404-.056.609-.063l.807-.009v-5.21c-5.022-.776-8.19-3.579-9.747-7.834a3.343 3.343 0 0 1-.168-.035 4.922 4.922 0 0 1-1.491-.641 7.208 7.208 0 0 1-1.622-1.431 9.354 9.354 0 0 1-.402-.509 9.34 9.34 0 0 1-.499-.763 8.676 8.676 0 0 1-.52-1.044 7.388 7.388 0 0 1-.445-1.462 5.339 5.339 0 0 1-.061-1.738 4.05 4.05 0 0 1 .259-.968 3.518 3.518 0 0 1 1.104-1.443 4.034 4.034 0 0 1 1.119-.597c.588-.207 1.209-.293 1.83-.313a26.92 26.92 0 0 1 .281-1.773 7.27 7.27 0 0 1 .088-.417C4.977 1.237 6.457 0 8.055 0h19.89c1.588 0 3.051 1.232 3.315 2.743.022.092.057.257.102.488a26.92 26.92 0 0 1 .281 1.773c.645.021 1.291.113 1.899.338.354.131.692.307.995.531.479.354.862.825 1.108 1.367.156.344.257.711.31 1.085a5.339 5.339 0 0 1-.061 1.738 7.388 7.388 0 0 1-.445 1.462 8.676 8.676 0 0 1-.52 1.044 8.858 8.858 0 0 1-.986 1.37c-.142.161-.29.317-.444.466-.75.727-1.672 1.325-2.708 1.535a3.354 3.354 0 0 1-.044.009c-1.558 4.255-4.725 7.057-9.747 7.833v5.21l.807.009c.206.007.409.026.612.063.68.123 1.328.413 1.893.811a4.78 4.78 0 0 1 1.396 1.508c.102.178.187.363.263.553.334.906.648 1.819.971 2.729.04.129.064.256.056.392a1.01 1.01 0 0 1-.61.865A1.096 1.096 0 0 1 26 36zm-11.713-5a2.388 2.388 0 0 0-.994.244 3.049 3.049 0 0 0-.884.634 2.351 2.351 0 0 0-.528.816L11.417 34h13.166c-.164-.463-.315-.931-.495-1.388a2.478 2.478 0 0 0-.567-.804c-.46-.443-1.075-.768-1.719-.806-2.504-.089-5.01-.002-7.515-.002zM17 23.977v5.003c.667-.002 1.333-.002 2 0v-5.003a21.806 21.806 0 0 1-2 0zM27.945 2c.616 0 1.249.533 1.357 1.145.027.123.057.262.097.466.067.347.134.745.198 1.187.378 2.639.426 5.423-.061 8.002C28.436 18.614 24.923 22 18 22c-6.923 0-10.436-3.386-11.536-9.2-.487-2.579-.439-5.363-.061-8.002.064-.442.131-.84.198-1.187.04-.204.07-.343.086-.41C6.796 2.531 7.432 2 8.055 2h19.89zM22.5 10.5V8a1 1 0 0 1 2 0v7a1 1 0 0 1-2 0v-2.5h-9V15a1 1 0 0 1-2 0V8a1 1 0 0 1 2 0v2.5h9zm-12-1a1 1 0 0 0-2 0v4a1 1 0 0 0 2 0v-4zm15 0a1 1 0 0 1 2 0v4a1 1 0 0 1-2 0v-4zm6.335-2.484c.129 2.059.045 4.149-.334 6.156-.022.117-.045.234-.07.35.166-.112.323-.235.471-.364a6.402 6.402 0 0 0 1.3-1.598c.308-.528.553-1.1.691-1.698a4.385 4.385 0 0 0 .094-.589c.047-.555-.028-1.171-.42-1.596a1.52 1.52 0 0 0-.269-.231 2.172 2.172 0 0 0-.531-.257 3.786 3.786 0 0 0-.932-.173zm-27.67 0c-.028.001-.055.004-.083.006-.094.009-.189.02-.283.034-.521.08-1.075.261-1.42.683a1.465 1.465 0 0 0-.153.228 1.742 1.742 0 0 0-.164.442 2.545 2.545 0 0 0-.061.628c.005.338.062.675.15 1.001.178.664.482 1.294.862 1.866.34.511.747.984 1.225 1.371.105.086.216.169.33.246a19.568 19.568 0 0 1-.069-.349c-.379-2.007-.463-4.097-.334-6.156z"/></svg>
