<svg viewBox="0 0 100 100" xmlns="http://www.w3.org/2000/svg" fill-rule="evenodd" clip-rule="evenodd" stroke-linejoin="round" stroke-miterlimit="1.414"><path d="M87 3c0-1.656-1.344-3-3-3H16c-1.656 0-3 1.344-3 3v94c0 1.656 1.344 3 3 3h68c1.656 0 3-1.344 3-3V3z" fill="#faf6eb"/><path fill="#e6e0cf" d="M13 0h74v6H13z"/><path d="M45 15.417c0-.669.215-1.347.645-2.034.429-.687 1.056-1.256 1.881-1.707.824-.451 1.786-.676 2.885-.676 1.021 0 1.923.188 2.705.565.782.377 1.386.89 1.813 1.538.426.648.639 1.353.639 2.114 0 .599-.121 1.123-.365 1.574-.243.451-.531.84-.866 1.168-.335.328-.935.879-1.802 1.654a7.05 7.05 0 0 0-.576.576 2.329 2.329 0 0 0-.322.454 2.237 2.237 0 0 0-.164.412c-.039.138-.097.379-.174.724-.134.733-.554 1.099-1.258 1.099-.366 0-.675-.119-.925-.359-.25-.239-.375-.595-.375-1.067 0-.592.092-1.105.275-1.538.183-.433.426-.814.729-1.141.303-.328.712-.717 1.226-1.168.451-.395.777-.692.977-.893.201-.201.37-.424.508-.671.137-.247.206-.514.206-.803a1.87 1.87 0 0 0-.629-1.427c-.419-.387-.96-.581-1.622-.581-.775 0-1.346.195-1.712.586-.367.391-.677.967-.93 1.728-.24.796-.694 1.194-1.363 1.194a1.34 1.34 0 0 1-.999-.417c-.271-.278-.407-.579-.407-.904zM50.157 27c-.43 0-.805-.139-1.125-.417-.321-.279-.481-.668-.481-1.168 0-.444.155-.817.465-1.12a1.57 1.57 0 0 1 1.141-.455c.444 0 .817.152 1.12.455.303.303.455.676.455 1.12 0 .493-.159.88-.476 1.162a1.603 1.603 0 0 1-1.099.423z" fill="#8bc541"/><path d="M31.5 89a1.5 1.5 0 0 1 0 3h-9a1.5 1.5 0 0 1 0-3h9zm46 0a1.5 1.5 0 0 1 0 3h-8a1.5 1.5 0 0 1 0-3h8zm-15 0a1.5 1.5 0 0 1 0 3h-9a1.5 1.5 0 0 1 0-3h9zm-16 0a1.5 1.5 0 0 1 0 3h-8a1.5 1.5 0 0 1 0-3h8zM24 77.5a1.5 1.5 0 1 0-3.001.001A1.5 1.5 0 0 0 24 77.5zM57.5 76a1.5 1.5 0 0 1 0 3h-29a1.5 1.5 0 0 1 0-3h29zM24 71.5a1.5 1.5 0 1 0-3.001.001A1.5 1.5 0 0 0 24 71.5zM68.5 70a1.5 1.5 0 0 1 0 3h-40a1.5 1.5 0 0 1 0-3h40zM24 65.5a1.5 1.5 0 1 0-3.001.001A1.5 1.5 0 0 0 24 65.5zM51.5 64a1.5 1.5 0 0 1 0 3h-23a1.5 1.5 0 0 1 0-3h23zm-15-13a1.5 1.5 0 0 1 0 3h-14a1.5 1.5 0 0 1 0-3h14zm41 0a1.5 1.5 0 0 1 0 3h-14a1.5 1.5 0 0 1 0-3h14zm-21 0a1.5 1.5 0 0 1 0 3h-13a1.5 1.5 0 0 1 0-3h13z" fill="#dbd6c5"/><path d="M77.5 83a1.5 1.5 0 0 1 0 3h-55a1.5 1.5 0 0 1 0-3h55zm0-25a1.5 1.5 0 0 1 0 3h-55a1.5 1.5 0 0 1 0-3h55zm-13-13a1.5 1.5 0 0 1 0 3h-42a1.5 1.5 0 0 1 0-3h42zm13-6a1.5 1.5 0 0 1 0 3h-55a1.5 1.5 0 0 1 0-3h55zM68 31a2 2 0 0 1 0 4H32a2 2 0 0 1 0-4h36z" fill="#d1ccbc"/></svg>