<svg viewBox="0 0 16 16" xmlns="http://www.w3.org/2000/svg" fill-rule="evenodd" clip-rule="evenodd" stroke-linejoin="round" stroke-miterlimit="1.414"><path d="M8 .424l2.035 5.166 5.542.339-4.284 3.531 1.39 5.375L8 11.851l-4.682 2.984 1.39-5.375L.423 5.929l5.543-.34L8 .424z" fill="#ffdb38"/><path d="M8.072.006c.042.01.053.011.092.027a.432.432 0 0 1 .185.15c.025.036.028.047.046.085l1.936 4.915 5.272.322.048.006a.474.474 0 0 1 .177.076.429.429 0 0 1 .019.669l-4.078 3.36 1.324 5.113.009.048a.429.429 0 0 1-.467.48.48.48 0 0 1-.18-.064L8 12.354l-4.454 2.84-.043.022a.46.46 0 0 1-.186.043.43.43 0 0 1-.416-.339.473.473 0 0 1 .006-.191L4.23 9.616.154 6.256l-.036-.033a.426.426 0 0 1 .28-.718l5.272-.323L7.606.269l.02-.044c.022-.037.026-.047.054-.079a.437.437 0 0 1 .201-.129c.042-.012.053-.011.095-.017.049 0 .048 0 .096.006zM6.359 5.745c-.016.039-.02.05-.044.085a.43.43 0 0 1-.228.167c-.043.012-.053.011-.095.016l-4.468.273 3.454 2.847.035.033c.028.032.037.039.059.077a.416.416 0 0 1 .059.228c0 .043-.004.054-.013.095l-1.12 4.333 3.775-2.404.041-.024c.04-.017.049-.022.091-.032a.425.425 0 0 1 .237.014c.04.014.049.021.086.042l3.775 2.404-1.121-4.333-.01-.046c-.003-.043-.006-.054-.002-.096a.426.426 0 0 1 .086-.221c.026-.034.036-.041.067-.07l3.454-2.847-4.468-.273-.047-.005c-.043-.01-.053-.011-.094-.028a.438.438 0 0 1-.183-.15c-.023-.035-.027-.046-.045-.085L8 1.581 6.36 5.745h-.001z" fill="#f2d035" fill-rule="nonzero"/></svg>