<svg><path d="M9,36c1.657,0 3,-1.343 3,-3c0,-1.657 -1.343,-3 -3,-3c-1.657,0 -3,1.343 -3,3c0,1.657 1.343,3 3,3ZM26,36c1.657,0 3,-1.343 3,-3c0,-1.657 -1.343,-3 -3,-3c-1.657,0 -3,1.343 -3,3c0,1.657 1.343,3 3,3ZM9,34c-0.552,0 -1,-0.448 -1,-1c0,-0.552 0.448,-1 1,-1c0.552,0 1,0.448 1,1c0,0.552 -0.448,1 -1,1ZM26,34c-0.552,0 -1,-0.448 -1,-1c0,-0.552 0.448,-1 1,-1c0.552,0 1,0.448 1,1c0,0.552 -0.448,1 -1,1ZM30.6,4l0.408,-3.129c0.065,-0.498 0.49,-0.871 0.994,-0.871l2.998,0c0.552,0 1,0.448 1,1c0,0.552 -0.448,1 -1,1l-2.122,0l-2.847,21.826l1.107,2.215c0.752,1.503 -0.165,2.959 -1.847,2.959l-25.291,0c-0.552,0 -1,-0.448 -1,-1c0,-0.552 0.448,-1 1,-1l25.291,0c0.152,0 0.156,0.056 0.113,0.015c0.027,0.026 0.036,0.013 0,0c-0.014,-0.013 -0.034,-0.038 -0.055,-0.08l-0.967,-1.935l-24.382,0c-0.492,0 -0.911,-0.358 -0.988,-0.844l-3,-19c-0.095,-0.607 0.374,-1.156 0.988,-1.156l29.6,0ZM28.122,23l2.252,-17.263l0.226,-1.737l0,0l-0.226,1.737l-0.035,0.263l-28.169,0l2.68,17l23.272,0ZM12,15l0,2.502c0,0.551 -0.444,0.998 -1,0.998c-0.552,0 -1,-0.446 -1,-0.998l0,-7.004c0,-0.551 0.444,-0.998 1,-0.998c0.552,0 1,0.446 1,0.998l0,2.502l9,0l0,-2.502c0,-0.552 0.448,-0.998 1,-0.998c0.556,0 1,0.447 1,0.998l0,7.004c0,0.552 -0.448,0.998 -1,0.998c-0.556,0 -1,-0.447 -1,-0.998l0,-2.502l-9,0ZM7,11.991c0,-0.547 0.444,-0.991 1,-0.991c0.552,0 1,0.451 1,0.991l0,4.018c0,0.547 -0.444,0.991 -1,0.991c-0.552,0 -1,-0.451 -1,-0.991l0,-4.018ZM26,11.991c0,-0.547 -0.444,-0.991 -1,-0.991c-0.552,0 -1,0.451 -1,0.991l0,4.018c0,0.547 0.444,0.991 1,0.991c0.552,0 1,-0.451 1,-0.991l0,-4.018Z"/></svg>
