<svg viewBox="0 0 36 36" xmlns="http://www.w3.org/2000/svg" fill-rule="evenodd" clip-rule="evenodd" stroke-linejoin="round" stroke-miterlimit="1.414"><path d="M27.041 12.001c.073.006.092.005.164.02a1.008 1.008 0 0 1 .753 1.264.992.992 0 0 1-.144.296c-.043.06-.057.072-.107.126l-12 12a1.117 1.117 0 0 1-.269.192 1.006 1.006 0 0 1-1.149-.196l-6-6.069c-.05-.054-.064-.066-.106-.127a.99.99 0 0 1-.112-.945c.144-.365.501-.616.893-.63a1.004 1.004 0 0 1 .747.296l5.293 5.354 11.289-11.289.061-.056c.058-.045.071-.058.134-.096.121-.072.25-.11.388-.133.083-.007.083-.007.165-.007z" fill="#fff"/></svg>
