<?xml version="1.0" encoding="UTF-8" standalone="no"?><!DOCTYPE svg PUBLIC "-//W3C//DTD SVG 1.1//EN" "http://www.w3.org/Graphics/SVG/1.1/DTD/svg11.dtd"><svg width="100%" height="100%" viewBox="0 0 22 14" version="1.1" xmlns="http://www.w3.org/2000/svg" xmlns:xlink="http://www.w3.org/1999/xlink" xml:space="preserve" style="fill-rule:evenodd;clip-rule:evenodd;stroke-linejoin:round;stroke-miterlimit:1.41421;"><path id="Page-1-Copy-3" d="M19.227,1.657c-0.634,0.281 -1.315,0.471 -2.03,0.557c0.73,-0.438 1.29,-1.13 1.554,-1.956c-0.683,0.406 -1.439,0.7 -2.244,0.858c-0.645,-0.687 -1.564,-1.116 -2.58,-1.116c-1.952,0 -3.534,1.582 -3.534,3.534c0,0.277 0.031,0.547 0.091,0.806c-2.937,-0.148 -5.542,-1.555 -7.285,-3.693c-0.304,0.522 -0.478,1.129 -0.478,1.777c0,1.226 0.624,2.308 1.572,2.942c-0.579,-0.019 -1.124,-0.178 -1.601,-0.443c0,0.015 0,0.03 0,0.045c0,1.712 1.218,3.141 2.835,3.465c-0.297,0.081 -0.609,0.124 -0.931,0.124c-0.228,0 -0.449,-0.022 -0.665,-0.063c0.45,1.404 1.755,2.426 3.301,2.455c-1.209,0.947 -2.733,1.512 -4.389,1.512c-0.285,0 -0.567,-0.016 -0.843,-0.049c1.564,1.003 3.422,1.588 5.418,1.588c6.501,0 10.056,-5.385 10.056,-10.056c0,-0.153 -0.004,-0.306 -0.011,-0.457c0.691,-0.498 1.29,-1.121 1.764,-1.83Z"/></svg>
