<svg viewBox="0 0 36 36" xmlns="http://www.w3.org/2000/svg" fill-rule="evenodd" clip-rule="evenodd" stroke-linejoin="round" stroke-miterlimit="1.414"><path d="M18 0c9.934 0 18 8.066 18 18s-8.066 18-18 18S0 27.934 0 18 8.066 0 18 0zm10.688 12.894a8.061 8.061 0 0 1-2.32.636 4.051 4.051 0 0 0 1.776-2.235 8.103 8.103 0 0 1-2.565.981 4.04 4.04 0 0 0-6.883 3.684 11.468 11.468 0 0 1-8.325-4.221 4.02 4.02 0 0 0-.547 2.031c0 1.401.713 2.638 1.797 3.362a4.034 4.034 0 0 1-1.83-.505v.051a4.04 4.04 0 0 0 3.24 3.96 4.018 4.018 0 0 1-1.824.069 4.043 4.043 0 0 0 3.773 2.806A8.106 8.106 0 0 1 9 25.185 11.436 11.436 0 0 0 15.192 27c7.429 0 11.492-6.155 11.492-11.492 0-.176-.004-.35-.012-.523a8.213 8.213 0 0 0 2.016-2.091z"/></svg>
