<svg xmlns="http://www.w3.org/2000/svg" viewBox="0 0 16 16">
  <path fill-rule="evenodd" d="M14.1349744,1.42028571 C13.6147692,1.66114286 13.056,1.824 12.4693333,1.89771429 C13.0683077,1.52228571 13.5277949,0.929142857 13.7444103,0.221142857 C13.184,0.569142857 12.5636923,0.821142857 11.9031795,0.956571429 C11.3739487,0.367714286 10.6198974,0 9.78625641,0 C8.18461538,0 6.8865641,1.356 6.8865641,3.02914286 C6.8865641,3.26657143 6.912,3.498 6.96123077,3.72 C4.55138462,3.59314286 2.41394872,2.38714286 0.983794872,0.554571429 C0.734358974,1.002 0.591589744,1.52228571 0.591589744,2.07771429 C0.591589744,3.12857143 1.10358974,4.056 1.8814359,4.59942857 C1.40635897,4.58314286 0.959179487,4.44685714 0.567794872,4.21971429 L0.567794872,4.25828571 C0.567794872,5.72571429 1.56717949,6.95057143 2.89394872,7.22828571 C2.65025641,7.29771429 2.39425641,7.33457143 2.13005128,7.33457143 C1.94297436,7.33457143 1.76164103,7.31571429 1.58441026,7.28057143 C1.95364103,8.484 3.02441026,9.36 4.29292308,9.38485714 C3.30092308,10.1965714 2.05046154,10.6808571 0.691692308,10.6808571 C0.457846154,10.6808571 0.226461538,10.6671429 -2.91504712e-15,10.6388571 C1.28328205,11.4985714 2.80779487,12 4.44553846,12 C9.77969231,12 12.6966154,7.38428571 12.6966154,3.38057143 C12.6966154,3.24942857 12.6933333,3.11828571 12.6875897,2.98885714 C13.2545641,2.562 13.7460513,2.028 14.1349744,1.42028571 L14.1349744,1.42028571 Z" transform="translate(1 2)"/>
</svg>
