<?xml version="1.0" encoding="UTF-8" standalone="no"?>
<svg viewBox="0 0 26 28" version="1.1" xmlns="http://www.w3.org/2000/svg" xmlns:xlink="http://www.w3.org/1999/xlink">
  <g id="Shape" fill="rgba(255, 97, 107, 1)">
    <path
      d="M24.144,23.197 C23.098,22.301 20.028,21.65 17.97,21.298 C17.813,23.918 15.66,26 13,26 C10.34,26 8.187,23.918 8.03,21.298 C5.972,21.65 2.902,22.3 1.856,23.197 C0.233,24.592 0,28 0,28 L26,28 C26,28 25.767,24.592 24.144,23.197 L24.144,23.197 Z"></path>
    <path
      d="M10,21 C10,21 9.617,21.048 9.022,21.139 L9.028,21.239 C9.155,23.348 10.899,25.001 13,25.001 C15.101,25.001 16.845,23.349 16.972,21.239 L16.978,21.139 C16.383,21.048 16,21 16,21 C16,21 15.443,19.766 15.451,18.389 C16.859,18.177 18.805,17.774 21.125,17 C21.125,-2.5 13,1.203 13,1.203 C13,1.203 4.875,-2.5 4.875,17 C7.195,17.773 9.141,18.176 10.55,18.389 C10.56,19.766 10,21 10,21 L10,21 Z"></path>
  </g>
</svg>
