<svg xmlns="http://www.w3.org/2000/svg" viewBox="0 0 16 16"><path fill-rule="evenodd" d="M6.34818346 9.70205492l-.0007362-4.49557002 4.32326594 2.255617-4.32252974 2.23995302zm9.49204364-5.2743688s-.1563268-1.10255812-.636084-1.58809534c-.6084213-.63727446-1.2904009-.6404386-1.6031484-.6777346C11.3620285 2 8.00346175 2 8.00346175 2h-.00695482S4.6380185 2 2.398974 2.16185618c-.31276322.037296-.9945078.04046014-1.60314846.6777346-.4797102.48553722-.6358177 1.58809535-.6358177 1.58809535S0 5.72247296 0 7.0172441V8.231095c0 1.2947555.16000783 2.5895267.16000783 2.5895267s.1561075 1.1025894.6358177 1.5881266c.60864067.6372745 1.40814725.6171149 1.76423713.6839063C3.84007832 13.2153977 8 13.2533829 8 13.2533829s3.3620285-.0050594 5.6009947-.1669c.3127475-.0373116.9947271-.0404601 1.6031484-.6777346.4797572-.4855372.636084-1.5881266.636084-1.5881266S16 9.5258505 16 8.231095V7.0172441c0-1.29477114-.1597729-2.58955797-.1597729-2.58955797z"/></svg>